<mxfile host="app.diagrams.net" agent="Mozilla/5.0 (Windows NT 10.0; Win64; x64) AppleWebKit/537.36 (KHTML, like Gecko) Chrome/134.0.0.0 Safari/537.36 Edg/134.0.0.0" version="26.2.5">
  <diagram id="Ht1M8jgEwFfnCIfOTk4-" name="All">
    <mxGraphModel dx="828" dy="4311" grid="1" gridSize="10" guides="1" tooltips="1" connect="1" arrows="1" fold="1" page="1" pageScale="1" pageWidth="4681" pageHeight="3300" background="none" math="0" shadow="0">
      <root>
        <mxCell id="0" />
        <mxCell id="1" parent="0" />
        <mxCell id="Me6KZ-e09-LLOQmQ4gK6-18" value="Generic group" style="fillColor=none;strokeColor=light-dark(#5A6C86,#FF7F93);dashed=1;verticalAlign=top;fontStyle=0;fontColor=#5A6C86;whiteSpace=wrap;html=1;strokeWidth=10;" vertex="1" parent="1">
          <mxGeometry x="1990" y="-1940" width="870" height="120" as="geometry" />
        </mxCell>
        <mxCell id="Me6KZ-e09-LLOQmQ4gK6-2" value="" style="fillColor=none;strokeColor=light-dark(#5A6C86,#0E9D86);dashed=1;verticalAlign=top;fontStyle=0;fontColor=#5A6C86;whiteSpace=wrap;html=1;strokeWidth=10;" vertex="1" parent="1">
          <mxGeometry x="560" y="-1680" width="1040" height="780" as="geometry" />
        </mxCell>
        <mxCell id="Me6KZ-e09-LLOQmQ4gK6-16" value="" style="group" vertex="1" connectable="0" parent="1">
          <mxGeometry x="960" y="-1480" width="582" height="530" as="geometry" />
        </mxCell>
        <mxCell id="Me6KZ-e09-LLOQmQ4gK6-15" value="" style="fillColor=none;strokeColor=light-dark(#5A6C86,#0E9D86);dashed=1;verticalAlign=top;fontStyle=0;fontColor=#5A6C86;whiteSpace=wrap;html=1;strokeWidth=8;" vertex="1" parent="Me6KZ-e09-LLOQmQ4gK6-16">
          <mxGeometry width="582" height="530" as="geometry" />
        </mxCell>
        <mxCell id="Me6KZ-e09-LLOQmQ4gK6-13" value="WorkSpaces Family&lt;div&gt;&lt;span style=&quot;font-weight: normal;&quot;&gt;Virtual desktop services for every use case and&lt;/span&gt;&lt;/div&gt;&lt;div&gt;&lt;span style=&quot;font-weight: normal;&quot;&gt;every worker, anywhere in the world&lt;/span&gt;&lt;/div&gt;" style="sketch=0;points=[[0,0,0],[0.25,0,0],[0.5,0,0],[0.75,0,0],[1,0,0],[0,1,0],[0.25,1,0],[0.5,1,0],[0.75,1,0],[1,1,0],[0,0.25,0],[0,0.5,0],[0,0.75,0],[1,0.25,0],[1,0.5,0],[1,0.75,0]];outlineConnect=0;fontColor=#232F3E;fillColor=#01A88D;strokeColor=#ffffff;dashed=0;verticalLabelPosition=middle;verticalAlign=middle;align=left;html=1;fontSize=12;fontStyle=1;aspect=fixed;shape=mxgraph.aws4.resourceIcon;resIcon=mxgraph.aws4.workspaces;labelPosition=right;spacingLeft=15;" vertex="1" parent="Me6KZ-e09-LLOQmQ4gK6-16">
          <mxGeometry width="78" height="78" as="geometry" />
        </mxCell>
        <mxCell id="GQwtv-Ke6I7whFhwhaPg-307" value="" style="fillColor=none;strokeColor=light-dark(#5A6C86,#FF7CFF);dashed=1;verticalAlign=top;fontStyle=0;fontColor=#5A6C86;whiteSpace=wrap;html=1;strokeWidth=10;" parent="1" vertex="1">
          <mxGeometry x="580" y="-790" width="1590" height="720" as="geometry" />
        </mxCell>
        <mxCell id="GQwtv-Ke6I7whFhwhaPg-283" value="" style="fillColor=none;strokeColor=light-dark(#5A6C86,#FF7CFF);dashed=1;verticalAlign=top;fontStyle=0;fontColor=#5A6C86;whiteSpace=wrap;html=1;strokeWidth=8;" parent="1" vertex="1">
          <mxGeometry x="3073" y="-1220" width="347" height="310" as="geometry" />
        </mxCell>
        <mxCell id="GQwtv-Ke6I7whFhwhaPg-260" value="" style="fillColor=none;strokeColor=light-dark(#5A6C86,#FF7CFF);dashed=1;verticalAlign=top;fontStyle=0;fontColor=#5A6C86;whiteSpace=wrap;html=1;strokeWidth=10;" parent="1" vertex="1">
          <mxGeometry x="2314" y="-1260" width="1436" height="860" as="geometry" />
        </mxCell>
        <mxCell id="GQwtv-Ke6I7whFhwhaPg-202" value="" style="fillColor=none;strokeColor=light-dark(#5A6C86,#FF7CFF);dashed=1;verticalAlign=top;fontStyle=0;fontColor=#5A6C86;whiteSpace=wrap;html=1;strokeWidth=10;" parent="1" vertex="1">
          <mxGeometry x="90" y="80" width="1030" height="840" as="geometry" />
        </mxCell>
        <mxCell id="GQwtv-Ke6I7whFhwhaPg-200" value="" style="group" parent="1" vertex="1" connectable="0">
          <mxGeometry x="230" y="1940" width="1477" height="1300" as="geometry" />
        </mxCell>
        <mxCell id="GQwtv-Ke6I7whFhwhaPg-199" value="" style="fillColor=none;strokeColor=light-dark(#5A6C86,#D86D0C);dashed=1;verticalAlign=top;fontStyle=0;fontColor=#5A6C86;whiteSpace=wrap;html=1;strokeWidth=10;" parent="GQwtv-Ke6I7whFhwhaPg-200" vertex="1">
          <mxGeometry width="1477" height="1300" as="geometry" />
        </mxCell>
        <mxCell id="GQwtv-Ke6I7whFhwhaPg-140" value="Compute" style="sketch=0;points=[[0,0,0],[0.25,0,0],[0.5,0,0],[0.75,0,0],[1,0,0],[0,1,0],[0.25,1,0],[0.5,1,0],[0.75,1,0],[1,1,0],[0,0.25,0],[0,0.5,0],[0,0.75,0],[1,0.25,0],[1,0.5,0],[1,0.75,0]];outlineConnect=0;fontColor=#232F3E;fillColor=#ED7100;strokeColor=#ffffff;dashed=0;verticalLabelPosition=middle;verticalAlign=middle;align=left;html=1;fontSize=48;fontStyle=1;aspect=fixed;shape=mxgraph.aws4.resourceIcon;resIcon=mxgraph.aws4.compute;labelPosition=right;spacingLeft=15;" parent="GQwtv-Ke6I7whFhwhaPg-200" vertex="1">
          <mxGeometry width="78" height="78" as="geometry" />
        </mxCell>
        <mxCell id="GQwtv-Ke6I7whFhwhaPg-311" value="Local Zones&lt;div&gt;&lt;span style=&quot;font-weight: normal;&quot;&gt;Place selected AWS resources close to population&lt;/span&gt;&lt;/div&gt;&lt;div&gt;&lt;span style=&quot;font-weight: normal;&quot;&gt;and industry centres for reduced latency&lt;/span&gt;&lt;/div&gt;" style="sketch=0;points=[[0,0,0],[0.25,0,0],[0.5,0,0],[0.75,0,0],[1,0,0],[0,1,0],[0.25,1,0],[0.5,1,0],[0.75,1,0],[1,1,0],[0,0.25,0],[0,0.5,0],[0,0.75,0],[1,0.25,0],[1,0.5,0],[1,0.75,0]];outlineConnect=0;fontColor=#232F3E;fillColor=#ED7100;strokeColor=#ffffff;dashed=0;verticalLabelPosition=bottom;verticalAlign=top;align=center;html=1;fontSize=12;fontStyle=1;aspect=fixed;shape=mxgraph.aws4.resourceIcon;resIcon=mxgraph.aws4.local_zones;" parent="GQwtv-Ke6I7whFhwhaPg-200" vertex="1">
          <mxGeometry x="1210" y="310" width="78" height="78" as="geometry" />
        </mxCell>
        <mxCell id="GQwtv-Ke6I7whFhwhaPg-196" value="" style="group" parent="1" vertex="1" connectable="0">
          <mxGeometry x="270" y="2100" width="990" height="540" as="geometry" />
        </mxCell>
        <mxCell id="GQwtv-Ke6I7whFhwhaPg-195" value="" style="fillColor=none;strokeColor=light-dark(#5A6C86,#D86D0C);dashed=1;verticalAlign=top;fontStyle=0;fontColor=#5A6C86;whiteSpace=wrap;html=1;strokeWidth=8;" parent="GQwtv-Ke6I7whFhwhaPg-196" vertex="1">
          <mxGeometry width="990" height="540" as="geometry" />
        </mxCell>
        <mxCell id="GQwtv-Ke6I7whFhwhaPg-141" value="EC2&lt;div&gt;&lt;span style=&quot;font-weight: normal;&quot;&gt;Offers resizable compute capacity on-demand in the cloud and, you only&lt;/span&gt;&lt;/div&gt;&lt;div&gt;&lt;span style=&quot;font-weight: normal;&quot;&gt;pay for what you use at a reduced cost due to AWS&#39; economies of scale&amp;nbsp;&lt;/span&gt;&lt;/div&gt;" style="points=[[0,0,0],[0.25,0,0],[0.5,0,0],[0.75,0,0],[1,0,0],[0,1,0],[0.25,1,0],[0.5,1,0],[0.75,1,0],[1,1,0],[0,0.25,0],[0,0.5,0],[0,0.75,0],[1,0.25,0],[1,0.5,0],[1,0.75,0]];outlineConnect=0;fontColor=#232F3E;fillColor=#ED7100;strokeColor=#ffffff;dashed=0;verticalLabelPosition=middle;verticalAlign=middle;align=left;html=1;fontSize=12;fontStyle=1;aspect=fixed;shape=mxgraph.aws4.resourceIcon;resIcon=mxgraph.aws4.ec2;labelPosition=right;spacingLeft=15;" parent="GQwtv-Ke6I7whFhwhaPg-196" vertex="1">
          <mxGeometry width="78" height="78" as="geometry" />
        </mxCell>
        <mxCell id="GQwtv-Ke6I7whFhwhaPg-162" value="Dedicated Hosts&lt;div&gt;&lt;span style=&quot;font-weight: normal;&quot;&gt;Dedicated EC2 server for&lt;/span&gt;&lt;/div&gt;&lt;div&gt;&lt;span style=&quot;font-weight: normal;&quot;&gt;your exclusive use&lt;/span&gt;&lt;/div&gt;" style="points=[];aspect=fixed;html=1;align=center;shadow=0;dashed=0;fillColor=#FF6A00;strokeColor=none;shape=mxgraph.alibaba_cloud.ddh_dedicated_host;fontStyle=1;labelPosition=center;verticalLabelPosition=bottom;verticalAlign=top;fontColor=light-dark(#000000,#BDC7D4);" parent="GQwtv-Ke6I7whFhwhaPg-196" vertex="1">
          <mxGeometry x="362.6" y="260" width="47.400000000000006" height="47.400000000000006" as="geometry" />
        </mxCell>
        <mxCell id="GQwtv-Ke6I7whFhwhaPg-194" value="Instance Types" style="fillColor=none;strokeColor=#5A6C86;dashed=1;verticalAlign=top;fontStyle=1;fontColor=#5A6C86;whiteSpace=wrap;html=1;" parent="1" vertex="1">
          <mxGeometry x="770" y="2260" width="450" height="330" as="geometry" />
        </mxCell>
        <mxCell id="GQwtv-Ke6I7whFhwhaPg-139" value="" style="group" parent="1" vertex="1" connectable="0">
          <mxGeometry x="3480" y="1420" width="1182" height="700" as="geometry" />
        </mxCell>
        <mxCell id="GQwtv-Ke6I7whFhwhaPg-138" value="" style="fillColor=none;strokeColor=light-dark(#5A6C86,#61820B);dashed=1;verticalAlign=top;fontStyle=0;fontColor=#5A6C86;whiteSpace=wrap;html=1;strokeWidth=10;" parent="GQwtv-Ke6I7whFhwhaPg-139" vertex="1">
          <mxGeometry width="1182" height="700" as="geometry" />
        </mxCell>
        <mxCell id="GQwtv-Ke6I7whFhwhaPg-129" value="Cloud Financial Management" style="sketch=0;points=[[0,0,0],[0.25,0,0],[0.5,0,0],[0.75,0,0],[1,0,0],[0,1,0],[0.25,1,0],[0.5,1,0],[0.75,1,0],[1,1,0],[0,0.25,0],[0,0.5,0],[0,0.75,0],[1,0.25,0],[1,0.5,0],[1,0.75,0]];outlineConnect=0;fontColor=#232F3E;fillColor=#7AA116;strokeColor=#ffffff;dashed=0;verticalLabelPosition=middle;verticalAlign=middle;align=left;html=1;fontSize=48;fontStyle=1;aspect=fixed;shape=mxgraph.aws4.resourceIcon;resIcon=mxgraph.aws4.cost_management;labelPosition=right;spacingLeft=15;" parent="GQwtv-Ke6I7whFhwhaPg-139" vertex="1">
          <mxGeometry x="2" width="121" height="121" as="geometry" />
        </mxCell>
        <mxCell id="GQwtv-Ke6I7whFhwhaPg-108" value="" style="group" parent="1" vertex="1" connectable="0">
          <mxGeometry x="3180" y="2320" width="1280" height="880" as="geometry" />
        </mxCell>
        <mxCell id="GQwtv-Ke6I7whFhwhaPg-104" value="" style="group" parent="GQwtv-Ke6I7whFhwhaPg-108" vertex="1" connectable="0">
          <mxGeometry width="1280" height="880" as="geometry" />
        </mxCell>
        <mxCell id="GQwtv-Ke6I7whFhwhaPg-105" value="" style="fillColor=none;strokeColor=light-dark(#5A6C86,#FF7F93);dashed=1;verticalAlign=top;fontStyle=0;fontColor=#5A6C86;whiteSpace=wrap;html=1;strokeWidth=10;" parent="GQwtv-Ke6I7whFhwhaPg-104" vertex="1">
          <mxGeometry width="1280" height="880.0000000000001" as="geometry" />
        </mxCell>
        <mxCell id="GQwtv-Ke6I7whFhwhaPg-107" value="Business Applications" style="sketch=0;points=[[0,0,0],[0.25,0,0],[0.5,0,0],[0.75,0,0],[1,0,0],[0,1,0],[0.25,1,0],[0.5,1,0],[0.75,1,0],[1,1,0],[0,0.25,0],[0,0.5,0],[0,0.75,0],[1,0.25,0],[1,0.5,0],[1,0.75,0]];outlineConnect=0;fontColor=#232F3E;fillColor=#DD344C;strokeColor=#ffffff;dashed=0;verticalLabelPosition=middle;verticalAlign=middle;align=left;html=1;fontSize=48;fontStyle=1;aspect=fixed;shape=mxgraph.aws4.resourceIcon;resIcon=mxgraph.aws4.business_application;labelPosition=right;spacingLeft=15;" parent="GQwtv-Ke6I7whFhwhaPg-108" vertex="1">
          <mxGeometry width="120" height="120" as="geometry" />
        </mxCell>
        <mxCell id="GQwtv-Ke6I7whFhwhaPg-91" value="" style="group;fontStyle=1;strokeColor=none;" parent="1" vertex="1" connectable="0">
          <mxGeometry x="1240" y="430" width="1780" height="1270" as="geometry" />
        </mxCell>
        <mxCell id="GQwtv-Ke6I7whFhwhaPg-89" value="" style="fillColor=none;strokeColor=light-dark(#5A6C86,#B17DFF);dashed=1;verticalAlign=top;fontStyle=0;fontColor=#5A6C86;whiteSpace=wrap;html=1;strokeWidth=10;" parent="GQwtv-Ke6I7whFhwhaPg-91" vertex="1">
          <mxGeometry width="1780" height="1270" as="geometry" />
        </mxCell>
        <mxCell id="GQwtv-Ke6I7whFhwhaPg-1" value="Analytics" style="sketch=0;points=[[0,0,0],[0.25,0,0],[0.5,0,0],[0.75,0,0],[1,0,0],[0,1,0],[0.25,1,0],[0.5,1,0],[0.75,1,0],[1,1,0],[0,0.25,0],[0,0.5,0],[0,0.75,0],[1,0.25,0],[1,0.5,0],[1,0.75,0]];outlineConnect=0;fontColor=#232F3E;fillColor=#8C4FFF;strokeColor=#ffffff;dashed=0;verticalLabelPosition=middle;verticalAlign=middle;align=left;html=1;fontSize=48;fontStyle=1;aspect=fixed;shape=mxgraph.aws4.resourceIcon;resIcon=mxgraph.aws4.analytics;spacingLeft=15;labelPosition=right;" parent="GQwtv-Ke6I7whFhwhaPg-91" vertex="1">
          <mxGeometry width="120" height="120" as="geometry" />
        </mxCell>
        <mxCell id="GQwtv-Ke6I7whFhwhaPg-4" value="&lt;b&gt;CloudSearch&lt;/b&gt;&lt;div&gt;Search service for highlighting, auto-&lt;/div&gt;&lt;div&gt;complete and geospatial search&lt;/div&gt;" style="sketch=0;points=[[0,0,0],[0.25,0,0],[0.5,0,0],[0.75,0,0],[1,0,0],[0,1,0],[0.25,1,0],[0.5,1,0],[0.75,1,0],[1,1,0],[0,0.25,0],[0,0.5,0],[0,0.75,0],[1,0.25,0],[1,0.5,0],[1,0.75,0]];outlineConnect=0;fontColor=#232F3E;fillColor=#8C4FFF;strokeColor=#ffffff;dashed=0;verticalLabelPosition=bottom;verticalAlign=top;align=center;html=1;fontSize=12;fontStyle=0;aspect=fixed;shape=mxgraph.aws4.resourceIcon;resIcon=mxgraph.aws4.cloudsearch2;" parent="GQwtv-Ke6I7whFhwhaPg-91" vertex="1">
          <mxGeometry x="150" y="170" width="78" height="78" as="geometry" />
        </mxCell>
        <mxCell id="GQwtv-Ke6I7whFhwhaPg-6" value="&lt;b&gt;FinSpace&lt;/b&gt;&lt;div&gt;Purpose-built financial services&lt;/div&gt;&lt;div&gt;industry (FSI) data management&lt;/div&gt;&lt;div&gt;and analytics service&lt;/div&gt;" style="sketch=0;points=[[0,0,0],[0.25,0,0],[0.5,0,0],[0.75,0,0],[1,0,0],[0,1,0],[0.25,1,0],[0.5,1,0],[0.75,1,0],[1,1,0],[0,0.25,0],[0,0.5,0],[0,0.75,0],[1,0.25,0],[1,0.5,0],[1,0.75,0]];outlineConnect=0;fontColor=#232F3E;fillColor=#8C4FFF;strokeColor=#ffffff;dashed=0;verticalLabelPosition=bottom;verticalAlign=top;align=center;html=1;fontSize=12;fontStyle=0;aspect=fixed;shape=mxgraph.aws4.resourceIcon;resIcon=mxgraph.aws4.finspace;" parent="GQwtv-Ke6I7whFhwhaPg-91" vertex="1">
          <mxGeometry x="350" y="170" width="78" height="78" as="geometry" />
        </mxCell>
        <mxCell id="GQwtv-Ke6I7whFhwhaPg-53" value="&lt;b&gt;QuickSight&lt;/b&gt;&lt;div&gt;BI service to create and&amp;nbsp;&lt;/div&gt;&lt;div&gt;publish interactive&amp;nbsp;&lt;span style=&quot;background-color: transparent; color: light-dark(rgb(35, 47, 62), rgb(189, 199, 212));&quot;&gt;dashboards&lt;/span&gt;&lt;/div&gt;" style="sketch=0;points=[[0,0,0],[0.25,0,0],[0.5,0,0],[0.75,0,0],[1,0,0],[0,1,0],[0.25,1,0],[0.5,1,0],[0.75,1,0],[1,1,0],[0,0.25,0],[0,0.5,0],[0,0.75,0],[1,0.25,0],[1,0.5,0],[1,0.75,0]];outlineConnect=0;fontColor=#232F3E;fillColor=#8C4FFF;strokeColor=#ffffff;dashed=0;verticalLabelPosition=bottom;verticalAlign=top;align=center;html=1;fontSize=12;fontStyle=0;aspect=fixed;shape=mxgraph.aws4.resourceIcon;resIcon=mxgraph.aws4.quicksight;" parent="GQwtv-Ke6I7whFhwhaPg-91" vertex="1">
          <mxGeometry x="570" y="190" width="78" height="78" as="geometry" />
        </mxCell>
        <mxCell id="GQwtv-Ke6I7whFhwhaPg-68" value="&lt;b&gt;Managed Streaming for Kafka (MSK)&lt;/b&gt;&lt;div&gt;AWS-managed wrapper for Apache Kafka that&#39;s used&lt;/div&gt;&lt;div&gt;to build real-time streaming data pipelines&amp;nbsp;&lt;/div&gt;" style="sketch=0;points=[[0,0,0],[0.25,0,0],[0.5,0,0],[0.75,0,0],[1,0,0],[0,1,0],[0.25,1,0],[0.5,1,0],[0.75,1,0],[1,1,0],[0,0.25,0],[0,0.5,0],[0,0.75,0],[1,0.25,0],[1,0.5,0],[1,0.75,0]];outlineConnect=0;fontColor=#232F3E;fillColor=#8C4FFF;strokeColor=#ffffff;dashed=0;verticalLabelPosition=bottom;verticalAlign=top;align=center;html=1;fontSize=12;fontStyle=0;aspect=fixed;shape=mxgraph.aws4.resourceIcon;resIcon=mxgraph.aws4.managed_streaming_for_kafka;" parent="GQwtv-Ke6I7whFhwhaPg-91" vertex="1">
          <mxGeometry x="150" y="370" width="78" height="78" as="geometry" />
        </mxCell>
        <mxCell id="GQwtv-Ke6I7whFhwhaPg-67" value="&lt;b&gt;Entity Resolution&lt;/b&gt;&lt;div&gt;Match, link and dedupe related records across different applications,&lt;/div&gt;&lt;div&gt;channels and data stores with the help of ML and rules in order to&lt;/div&gt;&lt;div&gt;create a clean, unified view&lt;/div&gt;" style="sketch=0;points=[[0,0,0],[0.25,0,0],[0.5,0,0],[0.75,0,0],[1,0,0],[0,1,0],[0.25,1,0],[0.5,1,0],[0.75,1,0],[1,1,0],[0,0.25,0],[0,0.5,0],[0,0.75,0],[1,0.25,0],[1,0.5,0],[1,0.75,0]];outlineConnect=0;fontColor=#232F3E;fillColor=#8C4FFF;strokeColor=#ffffff;dashed=0;verticalLabelPosition=bottom;verticalAlign=top;align=center;html=1;fontSize=12;fontStyle=0;aspect=fixed;shape=mxgraph.aws4.resourceIcon;resIcon=mxgraph.aws4.entity_resolution;" parent="GQwtv-Ke6I7whFhwhaPg-91" vertex="1">
          <mxGeometry x="500" y="360" width="78" height="78" as="geometry" />
        </mxCell>
        <mxCell id="GQwtv-Ke6I7whFhwhaPg-5" value="&lt;b&gt;Elastic MapReduce&amp;nbsp;&lt;span style=&quot;background-color: transparent; color: light-dark(rgb(35, 47, 62), rgb(189, 199, 212));&quot;&gt;(EMR)&lt;/span&gt;&lt;/b&gt;&lt;div&gt;&lt;span style=&quot;background-color: transparent; color: light-dark(rgb(35, 47, 62), rgb(189, 199, 212));&quot;&gt;Big data platform uses Presto and Apache&lt;/span&gt;&lt;/div&gt;&lt;div&gt;&lt;span style=&quot;background-color: transparent; color: light-dark(rgb(35, 47, 62), rgb(189, 199, 212));&quot;&gt;Spark, Hive, HBase, Flink and Hudi&lt;/span&gt;&lt;/div&gt;" style="sketch=0;points=[[0,0,0],[0.25,0,0],[0.5,0,0],[0.75,0,0],[1,0,0],[0,1,0],[0.25,1,0],[0.5,1,0],[0.75,1,0],[1,1,0],[0,0.25,0],[0,0.5,0],[0,0.75,0],[1,0.25,0],[1,0.5,0],[1,0.75,0]];outlineConnect=0;fontColor=#232F3E;fillColor=#8C4FFF;strokeColor=#ffffff;dashed=0;verticalLabelPosition=bottom;verticalAlign=top;align=center;html=1;fontSize=12;fontStyle=0;aspect=fixed;shape=mxgraph.aws4.resourceIcon;resIcon=mxgraph.aws4.emr;" parent="GQwtv-Ke6I7whFhwhaPg-91" vertex="1">
          <mxGeometry x="790" y="190" width="78" height="78" as="geometry" />
        </mxCell>
        <mxCell id="GQwtv-Ke6I7whFhwhaPg-94" value="" style="group" parent="1" vertex="1" connectable="0">
          <mxGeometry x="1760" y="2320" width="1280" height="880" as="geometry" />
        </mxCell>
        <mxCell id="GQwtv-Ke6I7whFhwhaPg-93" value="" style="fillColor=none;strokeColor=light-dark(#5A6C86,#FF81D9);dashed=1;verticalAlign=top;fontStyle=0;fontColor=#5A6C86;whiteSpace=wrap;html=1;strokeWidth=10;" parent="GQwtv-Ke6I7whFhwhaPg-94" vertex="1">
          <mxGeometry width="1280" height="880.0000000000001" as="geometry" />
        </mxCell>
        <mxCell id="GQwtv-Ke6I7whFhwhaPg-92" value="App Integration" style="sketch=0;points=[[0,0,0],[0.25,0,0],[0.5,0,0],[0.75,0,0],[1,0,0],[0,1,0],[0.25,1,0],[0.5,1,0],[0.75,1,0],[1,1,0],[0,0.25,0],[0,0.5,0],[0,0.75,0],[1,0.25,0],[1,0.5,0],[1,0.75,0]];outlineConnect=0;fontColor=#232F3E;fillColor=#E7157B;strokeColor=#ffffff;dashed=0;verticalLabelPosition=middle;verticalAlign=middle;align=left;html=1;fontSize=48;fontStyle=1;aspect=fixed;shape=mxgraph.aws4.resourceIcon;resIcon=mxgraph.aws4.application_integration;labelPosition=right;spacingLeft=15;" parent="GQwtv-Ke6I7whFhwhaPg-94" vertex="1">
          <mxGeometry width="149.887754070179" height="149.887754070179" as="geometry" />
        </mxCell>
        <mxCell id="GQwtv-Ke6I7whFhwhaPg-13" value="Query data directly from S3&lt;div&gt;using standard SQL&lt;/div&gt;" style="edgeStyle=none;curved=1;rounded=0;orthogonalLoop=1;jettySize=auto;html=1;fontSize=12;startSize=8;endSize=8;" parent="1" source="GQwtv-Ke6I7whFhwhaPg-2" target="GQwtv-Ke6I7whFhwhaPg-12" edge="1">
          <mxGeometry x="0.0032" relative="1" as="geometry">
            <mxPoint as="offset" />
          </mxGeometry>
        </mxCell>
        <mxCell id="GQwtv-Ke6I7whFhwhaPg-16" value="Integrated schemas" style="edgeStyle=none;curved=1;rounded=0;orthogonalLoop=1;jettySize=auto;html=1;fontSize=12;startSize=8;endSize=8;" parent="1" source="GQwtv-Ke6I7whFhwhaPg-2" target="GQwtv-Ke6I7whFhwhaPg-15" edge="1">
          <mxGeometry relative="1" as="geometry" />
        </mxCell>
        <mxCell id="GQwtv-Ke6I7whFhwhaPg-2" value="&lt;b&gt;Athena&lt;/b&gt;&lt;div&gt;Interactive query service for&lt;/div&gt;&lt;div&gt;analysing data in S3 using SQL&lt;/div&gt;" style="sketch=0;points=[[0,0,0],[0.25,0,0],[0.5,0,0],[0.75,0,0],[1,0,0],[0,1,0],[0.25,1,0],[0.5,1,0],[0.75,1,0],[1,1,0],[0,0.25,0],[0,0.5,0],[0,0.75,0],[1,0.25,0],[1,0.5,0],[1,0.75,0]];outlineConnect=0;fontColor=#232F3E;fillColor=#8C4FFF;strokeColor=#ffffff;dashed=0;verticalLabelPosition=bottom;verticalAlign=top;align=center;html=1;fontSize=12;fontStyle=0;aspect=fixed;shape=mxgraph.aws4.resourceIcon;resIcon=mxgraph.aws4.athena;" parent="1" vertex="1">
          <mxGeometry x="2550" y="1080" width="78" height="78" as="geometry" />
        </mxCell>
        <mxCell id="GQwtv-Ke6I7whFhwhaPg-20" value="DataZone is now part of yet,&lt;div&gt;independent from SageMaker AI&lt;/div&gt;" style="edgeStyle=none;curved=1;rounded=0;orthogonalLoop=1;jettySize=auto;html=1;fontSize=12;startSize=8;endSize=8;" parent="1" source="GQwtv-Ke6I7whFhwhaPg-3" target="GQwtv-Ke6I7whFhwhaPg-19" edge="1">
          <mxGeometry relative="1" as="geometry" />
        </mxCell>
        <mxCell id="GQwtv-Ke6I7whFhwhaPg-22" value="Load streaming data into S3" style="edgeStyle=none;curved=1;rounded=0;orthogonalLoop=1;jettySize=auto;html=1;fontSize=12;startSize=8;endSize=8;" parent="1" source="GQwtv-Ke6I7whFhwhaPg-8" target="GQwtv-Ke6I7whFhwhaPg-12" edge="1">
          <mxGeometry relative="1" as="geometry" />
        </mxCell>
        <mxCell id="GQwtv-Ke6I7whFhwhaPg-24" value="Load streaming data into Redshift" style="edgeStyle=none;curved=1;rounded=0;orthogonalLoop=1;jettySize=auto;html=1;fontSize=12;startSize=8;endSize=8;" parent="1" source="GQwtv-Ke6I7whFhwhaPg-8" target="GQwtv-Ke6I7whFhwhaPg-23" edge="1">
          <mxGeometry relative="1" as="geometry" />
        </mxCell>
        <mxCell id="GQwtv-Ke6I7whFhwhaPg-27" value="Load streaming data into OpenSearch" style="edgeStyle=none;curved=1;rounded=0;orthogonalLoop=1;jettySize=auto;html=1;fontSize=12;startSize=8;endSize=8;" parent="1" source="GQwtv-Ke6I7whFhwhaPg-8" target="GQwtv-Ke6I7whFhwhaPg-28" edge="1">
          <mxGeometry relative="1" as="geometry">
            <mxPoint x="1400" y="680" as="targetPoint" />
          </mxGeometry>
        </mxCell>
        <mxCell id="GQwtv-Ke6I7whFhwhaPg-12" value="Simple Storage Service&lt;div&gt;(S3)&lt;/div&gt;" style="sketch=0;points=[[0,0,0],[0.25,0,0],[0.5,0,0],[0.75,0,0],[1,0,0],[0,1,0],[0.25,1,0],[0.5,1,0],[0.75,1,0],[1,1,0],[0,0.25,0],[0,0.5,0],[0,0.75,0],[1,0.25,0],[1,0.5,0],[1,0.75,0]];outlineConnect=0;fontColor=#232F3E;fillColor=#7AA116;strokeColor=#ffffff;dashed=0;verticalLabelPosition=bottom;verticalAlign=top;align=center;html=1;fontSize=12;fontStyle=0;aspect=fixed;shape=mxgraph.aws4.resourceIcon;resIcon=mxgraph.aws4.s3;" parent="1" vertex="1">
          <mxGeometry x="2910" y="1900" width="78" height="78" as="geometry" />
        </mxCell>
        <mxCell id="GQwtv-Ke6I7whFhwhaPg-61" value="Read from and transform; OR&lt;div&gt;transform and write to&lt;/div&gt;" style="edgeStyle=none;curved=1;rounded=0;orthogonalLoop=1;jettySize=auto;html=1;fontSize=12;startSize=8;endSize=8;" parent="1" source="GQwtv-Ke6I7whFhwhaPg-14" target="GQwtv-Ke6I7whFhwhaPg-5" edge="1">
          <mxGeometry relative="1" as="geometry" />
        </mxCell>
        <mxCell id="GQwtv-Ke6I7whFhwhaPg-62" value="Read from and transform; OR&lt;div&gt;transform and write to&lt;/div&gt;" style="edgeStyle=none;curved=1;rounded=0;orthogonalLoop=1;jettySize=auto;html=1;fontSize=12;startSize=8;endSize=8;" parent="1" source="GQwtv-Ke6I7whFhwhaPg-15" target="GQwtv-Ke6I7whFhwhaPg-12" edge="1">
          <mxGeometry relative="1" as="geometry" />
        </mxCell>
        <mxCell id="GQwtv-Ke6I7whFhwhaPg-63" value="Read from and transform; OR&lt;div&gt;transform and write to&lt;/div&gt;" style="edgeStyle=none;curved=1;rounded=0;orthogonalLoop=1;jettySize=auto;html=1;fontSize=12;startSize=8;endSize=8;" parent="1" source="GQwtv-Ke6I7whFhwhaPg-14" target="GQwtv-Ke6I7whFhwhaPg-60" edge="1">
          <mxGeometry relative="1" as="geometry" />
        </mxCell>
        <mxCell id="GQwtv-Ke6I7whFhwhaPg-64" value="Read from and transform; OR&lt;div&gt;transform and write to&lt;/div&gt;" style="edgeStyle=none;curved=1;rounded=0;orthogonalLoop=1;jettySize=auto;html=1;fontSize=12;startSize=8;endSize=8;" parent="1" source="GQwtv-Ke6I7whFhwhaPg-14" target="GQwtv-Ke6I7whFhwhaPg-59" edge="1">
          <mxGeometry relative="1" as="geometry" />
        </mxCell>
        <mxCell id="GQwtv-Ke6I7whFhwhaPg-14" value="&lt;b&gt;Glue&lt;/b&gt;&lt;div&gt;Transform and move data between different&lt;/div&gt;&lt;div&gt;AWS services such as S3, RDS, DynamoDB and EMR&lt;/div&gt;" style="sketch=0;points=[[0,0,0],[0.25,0,0],[0.5,0,0],[0.75,0,0],[1,0,0],[0,1,0],[0.25,1,0],[0.5,1,0],[0.75,1,0],[1,1,0],[0,0.25,0],[0,0.5,0],[0,0.75,0],[1,0.25,0],[1,0.5,0],[1,0.75,0]];outlineConnect=0;fontColor=#232F3E;fillColor=#8C4FFF;strokeColor=#ffffff;dashed=0;verticalLabelPosition=bottom;verticalAlign=top;align=center;html=1;fontSize=12;fontStyle=0;aspect=fixed;shape=mxgraph.aws4.resourceIcon;resIcon=mxgraph.aws4.glue;" parent="1" vertex="1">
          <mxGeometry x="2224" y="840" width="78" height="78" as="geometry" />
        </mxCell>
        <mxCell id="GQwtv-Ke6I7whFhwhaPg-21" value="Determines and stores schema&lt;div&gt;info&amp;nbsp;&lt;span style=&quot;background-color: light-dark(#ffffff, var(--ge-dark-color, #121212)); color: light-dark(rgb(0, 0, 0), rgb(255, 255, 255));&quot;&gt;of objects stored in S3&lt;/span&gt;&lt;/div&gt;" style="edgeStyle=none;curved=1;rounded=0;orthogonalLoop=1;jettySize=auto;html=1;fontSize=12;startSize=8;endSize=8;" parent="1" source="GQwtv-Ke6I7whFhwhaPg-15" target="GQwtv-Ke6I7whFhwhaPg-12" edge="1">
          <mxGeometry relative="1" as="geometry" />
        </mxCell>
        <mxCell id="GQwtv-Ke6I7whFhwhaPg-19" value="SageMaker AI" style="sketch=0;points=[[0,0,0],[0.25,0,0],[0.5,0,0],[0.75,0,0],[1,0,0],[0,1,0],[0.25,1,0],[0.5,1,0],[0.75,1,0],[1,1,0],[0,0.25,0],[0,0.5,0],[0,0.75,0],[1,0.25,0],[1,0.5,0],[1,0.75,0]];outlineConnect=0;fontColor=#232F3E;fillColor=#01A88D;strokeColor=#ffffff;dashed=0;verticalLabelPosition=bottom;verticalAlign=top;align=center;html=1;fontSize=12;fontStyle=0;aspect=fixed;shape=mxgraph.aws4.resourceIcon;resIcon=mxgraph.aws4.sagemaker;" parent="1" vertex="1">
          <mxGeometry x="480" y="1619" width="78" height="78" as="geometry" />
        </mxCell>
        <mxCell id="GQwtv-Ke6I7whFhwhaPg-30" value="" style="group" parent="1" vertex="1" connectable="0">
          <mxGeometry x="1868" y="1520" width="80" height="80" as="geometry" />
        </mxCell>
        <mxCell id="GQwtv-Ke6I7whFhwhaPg-28" value="&lt;b&gt;OpenSearch Service (optionally Serverless)&lt;/b&gt;&lt;div&gt;AWS-managed OpenSearch wrapper for analytics, full-text search, application monitoring, etc.&lt;/div&gt;" style="rounded=0;whiteSpace=wrap;html=1;fillColor=light-dark(#FFFFFF,#B17DFF);strokeColor=none;labelPosition=center;verticalLabelPosition=bottom;align=center;verticalAlign=top;fontColor=light-dark(#000000,#BDC7D4);labelBorderColor=none;textShadow=0;spacingTop=0;spacing=2;spacingLeft=-100;spacingRight=-100;" parent="GQwtv-Ke6I7whFhwhaPg-30" vertex="1">
          <mxGeometry width="80" height="80" as="geometry" />
        </mxCell>
        <mxCell id="GQwtv-Ke6I7whFhwhaPg-26" value="" style="points=[];aspect=fixed;html=1;align=center;shadow=0;dashed=0;fillColor=light-dark(#FF6A00,#000000);strokeColor=none;shape=mxgraph.alibaba_cloud.opensearch;verticalAlign=top;labelPosition=center;verticalLabelPosition=bottom;fontColor=light-dark(#000000,#BDC7D4);" parent="GQwtv-Ke6I7whFhwhaPg-30" vertex="1">
          <mxGeometry x="6.829999999999927" y="7" width="66.33" height="66" as="geometry" />
        </mxCell>
        <mxCell id="GQwtv-Ke6I7whFhwhaPg-48" value="" style="sketch=0;points=[[0,0,0],[0.25,0,0],[0.5,0,0],[0.75,0,0],[1,0,0],[0,1,0],[0.25,1,0],[0.5,1,0],[0.75,1,0],[1,1,0],[0,0.25,0],[0,0.5,0],[0,0.75,0],[1,0.25,0],[1,0.5,0],[1,0.75,0]];outlineConnect=0;fontColor=#232F3E;fillColor=#8C4FFF;strokeColor=#ffffff;dashed=0;verticalLabelPosition=bottom;verticalAlign=top;align=center;html=1;fontSize=12;fontStyle=0;aspect=fixed;shape=mxgraph.aws4.resourceIcon;resIcon=mxgraph.aws4.serverless;" parent="GQwtv-Ke6I7whFhwhaPg-30" vertex="1">
          <mxGeometry x="52" width="28" height="28" as="geometry" />
        </mxCell>
        <mxCell id="GQwtv-Ke6I7whFhwhaPg-33" value="Key Management Service (KMS)" style="sketch=0;points=[[0,0,0],[0.25,0,0],[0.5,0,0],[0.75,0,0],[1,0,0],[0,1,0],[0.25,1,0],[0.5,1,0],[0.75,1,0],[1,1,0],[0,0.25,0],[0,0.5,0],[0,0.75,0],[1,0.25,0],[1,0.5,0],[1,0.75,0]];outlineConnect=0;fontColor=#232F3E;fillColor=#DD344C;strokeColor=#ffffff;dashed=0;verticalLabelPosition=bottom;verticalAlign=top;align=center;html=1;fontSize=12;fontStyle=0;aspect=fixed;shape=mxgraph.aws4.resourceIcon;resIcon=mxgraph.aws4.key_management_service;" parent="1" vertex="1">
          <mxGeometry x="1810" y="1900" width="78" height="78" as="geometry" />
        </mxCell>
        <mxCell id="GQwtv-Ke6I7whFhwhaPg-34" value="Integrates with KMS" style="edgeStyle=none;curved=1;rounded=0;orthogonalLoop=1;jettySize=auto;html=1;fontSize=12;startSize=8;endSize=8;" parent="1" source="GQwtv-Ke6I7whFhwhaPg-28" target="GQwtv-Ke6I7whFhwhaPg-33" edge="1">
          <mxGeometry relative="1" as="geometry" />
        </mxCell>
        <mxCell id="GQwtv-Ke6I7whFhwhaPg-36" style="edgeStyle=none;curved=1;rounded=0;orthogonalLoop=1;jettySize=auto;html=1;fontSize=12;startSize=8;endSize=8;" parent="1" source="GQwtv-Ke6I7whFhwhaPg-28" target="GQwtv-Ke6I7whFhwhaPg-35" edge="1">
          <mxGeometry relative="1" as="geometry" />
        </mxCell>
        <mxCell id="GQwtv-Ke6I7whFhwhaPg-37" value="Identity and Access Management (IAM)" style="sketch=0;points=[[0,0,0],[0.25,0,0],[0.5,0,0],[0.75,0,0],[1,0,0],[0,1,0],[0.25,1,0],[0.5,1,0],[0.75,1,0],[1,1,0],[0,0.25,0],[0,0.5,0],[0,0.75,0],[1,0.25,0],[1,0.5,0],[1,0.75,0]];outlineConnect=0;fontColor=#232F3E;fillColor=#DD344C;strokeColor=#ffffff;dashed=0;verticalLabelPosition=bottom;verticalAlign=top;align=center;html=1;fontSize=12;fontStyle=0;aspect=fixed;shape=mxgraph.aws4.resourceIcon;resIcon=mxgraph.aws4.identity_and_access_management;" parent="1" vertex="1">
          <mxGeometry x="1843" y="2020" width="78" height="78" as="geometry" />
        </mxCell>
        <mxCell id="GQwtv-Ke6I7whFhwhaPg-38" value="Integrates with IAM" style="edgeStyle=none;curved=1;rounded=0;orthogonalLoop=1;jettySize=auto;html=1;fontSize=12;startSize=8;endSize=8;" parent="1" source="GQwtv-Ke6I7whFhwhaPg-28" target="GQwtv-Ke6I7whFhwhaPg-37" edge="1">
          <mxGeometry relative="1" as="geometry" />
        </mxCell>
        <mxCell id="GQwtv-Ke6I7whFhwhaPg-39" value="Cognito" style="sketch=0;points=[[0,0,0],[0.25,0,0],[0.5,0,0],[0.75,0,0],[1,0,0],[0,1,0],[0.25,1,0],[0.5,1,0],[0.75,1,0],[1,1,0],[0,0.25,0],[0,0.5,0],[0,0.75,0],[1,0.25,0],[1,0.5,0],[1,0.75,0]];outlineConnect=0;fontColor=#232F3E;fillColor=#DD344C;strokeColor=#ffffff;dashed=0;verticalLabelPosition=bottom;verticalAlign=top;align=center;html=1;fontSize=12;fontStyle=0;aspect=fixed;shape=mxgraph.aws4.resourceIcon;resIcon=mxgraph.aws4.cognito;" parent="1" vertex="1">
          <mxGeometry x="1953" y="1970" width="78" height="78" as="geometry" />
        </mxCell>
        <mxCell id="GQwtv-Ke6I7whFhwhaPg-40" value="Integrates with Cognito" style="edgeStyle=none;curved=1;rounded=0;orthogonalLoop=1;jettySize=auto;html=1;fontSize=12;startSize=8;endSize=8;" parent="1" source="GQwtv-Ke6I7whFhwhaPg-28" target="GQwtv-Ke6I7whFhwhaPg-39" edge="1">
          <mxGeometry relative="1" as="geometry" />
        </mxCell>
        <mxCell id="GQwtv-Ke6I7whFhwhaPg-41" value="CloudWatch" style="sketch=0;points=[[0,0,0],[0.25,0,0],[0.5,0,0],[0.75,0,0],[1,0,0],[0,1,0],[0.25,1,0],[0.5,1,0],[0.75,1,0],[1,1,0],[0,0.25,0],[0,0.5,0],[0,0.75,0],[1,0.25,0],[1,0.5,0],[1,0.75,0]];points=[[0,0,0],[0.25,0,0],[0.5,0,0],[0.75,0,0],[1,0,0],[0,1,0],[0.25,1,0],[0.5,1,0],[0.75,1,0],[1,1,0],[0,0.25,0],[0,0.5,0],[0,0.75,0],[1,0.25,0],[1,0.5,0],[1,0.75,0]];outlineConnect=0;fontColor=#232F3E;fillColor=#E7157B;strokeColor=#ffffff;dashed=0;verticalLabelPosition=bottom;verticalAlign=top;align=center;html=1;fontSize=12;fontStyle=0;aspect=fixed;shape=mxgraph.aws4.resourceIcon;resIcon=mxgraph.aws4.cloudwatch_2;" parent="1" vertex="1">
          <mxGeometry x="426" y="1328" width="78" height="78" as="geometry" />
        </mxCell>
        <mxCell id="GQwtv-Ke6I7whFhwhaPg-42" value="Integrates with CloudWatch" style="edgeStyle=none;curved=1;rounded=0;orthogonalLoop=1;jettySize=auto;html=1;fontSize=12;startSize=8;endSize=8;" parent="1" source="GQwtv-Ke6I7whFhwhaPg-28" target="GQwtv-Ke6I7whFhwhaPg-41" edge="1">
          <mxGeometry relative="1" as="geometry" />
        </mxCell>
        <mxCell id="GQwtv-Ke6I7whFhwhaPg-47" value="" style="group;fontStyle=0" parent="1" vertex="1" connectable="0">
          <mxGeometry x="421" y="3044" width="78" height="78" as="geometry" />
        </mxCell>
        <mxCell id="GQwtv-Ke6I7whFhwhaPg-35" value="Lambda&lt;div&gt;&lt;span style=&quot;font-weight: normal;&quot;&gt;Allows you to deploy and run code in serverless mode and&lt;/span&gt;&lt;/div&gt;&lt;div&gt;&lt;span style=&quot;font-weight: normal;&quot;&gt;charges for compute time used to the nearest millisecond&lt;/span&gt;&lt;/div&gt;" style="sketch=0;points=[[0,0,0],[0.25,0,0],[0.5,0,0],[0.75,0,0],[1,0,0],[0,1,0],[0.25,1,0],[0.5,1,0],[0.75,1,0],[1,1,0],[0,0.25,0],[0,0.5,0],[0,0.75,0],[1,0.25,0],[1,0.5,0],[1,0.75,0]];outlineConnect=0;fontColor=#232F3E;fillColor=#ED7100;strokeColor=#ffffff;dashed=0;verticalLabelPosition=bottom;verticalAlign=top;align=center;html=1;fontSize=12;fontStyle=1;aspect=fixed;shape=mxgraph.aws4.resourceIcon;resIcon=mxgraph.aws4.lambda;" parent="GQwtv-Ke6I7whFhwhaPg-47" vertex="1">
          <mxGeometry width="78" height="78" as="geometry" />
        </mxCell>
        <mxCell id="GQwtv-Ke6I7whFhwhaPg-43" value="" style="sketch=0;points=[[0,0,0],[0.25,0,0],[0.5,0,0],[0.75,0,0],[1,0,0],[0,1,0],[0.25,1,0],[0.5,1,0],[0.75,1,0],[1,1,0],[0,0.25,0],[0,0.5,0],[0,0.75,0],[1,0.25,0],[1,0.5,0],[1,0.75,0]];outlineConnect=0;fontColor=#232F3E;fillColor=#8C4FFF;strokeColor=#ffffff;dashed=0;verticalLabelPosition=bottom;verticalAlign=top;align=center;html=1;fontSize=12;fontStyle=0;aspect=fixed;shape=mxgraph.aws4.resourceIcon;resIcon=mxgraph.aws4.serverless;" parent="GQwtv-Ke6I7whFhwhaPg-47" vertex="1">
          <mxGeometry x="50" width="28" height="28" as="geometry" />
        </mxCell>
        <mxCell id="GQwtv-Ke6I7whFhwhaPg-49" value="" style="sketch=0;points=[[0,0,0],[0.25,0,0],[0.5,0,0],[0.75,0,0],[1,0,0],[0,1,0],[0.25,1,0],[0.5,1,0],[0.75,1,0],[1,1,0],[0,0.25,0],[0,0.5,0],[0,0.75,0],[1,0.25,0],[1,0.5,0],[1,0.75,0]];outlineConnect=0;fontColor=#232F3E;fillColor=#8C4FFF;strokeColor=#ffffff;dashed=0;verticalLabelPosition=bottom;verticalAlign=top;align=center;html=1;fontSize=12;fontStyle=0;aspect=fixed;shape=mxgraph.aws4.resourceIcon;resIcon=mxgraph.aws4.serverless;" parent="1" vertex="1">
          <mxGeometry x="1880" y="190" width="28" height="28" as="geometry" />
        </mxCell>
        <mxCell id="GQwtv-Ke6I7whFhwhaPg-54" value="" style="group" parent="1" vertex="1" connectable="0">
          <mxGeometry x="3554" y="-702" width="78" height="78" as="geometry" />
        </mxCell>
        <mxCell id="GQwtv-Ke6I7whFhwhaPg-23" value="&lt;b&gt;Redshift (optionally Serverless)&lt;/b&gt;&lt;div&gt;Data warehouse with columnar&lt;/div&gt;&lt;div&gt;storage&amp;nbsp;&lt;span style=&quot;background-color: transparent; color: light-dark(rgb(35, 47, 62), rgb(189, 199, 212));&quot;&gt;using SQL to query and&lt;/span&gt;&lt;/div&gt;&lt;div&gt;&lt;span style=&quot;background-color: transparent; color: light-dark(rgb(35, 47, 62), rgb(189, 199, 212));&quot;&gt;supports&amp;nbsp;&lt;/span&gt;&lt;span style=&quot;background-color: transparent; color: light-dark(rgb(35, 47, 62), rgb(189, 199, 212));&quot;&gt;existing BI tools&lt;/span&gt;&lt;/div&gt;&lt;div&gt;&lt;span style=&quot;background-color: transparent; color: light-dark(rgb(35, 47, 62), rgb(189, 199, 212));&quot;&gt;(designed for analytics)&lt;/span&gt;&lt;/div&gt;" style="sketch=0;points=[[0,0,0],[0.25,0,0],[0.5,0,0],[0.75,0,0],[1,0,0],[0,1,0],[0.25,1,0],[0.5,1,0],[0.75,1,0],[1,1,0],[0,0.25,0],[0,0.5,0],[0,0.75,0],[1,0.25,0],[1,0.5,0],[1,0.75,0]];outlineConnect=0;fontColor=#232F3E;fillColor=#C925D1;strokeColor=#ffffff;dashed=0;verticalLabelPosition=bottom;verticalAlign=top;align=center;html=1;fontSize=12;fontStyle=0;aspect=fixed;shape=mxgraph.aws4.resourceIcon;resIcon=mxgraph.aws4.redshift;" parent="GQwtv-Ke6I7whFhwhaPg-54" vertex="1">
          <mxGeometry width="78" height="78" as="geometry" />
        </mxCell>
        <mxCell id="GQwtv-Ke6I7whFhwhaPg-50" value="" style="sketch=0;points=[[0,0,0],[0.25,0,0],[0.5,0,0],[0.75,0,0],[1,0,0],[0,1,0],[0.25,1,0],[0.5,1,0],[0.75,1,0],[1,1,0],[0,0.25,0],[0,0.5,0],[0,0.75,0],[1,0.25,0],[1,0.5,0],[1,0.75,0]];outlineConnect=0;fontColor=#232F3E;fillColor=#8C4FFF;strokeColor=#ffffff;dashed=0;verticalLabelPosition=bottom;verticalAlign=top;align=center;html=1;fontSize=12;fontStyle=0;aspect=fixed;shape=mxgraph.aws4.resourceIcon;resIcon=mxgraph.aws4.serverless;" parent="GQwtv-Ke6I7whFhwhaPg-54" vertex="1">
          <mxGeometry x="50" width="28" height="28" as="geometry" />
        </mxCell>
        <mxCell id="GQwtv-Ke6I7whFhwhaPg-58" value="Receive results in designated S3 bucket" style="edgeStyle=none;curved=1;rounded=0;orthogonalLoop=1;jettySize=auto;html=1;fontSize=12;startSize=8;endSize=8;" parent="1" source="GQwtv-Ke6I7whFhwhaPg-55" target="GQwtv-Ke6I7whFhwhaPg-12" edge="1">
          <mxGeometry relative="1" as="geometry" />
        </mxCell>
        <mxCell id="GQwtv-Ke6I7whFhwhaPg-55" value="&lt;b&gt;Clean Rooms&lt;/b&gt;&lt;div&gt;Provides a space in the AWS cloud where companies&lt;/div&gt;&lt;div&gt;can collaboratively analyse their collective datasets&lt;/div&gt;&lt;div&gt;without needing to directly share any of the under-&lt;/div&gt;&lt;div&gt;lying raw data&lt;/div&gt;" style="sketch=0;points=[[0,0,0],[0.25,0,0],[0.5,0,0],[0.75,0,0],[1,0,0],[0,1,0],[0.25,1,0],[0.5,1,0],[0.75,1,0],[1,1,0],[0,0.25,0],[0,0.5,0],[0,0.75,0],[1,0.25,0],[1,0.5,0],[1,0.75,0]];outlineConnect=0;fontColor=#232F3E;fillColor=#8C4FFF;strokeColor=#ffffff;dashed=0;verticalLabelPosition=bottom;verticalAlign=top;align=center;html=1;fontSize=12;fontStyle=0;aspect=fixed;shape=mxgraph.aws4.resourceIcon;resIcon=mxgraph.aws4.clean_rooms;" parent="1" vertex="1">
          <mxGeometry x="2200" y="1158" width="78" height="78" as="geometry" />
        </mxCell>
        <mxCell id="GQwtv-Ke6I7whFhwhaPg-57" value="Load subscribed data into S3" style="edgeStyle=none;curved=1;rounded=0;orthogonalLoop=1;jettySize=auto;html=1;fontSize=12;startSize=8;endSize=8;" parent="1" source="GQwtv-Ke6I7whFhwhaPg-56" target="GQwtv-Ke6I7whFhwhaPg-12" edge="1">
          <mxGeometry relative="1" as="geometry" />
        </mxCell>
        <mxCell id="GQwtv-Ke6I7whFhwhaPg-56" value="&lt;b&gt;Data Exchange&lt;/b&gt;&lt;div&gt;Public data repository populated by qualified, third-party&lt;/div&gt;&lt;div&gt;data&amp;nbsp;&lt;span style=&quot;background-color: transparent; color: light-dark(rgb(35, 47, 62), rgb(189, 199, 212));&quot;&gt;providers such as weather, healthcare, geospatial,&lt;/span&gt;&lt;/div&gt;&lt;div&gt;&lt;span style=&quot;background-color: transparent; color: light-dark(rgb(35, 47, 62), rgb(189, 199, 212));&quot;&gt;and load it into S3 for analysis&amp;nbsp;&lt;/span&gt;&lt;/div&gt;" style="sketch=0;points=[[0,0,0],[0.25,0,0],[0.5,0,0],[0.75,0,0],[1,0,0],[0,1,0],[0.25,1,0],[0.5,1,0],[0.75,1,0],[1,1,0],[0,0.25,0],[0,0.5,0],[0,0.75,0],[1,0.25,0],[1,0.5,0],[1,0.75,0]];outlineConnect=0;fontColor=#232F3E;fillColor=#8C4FFF;strokeColor=#ffffff;dashed=0;verticalLabelPosition=bottom;verticalAlign=top;align=center;html=1;fontSize=12;fontStyle=0;aspect=fixed;shape=mxgraph.aws4.resourceIcon;resIcon=mxgraph.aws4.data_exchange;" parent="1" vertex="1">
          <mxGeometry x="2152" y="1370" width="78" height="78" as="geometry" />
        </mxCell>
        <mxCell id="GQwtv-Ke6I7whFhwhaPg-59" value="DynamoDB&lt;div&gt;&lt;span style=&quot;font-weight: normal;&quot;&gt;Fully managed key-value database that offers global replication&lt;/span&gt;&lt;/div&gt;&lt;div&gt;&lt;span style=&quot;font-weight: normal;&quot;&gt;(i.e., multi-Region), built-in security, backup and restore and, in-memory&lt;/span&gt;&lt;/div&gt;&lt;div&gt;&lt;span style=&quot;font-weight: 400;&quot;&gt;caching&lt;/span&gt;&lt;/div&gt;" style="sketch=0;points=[[0,0,0],[0.25,0,0],[0.5,0,0],[0.75,0,0],[1,0,0],[0,1,0],[0.25,1,0],[0.5,1,0],[0.75,1,0],[1,1,0],[0,0.25,0],[0,0.5,0],[0,0.75,0],[1,0.25,0],[1,0.5,0],[1,0.75,0]];outlineConnect=0;fontColor=#232F3E;fillColor=#C925D1;strokeColor=#ffffff;dashed=0;verticalLabelPosition=bottom;verticalAlign=top;align=center;html=1;fontSize=12;fontStyle=1;aspect=fixed;shape=mxgraph.aws4.resourceIcon;resIcon=mxgraph.aws4.dynamodb;" parent="1" vertex="1">
          <mxGeometry x="2800" y="-1100" width="78" height="78" as="geometry" />
        </mxCell>
        <mxCell id="GQwtv-Ke6I7whFhwhaPg-60" value="&lt;b&gt;Relational Database Service (RDS)&lt;/b&gt;&lt;div&gt;Managed service for operating and scaling relational&lt;/div&gt;&lt;div&gt;databases in the cloud and allows you to choose the&lt;/div&gt;&lt;div&gt;database instance type and database engine to suite&lt;/div&gt;&lt;div&gt;your needs&lt;/div&gt;" style="sketch=0;points=[[0,0,0],[0.25,0,0],[0.5,0,0],[0.75,0,0],[1,0,0],[0,1,0],[0.25,1,0],[0.5,1,0],[0.75,1,0],[1,1,0],[0,0.25,0],[0,0.5,0],[0,0.75,0],[1,0.25,0],[1,0.5,0],[1,0.75,0]];outlineConnect=0;fontColor=#232F3E;fillColor=#C925D1;strokeColor=#ffffff;dashed=0;verticalLabelPosition=bottom;verticalAlign=top;align=center;html=1;fontSize=12;fontStyle=0;aspect=fixed;shape=mxgraph.aws4.resourceIcon;resIcon=mxgraph.aws4.rds;" parent="1" vertex="1">
          <mxGeometry x="2450" y="-678" width="78" height="78" as="geometry" />
        </mxCell>
        <mxCell id="GQwtv-Ke6I7whFhwhaPg-65" value="" style="edgeStyle=none;curved=1;rounded=0;orthogonalLoop=1;jettySize=auto;html=1;fontSize=12;startSize=8;endSize=8;" parent="1" source="GQwtv-Ke6I7whFhwhaPg-14" target="GQwtv-Ke6I7whFhwhaPg-15" edge="1">
          <mxGeometry relative="1" as="geometry">
            <mxPoint x="1346" y="757" as="sourcePoint" />
            <mxPoint x="2350" y="613" as="targetPoint" />
          </mxGeometry>
        </mxCell>
        <mxCell id="GQwtv-Ke6I7whFhwhaPg-15" value="Data Catalog" style="sketch=0;outlineConnect=0;fontColor=#232F3E;gradientColor=none;fillColor=#8C4FFF;strokeColor=none;dashed=0;verticalLabelPosition=bottom;verticalAlign=top;align=center;html=1;fontSize=12;fontStyle=0;aspect=fixed;pointerEvents=1;shape=mxgraph.aws4.glue_data_catalog;" parent="1" vertex="1">
          <mxGeometry x="2230" y="1018" width="72" height="78" as="geometry" />
        </mxCell>
        <mxCell id="GQwtv-Ke6I7whFhwhaPg-69" value="Outputs data lake into S3" style="edgeStyle=none;curved=1;rounded=0;orthogonalLoop=1;jettySize=auto;html=1;fontSize=12;startSize=8;endSize=8;" parent="1" source="GQwtv-Ke6I7whFhwhaPg-66" target="GQwtv-Ke6I7whFhwhaPg-12" edge="1">
          <mxGeometry relative="1" as="geometry" />
        </mxCell>
        <mxCell id="GQwtv-Ke6I7whFhwhaPg-66" value="&lt;b&gt;Lake Formation&lt;/b&gt;&lt;div&gt;Set up data lakes in days be pointing to existing data sources and,&lt;/div&gt;&lt;div&gt;Lake Formation will fetch, classify and catalog everything into a new&lt;/div&gt;&lt;div&gt;S3 bucket&amp;nbsp;&lt;/div&gt;" style="sketch=0;points=[[0,0,0],[0.25,0,0],[0.5,0,0],[0.75,0,0],[1,0,0],[0,1,0],[0.25,1,0],[0.5,1,0],[0.75,1,0],[1,1,0],[0,0.25,0],[0,0.5,0],[0,0.75,0],[1,0.25,0],[1,0.5,0],[1,0.75,0]];outlineConnect=0;fontColor=#232F3E;fillColor=#8C4FFF;strokeColor=#ffffff;dashed=0;verticalLabelPosition=bottom;verticalAlign=top;align=center;html=1;fontSize=12;fontStyle=0;aspect=fixed;shape=mxgraph.aws4.resourceIcon;resIcon=mxgraph.aws4.lake_formation;" parent="1" vertex="1">
          <mxGeometry x="2728" y="1250" width="78" height="78" as="geometry" />
        </mxCell>
        <mxCell id="GQwtv-Ke6I7whFhwhaPg-75" value="Virtual Private Cloud (VPC)" style="sketch=0;points=[[0,0,0],[0.25,0,0],[0.5,0,0],[0.75,0,0],[1,0,0],[0,1,0],[0.25,1,0],[0.5,1,0],[0.75,1,0],[1,1,0],[0,0.25,0],[0,0.5,0],[0,0.75,0],[1,0.25,0],[1,0.5,0],[1,0.75,0]];outlineConnect=0;fontColor=#232F3E;fillColor=#8C4FFF;strokeColor=#ffffff;dashed=0;verticalLabelPosition=bottom;verticalAlign=top;align=center;html=1;fontSize=12;fontStyle=0;aspect=fixed;shape=mxgraph.aws4.resourceIcon;resIcon=mxgraph.aws4.vpc;" parent="1" vertex="1">
          <mxGeometry x="2390" y="1960" width="78" height="78" as="geometry" />
        </mxCell>
        <mxCell id="GQwtv-Ke6I7whFhwhaPg-77" value="Integrates with VPC" style="edgeStyle=none;curved=1;rounded=0;orthogonalLoop=1;jettySize=auto;html=1;fontSize=12;startSize=8;endSize=8;" parent="1" source="GQwtv-Ke6I7whFhwhaPg-28" target="GQwtv-Ke6I7whFhwhaPg-75" edge="1">
          <mxGeometry relative="1" as="geometry" />
        </mxCell>
        <mxCell id="GQwtv-Ke6I7whFhwhaPg-86" value="&lt;b&gt;Step Functions&lt;/b&gt;&lt;div&gt;A graphical console where you build multi-step visual workflows&lt;/div&gt;&lt;div&gt;that coordinate components of distributed applications&amp;nbsp;&lt;span style=&quot;background-color: transparent; color: light-dark(rgb(35, 47, 62), rgb(189, 199, 212));&quot;&gt;and&lt;/span&gt;&lt;/div&gt;&lt;div&gt;&lt;span style=&quot;background-color: transparent; color: light-dark(rgb(35, 47, 62), rgb(189, 199, 212));&quot;&gt;microservices, automatically handling retries&lt;/span&gt;&lt;/div&gt;" style="sketch=0;points=[[0,0,0],[0.25,0,0],[0.5,0,0],[0.75,0,0],[1,0,0],[0,1,0],[0.25,1,0],[0.5,1,0],[0.75,1,0],[1,1,0],[0,0.25,0],[0,0.5,0],[0,0.75,0],[1,0.25,0],[1,0.5,0],[1,0.75,0]];outlineConnect=0;fontColor=#232F3E;fillColor=#E7157B;strokeColor=#ffffff;dashed=0;verticalLabelPosition=bottom;verticalAlign=top;align=center;html=1;fontSize=12;fontStyle=0;aspect=fixed;shape=mxgraph.aws4.resourceIcon;resIcon=mxgraph.aws4.step_functions;" parent="1" vertex="1">
          <mxGeometry x="2020" y="2498" width="78" height="78" as="geometry" />
        </mxCell>
        <mxCell id="GQwtv-Ke6I7whFhwhaPg-88" value="&lt;b&gt;Simple Workflow Service (SWF)&lt;/b&gt;&lt;div&gt;Fully managed state tracker and task coordinator that facilitate&amp;nbsp;&lt;/div&gt;&lt;div&gt;development of background jobs that have parallel or&amp;nbsp;&lt;/div&gt;&lt;div&gt;sequential steps&amp;nbsp;&lt;/div&gt;" style="sketch=0;points=[[0,0,0],[0.25,0,0],[0.5,0,0],[0.75,0,0],[1,0,0],[0,1,0],[0.25,1,0],[0.5,1,0],[0.75,1,0],[1,1,0],[0,0.25,0],[0,0.5,0],[0,0.75,0],[1,0.25,0],[1,0.5,0],[1,0.75,0]];outlineConnect=0;fontColor=#232F3E;fillColor=#E7157B;strokeColor=#ffffff;dashed=0;verticalLabelPosition=bottom;verticalAlign=top;align=center;html=1;fontSize=12;fontStyle=0;aspect=fixed;shape=mxgraph.aws4.resourceIcon;resIcon=mxgraph.aws4.express_workflow;" parent="1" vertex="1">
          <mxGeometry x="2750" y="2920" width="78" height="78" as="geometry" />
        </mxCell>
        <mxCell id="GQwtv-Ke6I7whFhwhaPg-80" value="&lt;b&gt;MQ (Apache ActiveMQ Classic &amp;amp; RabbitMQ)&lt;/b&gt;&lt;div&gt;Managed message broker service for Apache ActiveMQ and&amp;nbsp;&lt;br&gt;RabbitMQ using standard industry APIs and protocols,&lt;/div&gt;&lt;div&gt;making integration from current apps easy&lt;/div&gt;" style="sketch=0;points=[[0,0,0],[0.25,0,0],[0.5,0,0],[0.75,0,0],[1,0,0],[0,1,0],[0.25,1,0],[0.5,1,0],[0.75,1,0],[1,1,0],[0,0.25,0],[0,0.5,0],[0,0.75,0],[1,0.25,0],[1,0.5,0],[1,0.75,0]];outlineConnect=0;fontColor=#232F3E;fillColor=#E7157B;strokeColor=#ffffff;dashed=0;verticalLabelPosition=bottom;verticalAlign=top;align=center;html=1;fontSize=12;fontStyle=0;aspect=fixed;shape=mxgraph.aws4.resourceIcon;resIcon=mxgraph.aws4.mq;" parent="1" vertex="1">
          <mxGeometry x="2760" y="2692" width="78" height="78" as="geometry" />
        </mxCell>
        <mxCell id="GQwtv-Ke6I7whFhwhaPg-98" style="edgeStyle=none;curved=1;rounded=0;orthogonalLoop=1;jettySize=auto;html=1;fontSize=12;startSize=8;endSize=8;" parent="1" source="GQwtv-Ke6I7whFhwhaPg-87" target="GQwtv-Ke6I7whFhwhaPg-23" edge="1">
          <mxGeometry relative="1" as="geometry" />
        </mxCell>
        <mxCell id="GQwtv-Ke6I7whFhwhaPg-99" value="Transforms and transfers from SaaS to Redshift" style="edgeLabel;html=1;align=center;verticalAlign=middle;resizable=0;points=[];fontSize=12;" parent="GQwtv-Ke6I7whFhwhaPg-98" vertex="1" connectable="0">
          <mxGeometry x="0.0009" y="-1" relative="1" as="geometry">
            <mxPoint as="offset" />
          </mxGeometry>
        </mxCell>
        <mxCell id="GQwtv-Ke6I7whFhwhaPg-100" value="Transforms and transfers from SaaS to S3" style="edgeStyle=none;curved=1;rounded=0;orthogonalLoop=1;jettySize=auto;html=1;fontSize=12;startSize=8;endSize=8;" parent="1" source="GQwtv-Ke6I7whFhwhaPg-87" target="GQwtv-Ke6I7whFhwhaPg-12" edge="1">
          <mxGeometry relative="1" as="geometry" />
        </mxCell>
        <mxCell id="GQwtv-Ke6I7whFhwhaPg-87" value="&lt;b&gt;AppFlow&lt;/b&gt;&lt;div&gt;Transforms and transfers data from SaaS applications to AWS&lt;/div&gt;&lt;div&gt;services like S3 and Redshift either on a schedule, in&lt;/div&gt;&lt;div&gt;response to an event or on demand&lt;/div&gt;" style="sketch=0;points=[[0,0,0],[0.25,0,0],[0.5,0,0],[0.75,0,0],[1,0,0],[0,1,0],[0.25,1,0],[0.5,1,0],[0.75,1,0],[1,1,0],[0,0.25,0],[0,0.5,0],[0,0.75,0],[1,0.25,0],[1,0.5,0],[1,0.75,0]];outlineConnect=0;fontColor=#232F3E;fillColor=#E7157B;strokeColor=#ffffff;dashed=0;verticalLabelPosition=bottom;verticalAlign=top;align=center;html=1;fontSize=12;fontStyle=0;aspect=fixed;shape=mxgraph.aws4.resourceIcon;resIcon=mxgraph.aws4.appflow;" parent="1" vertex="1">
          <mxGeometry x="2390" y="2498" width="78" height="78" as="geometry" />
        </mxCell>
        <mxCell id="GQwtv-Ke6I7whFhwhaPg-83" value="&lt;b&gt;B2B Data Interchange&lt;/b&gt;&lt;div&gt;Automates the transformation of transactional business data&lt;/div&gt;&lt;div&gt;in the form of EDI/X12 documents into JSON and XML to simplify&lt;/div&gt;&lt;div&gt;downstream data integrations&lt;/div&gt;" style="sketch=0;points=[[0,0,0],[0.25,0,0],[0.5,0,0],[0.75,0,0],[1,0,0],[0,1,0],[0.25,1,0],[0.5,1,0],[0.75,1,0],[1,1,0],[0,0.25,0],[0,0.5,0],[0,0.75,0],[1,0.25,0],[1,0.5,0],[1,0.75,0]];outlineConnect=0;fontColor=#232F3E;fillColor=#E7157B;strokeColor=#ffffff;dashed=0;verticalLabelPosition=bottom;verticalAlign=top;align=center;html=1;fontSize=12;fontStyle=0;aspect=fixed;shape=mxgraph.aws4.resourceIcon;resIcon=mxgraph.aws4.b2b_data_interchange;" parent="1" vertex="1">
          <mxGeometry x="2760" y="2498" width="78" height="78" as="geometry" />
        </mxCell>
        <mxCell id="GQwtv-Ke6I7whFhwhaPg-85" value="&lt;b&gt;Managed Workflow for Apache Airflow (MWAA)&lt;/b&gt;&lt;div&gt;Fully managed orchestration service for Apache Airflow to&lt;/div&gt;&lt;div&gt;programmatically author, schedule and monitor workflows&lt;/div&gt;" style="sketch=0;points=[[0,0,0],[0.25,0,0],[0.5,0,0],[0.75,0,0],[1,0,0],[0,1,0],[0.25,1,0],[0.5,1,0],[0.75,1,0],[1,1,0],[0,0.25,0],[0,0.5,0],[0,0.75,0],[1,0.25,0],[1,0.5,0],[1,0.75,0]];outlineConnect=0;fontColor=#232F3E;fillColor=#E7157B;strokeColor=#ffffff;dashed=0;verticalLabelPosition=bottom;verticalAlign=top;align=center;html=1;fontSize=12;fontStyle=0;aspect=fixed;shape=mxgraph.aws4.resourceIcon;resIcon=mxgraph.aws4.managed_workflows_for_apache_airflow;" parent="1" vertex="1">
          <mxGeometry x="2390" y="2692" width="78" height="78" as="geometry" />
        </mxCell>
        <mxCell id="GQwtv-Ke6I7whFhwhaPg-81" value="&lt;b&gt;Simple Notification Service (SNS)&lt;/b&gt;&lt;div&gt;Pub/sub messaging service that can fan out messages&lt;/div&gt;&lt;div&gt;using push, SMS or email&amp;nbsp;&lt;/div&gt;" style="sketch=0;points=[[0,0,0],[0.25,0,0],[0.5,0,0],[0.75,0,0],[1,0,0],[0,1,0],[0.25,1,0],[0.5,1,0],[0.75,1,0],[1,1,0],[0,0.25,0],[0,0.5,0],[0,0.75,0],[1,0.25,0],[1,0.5,0],[1,0.75,0]];outlineConnect=0;fontColor=#232F3E;fillColor=#E7157B;strokeColor=#ffffff;dashed=0;verticalLabelPosition=bottom;verticalAlign=top;align=center;html=1;fontSize=12;fontStyle=0;aspect=fixed;shape=mxgraph.aws4.resourceIcon;resIcon=mxgraph.aws4.sns;" parent="1" vertex="1">
          <mxGeometry x="2020" y="2950" width="78" height="78" as="geometry" />
        </mxCell>
        <mxCell id="GQwtv-Ke6I7whFhwhaPg-82" value="&lt;b&gt;Simple Queue Service (SQS)&lt;/b&gt;&lt;div&gt;Fully managed message queue service featuring standard&lt;/div&gt;&lt;div&gt;queues for at-least-once-delivery and best-effort-ordering and&amp;nbsp;&lt;/div&gt;&lt;div&gt;FIFO queues which guarantee single delivery and expected ordering&amp;nbsp;&lt;/div&gt;" style="sketch=0;points=[[0,0,0],[0.25,0,0],[0.5,0,0],[0.75,0,0],[1,0,0],[0,1,0],[0.25,1,0],[0.5,1,0],[0.75,1,0],[1,1,0],[0,0.25,0],[0,0.5,0],[0,0.75,0],[1,0.25,0],[1,0.5,0],[1,0.75,0]];outlineConnect=0;fontColor=#232F3E;fillColor=#E7157B;strokeColor=#ffffff;dashed=0;verticalLabelPosition=bottom;verticalAlign=top;align=center;html=1;fontSize=12;fontStyle=0;aspect=fixed;shape=mxgraph.aws4.resourceIcon;resIcon=mxgraph.aws4.sqs;" parent="1" vertex="1">
          <mxGeometry x="2390" y="2950" width="78" height="78" as="geometry" />
        </mxCell>
        <mxCell id="GQwtv-Ke6I7whFhwhaPg-96" value="" style="group" parent="1" vertex="1" connectable="0">
          <mxGeometry x="2020" y="2692" width="78" height="78" as="geometry" />
        </mxCell>
        <mxCell id="GQwtv-Ke6I7whFhwhaPg-84" value="&lt;b&gt;EventBridge&lt;/b&gt;&lt;div&gt;Event bus for event-driven applications, events being generated by&amp;nbsp;&lt;/div&gt;&lt;div&gt;custom applications, SaaS applications and other AWS services&lt;/div&gt;&lt;div&gt;and, it supports routing to control where data is sent&lt;/div&gt;" style="sketch=0;points=[[0,0,0],[0.25,0,0],[0.5,0,0],[0.75,0,0],[1,0,0],[0,1,0],[0.25,1,0],[0.5,1,0],[0.75,1,0],[1,1,0],[0,0.25,0],[0,0.5,0],[0,0.75,0],[1,0.25,0],[1,0.5,0],[1,0.75,0]];outlineConnect=0;fontColor=#232F3E;fillColor=#E7157B;strokeColor=#ffffff;dashed=0;verticalLabelPosition=bottom;verticalAlign=top;align=center;html=1;fontSize=12;fontStyle=0;aspect=fixed;shape=mxgraph.aws4.resourceIcon;resIcon=mxgraph.aws4.eventbridge;" parent="GQwtv-Ke6I7whFhwhaPg-96" vertex="1">
          <mxGeometry width="78" height="78" as="geometry" />
        </mxCell>
        <mxCell id="GQwtv-Ke6I7whFhwhaPg-95" value="" style="sketch=0;points=[[0,0,0],[0.25,0,0],[0.5,0,0],[0.75,0,0],[1,0,0],[0,1,0],[0.25,1,0],[0.5,1,0],[0.75,1,0],[1,1,0],[0,0.25,0],[0,0.5,0],[0,0.75,0],[1,0.25,0],[1,0.5,0],[1,0.75,0]];outlineConnect=0;fontColor=#232F3E;fillColor=#8C4FFF;strokeColor=#ffffff;dashed=0;verticalLabelPosition=bottom;verticalAlign=top;align=center;html=1;fontSize=12;fontStyle=0;aspect=fixed;shape=mxgraph.aws4.resourceIcon;resIcon=mxgraph.aws4.serverless;" parent="GQwtv-Ke6I7whFhwhaPg-96" vertex="1">
          <mxGeometry x="50" width="28" height="28" as="geometry" />
        </mxCell>
        <mxCell id="GQwtv-Ke6I7whFhwhaPg-103" value="Copy to QLDB for anaytics" style="edgeStyle=none;curved=1;rounded=0;orthogonalLoop=1;jettySize=auto;html=1;fontSize=12;startSize=8;endSize=8;" parent="1" source="GQwtv-Ke6I7whFhwhaPg-101" target="GQwtv-Ke6I7whFhwhaPg-102" edge="1">
          <mxGeometry relative="1" as="geometry" />
        </mxCell>
        <mxCell id="GQwtv-Ke6I7whFhwhaPg-101" value="&lt;b&gt;Blockchain&lt;/b&gt;&lt;div&gt;Easily create Hyperledger Fabric and Ethereum blockchain networks&lt;/div&gt;&lt;div&gt;that can be immutably copied to QLDB for analytics&lt;/div&gt;" style="sketch=0;points=[[0,0,0],[0.25,0,0],[0.5,0,0],[0.75,0,0],[1,0,0],[0,1,0],[0.25,1,0],[0.5,1,0],[0.75,1,0],[1,1,0],[0,0.25,0],[0,0.5,0],[0,0.75,0],[1,0.25,0],[1,0.5,0],[1,0.75,0]];outlineConnect=0;fontColor=#232F3E;fillColor=#ED7100;strokeColor=#ffffff;dashed=0;verticalLabelPosition=bottom;verticalAlign=top;align=center;html=1;fontSize=12;fontStyle=0;aspect=fixed;shape=mxgraph.aws4.resourceIcon;resIcon=mxgraph.aws4.managed_blockchain;" parent="1" vertex="1">
          <mxGeometry x="3190" y="50" width="78" height="78" as="geometry" />
        </mxCell>
        <mxCell id="GQwtv-Ke6I7whFhwhaPg-102" value="Quantum Ledger Database&lt;div&gt;&lt;span style=&quot;font-weight: normal;&quot;&gt;Fully managed, inherently immutable, transparent and cryptographically&lt;/span&gt;&lt;/div&gt;&lt;div&gt;&lt;span style=&quot;font-weight: normal;&quot;&gt;verifiable ledger database owned by a central trusted authority&lt;/span&gt;&lt;/div&gt;" style="sketch=0;points=[[0,0,0],[0.25,0,0],[0.5,0,0],[0.75,0,0],[1,0,0],[0,1,0],[0.25,1,0],[0.5,1,0],[0.75,1,0],[1,1,0],[0,0.25,0],[0,0.5,0],[0,0.75,0],[1,0.25,0],[1,0.5,0],[1,0.75,0]];outlineConnect=0;fontColor=#232F3E;fillColor=#C925D1;strokeColor=#ffffff;dashed=0;verticalLabelPosition=bottom;verticalAlign=top;align=center;html=1;fontSize=12;fontStyle=1;aspect=fixed;shape=mxgraph.aws4.resourceIcon;resIcon=mxgraph.aws4.quantum_ledger_database;" parent="1" vertex="1">
          <mxGeometry x="3010" y="-678" width="78" height="78" as="geometry" />
        </mxCell>
        <mxCell id="GQwtv-Ke6I7whFhwhaPg-109" value="&lt;b&gt;Alexa for Business&lt;/b&gt;&lt;div&gt;Use Alexa as your intelligent business assistant&lt;/div&gt;&lt;div&gt;and integrates with devices at home&lt;/div&gt;" style="sketch=0;points=[[0,0,0],[0.25,0,0],[0.5,0,0],[0.75,0,0],[1,0,0],[0,1,0],[0.25,1,0],[0.5,1,0],[0.75,1,0],[1,1,0],[0,0.25,0],[0,0.5,0],[0,0.75,0],[1,0.25,0],[1,0.5,0],[1,0.75,0]];outlineConnect=0;fontColor=#232F3E;fillColor=#DD344C;strokeColor=#ffffff;dashed=0;verticalLabelPosition=bottom;verticalAlign=top;align=center;html=1;fontSize=12;fontStyle=0;aspect=fixed;shape=mxgraph.aws4.resourceIcon;resIcon=mxgraph.aws4.alexa_for_business;" parent="1" vertex="1">
          <mxGeometry x="3351" y="2511" width="78" height="78" as="geometry" />
        </mxCell>
        <mxCell id="GQwtv-Ke6I7whFhwhaPg-110" value="&lt;b&gt;AppFabric&lt;/b&gt;&lt;div&gt;Connects SaaS applications then, ingests and normalises security&lt;/div&gt;&lt;div&gt;data using Open Cybersecurity Schema Framework (OCSF) that allows&lt;/div&gt;&lt;div&gt;configuring common policies, security alerts and managing user access&lt;/div&gt;" style="sketch=0;points=[[0,0,0],[0.25,0,0],[0.5,0,0],[0.75,0,0],[1,0,0],[0,1,0],[0.25,1,0],[0.5,1,0],[0.75,1,0],[1,1,0],[0,0.25,0],[0,0.5,0],[0,0.75,0],[1,0.25,0],[1,0.5,0],[1,0.75,0]];outlineConnect=0;fontColor=#232F3E;fillColor=#DD344C;strokeColor=#ffffff;dashed=0;verticalLabelPosition=bottom;verticalAlign=top;align=center;html=1;fontSize=12;fontStyle=0;aspect=fixed;shape=mxgraph.aws4.resourceIcon;resIcon=mxgraph.aws4.appfabric;" parent="1" vertex="1">
          <mxGeometry x="3731" y="2501" width="78" height="78" as="geometry" />
        </mxCell>
        <mxCell id="GQwtv-Ke6I7whFhwhaPg-120" value="Enables voice commands" style="edgeStyle=none;curved=1;rounded=0;orthogonalLoop=1;jettySize=auto;html=1;fontSize=12;startSize=8;endSize=8;" parent="1" source="GQwtv-Ke6I7whFhwhaPg-111" target="GQwtv-Ke6I7whFhwhaPg-109" edge="1">
          <mxGeometry relative="1" as="geometry" />
        </mxCell>
        <mxCell id="GQwtv-Ke6I7whFhwhaPg-111" value="&lt;b&gt;Chime&lt;/b&gt;&lt;div&gt;An application for online meetings, video conferencing, calls, chat&lt;/div&gt;&lt;div&gt;and content sharing inside and outside your organisation. Also works&lt;/div&gt;&lt;div&gt;with Alexa for Business facilitating voice commands and meeting automation&lt;/div&gt;" style="sketch=0;points=[[0,0,0],[0.25,0,0],[0.5,0,0],[0.75,0,0],[1,0,0],[0,1,0],[0.25,1,0],[0.5,1,0],[0.75,1,0],[1,1,0],[0,0.25,0],[0,0.5,0],[0,0.75,0],[1,0.25,0],[1,0.5,0],[1,0.75,0]];outlineConnect=0;fontColor=#232F3E;fillColor=#DD344C;strokeColor=#ffffff;dashed=0;verticalLabelPosition=bottom;verticalAlign=top;align=center;html=1;fontSize=12;fontStyle=0;aspect=fixed;shape=mxgraph.aws4.resourceIcon;resIcon=mxgraph.aws4.chime;" parent="1" vertex="1">
          <mxGeometry x="3361" y="2703" width="78" height="78" as="geometry" />
        </mxCell>
        <mxCell id="GQwtv-Ke6I7whFhwhaPg-122" value="Enable intelligent, omnichannel conversations" style="edgeStyle=none;curved=1;rounded=0;orthogonalLoop=1;jettySize=auto;html=1;fontSize=12;startSize=8;endSize=8;" parent="1" source="GQwtv-Ke6I7whFhwhaPg-112" target="GQwtv-Ke6I7whFhwhaPg-115" edge="1">
          <mxGeometry relative="1" as="geometry" />
        </mxCell>
        <mxCell id="GQwtv-Ke6I7whFhwhaPg-112" value="&lt;b&gt;Chime SDK&lt;/b&gt;&lt;div&gt;Integrate real-time audio, video and, screen and content sharing with&lt;/div&gt;&lt;div&gt;&amp;nbsp;AI/ML services and/or the public telephone network&lt;/div&gt;" style="sketch=0;points=[[0,0,0],[0.25,0,0],[0.5,0,0],[0.75,0,0],[1,0,0],[0,1,0],[0.25,1,0],[0.5,1,0],[0.75,1,0],[1,1,0],[0,0.25,0],[0,0.5,0],[0,0.75,0],[1,0.25,0],[1,0.5,0],[1,0.75,0]];outlineConnect=0;fontColor=#232F3E;fillColor=#DD344C;strokeColor=#ffffff;dashed=0;verticalLabelPosition=bottom;verticalAlign=top;align=center;html=1;fontSize=12;fontStyle=0;aspect=fixed;shape=mxgraph.aws4.resourceIcon;resIcon=mxgraph.aws4.chime_sdk;" parent="1" vertex="1">
          <mxGeometry x="3802" y="2691" width="78" height="78" as="geometry" />
        </mxCell>
        <mxCell id="GQwtv-Ke6I7whFhwhaPg-114" value="&lt;b&gt;Connect&lt;/b&gt;&lt;div&gt;Self-service, omnichannel contact centre with easy management of&lt;/div&gt;&lt;div&gt;contact flows, agents and, performance metric tracking. It&#39;s fully managed&lt;/div&gt;&lt;div&gt;and you only pay by the minute for usage and any telephony services&lt;/div&gt;" style="sketch=0;points=[[0,0,0],[0.25,0,0],[0.5,0,0],[0.75,0,0],[1,0,0],[0,1,0],[0.25,1,0],[0.5,1,0],[0.75,1,0],[1,1,0],[0,0.25,0],[0,0.5,0],[0,0.75,0],[1,0.25,0],[1,0.5,0],[1,0.75,0]];outlineConnect=0;fontColor=#232F3E;fillColor=#DD344C;strokeColor=#ffffff;dashed=0;verticalLabelPosition=bottom;verticalAlign=top;align=center;html=1;fontSize=12;fontStyle=0;aspect=fixed;shape=mxgraph.aws4.resourceIcon;resIcon=mxgraph.aws4.connect;" parent="1" vertex="1">
          <mxGeometry x="3361" y="2893" width="78" height="78" as="geometry" />
        </mxCell>
        <mxCell id="GQwtv-Ke6I7whFhwhaPg-115" value="&lt;b&gt;Pinpoint&lt;/b&gt;&lt;div&gt;Send targeted messages through multiple engagement channels and&lt;/div&gt;&lt;div&gt;track user responses,&amp;nbsp;&lt;span style=&quot;background-color: transparent; color: light-dark(rgb(35, 47, 62), rgb(189, 199, 212));&quot;&gt;integrate with web and mobile applications&amp;nbsp;&lt;/span&gt;&lt;/div&gt;&lt;div&gt;&lt;span style=&quot;background-color: transparent; color: light-dark(rgb(35, 47, 62), rgb(189, 199, 212));&quot;&gt;to capture usage data&lt;/span&gt;&lt;/div&gt;" style="sketch=0;points=[[0,0,0],[0.25,0,0],[0.5,0,0],[0.75,0,0],[1,0,0],[0,1,0],[0.25,1,0],[0.5,1,0],[0.75,1,0],[1,1,0],[0,0.25,0],[0,0.5,0],[0,0.75,0],[1,0.25,0],[1,0.5,0],[1,0.75,0]];outlineConnect=0;fontColor=#232F3E;fillColor=#DD344C;strokeColor=#ffffff;dashed=0;verticalLabelPosition=bottom;verticalAlign=top;align=center;html=1;fontSize=12;fontStyle=0;aspect=fixed;shape=mxgraph.aws4.resourceIcon;resIcon=mxgraph.aws4.pinpoint;" parent="1" vertex="1">
          <mxGeometry x="3781" y="2881" width="78" height="78" as="geometry" />
        </mxCell>
        <mxCell id="GQwtv-Ke6I7whFhwhaPg-116" value="&lt;b&gt;Simple Email Service (SES)&lt;/b&gt;&lt;div&gt;Email service enabling sending email from any application with features&lt;/div&gt;&lt;div&gt;that help drive higher deliverability and protect sender reputation, offering&lt;/div&gt;&lt;div&gt;sending-analytics that measure email impact&amp;nbsp;&lt;/div&gt;" style="sketch=0;points=[[0,0,0],[0.25,0,0],[0.5,0,0],[0.75,0,0],[1,0,0],[0,1,0],[0.25,1,0],[0.5,1,0],[0.75,1,0],[1,1,0],[0,0.25,0],[0,0.5,0],[0,0.75,0],[1,0.25,0],[1,0.5,0],[1,0.75,0]];outlineConnect=0;fontColor=#232F3E;fillColor=#DD344C;strokeColor=#ffffff;dashed=0;verticalLabelPosition=bottom;verticalAlign=top;align=center;html=1;fontSize=12;fontStyle=0;aspect=fixed;shape=mxgraph.aws4.resourceIcon;resIcon=mxgraph.aws4.simple_email_service;" parent="1" vertex="1">
          <mxGeometry x="4171" y="2501" width="78" height="78" as="geometry" />
        </mxCell>
        <mxCell id="GQwtv-Ke6I7whFhwhaPg-117" value="&lt;b&gt;WorkDocs (DISCONTINUED AS OF 25/04/25)&lt;/b&gt;&lt;div&gt;Enterprise file storage, annotation &amp;amp; commenting and,&lt;/div&gt;&lt;div&gt;&amp;nbsp;sharing service that supports versioning and integration&lt;/div&gt;&lt;div&gt;with existing corporate directories&amp;nbsp;&lt;/div&gt;" style="sketch=0;points=[[0,0,0],[0.25,0,0],[0.5,0,0],[0.75,0,0],[1,0,0],[0,1,0],[0.25,1,0],[0.5,1,0],[0.75,1,0],[1,1,0],[0,0.25,0],[0,0.5,0],[0,0.75,0],[1,0.25,0],[1,0.5,0],[1,0.75,0]];outlineConnect=0;fontColor=#232F3E;fillColor=#DD344C;strokeColor=#ffffff;dashed=0;verticalLabelPosition=bottom;verticalAlign=top;align=center;html=1;fontSize=12;fontStyle=0;aspect=fixed;shape=mxgraph.aws4.resourceIcon;resIcon=mxgraph.aws4.workdocs;" parent="1" vertex="1">
          <mxGeometry x="4171" y="2703" width="78" height="78" as="geometry" />
        </mxCell>
        <mxCell id="GQwtv-Ke6I7whFhwhaPg-118" value="&lt;b&gt;WorkMail&lt;/b&gt;&lt;div&gt;Business email, contacts and, calendar service that supports existing email&lt;/div&gt;&lt;div&gt;client applications (IMAP), web access and, integrating with existing&lt;/div&gt;&lt;div&gt;corporate directories. It also offers an SDK.&lt;/div&gt;" style="sketch=0;points=[[0,0,0],[0.25,0,0],[0.5,0,0],[0.75,0,0],[1,0,0],[0,1,0],[0.25,1,0],[0.5,1,0],[0.75,1,0],[1,1,0],[0,0.25,0],[0,0.5,0],[0,0.75,0],[1,0.25,0],[1,0.5,0],[1,0.75,0]];outlineConnect=0;fontColor=#232F3E;fillColor=#DD344C;strokeColor=#ffffff;dashed=0;verticalLabelPosition=bottom;verticalAlign=top;align=center;html=1;fontSize=12;fontStyle=0;aspect=fixed;shape=mxgraph.aws4.resourceIcon;resIcon=mxgraph.aws4.workmail;" parent="1" vertex="1">
          <mxGeometry x="4201" y="2911" width="78" height="78" as="geometry" />
        </mxCell>
        <mxCell id="GQwtv-Ke6I7whFhwhaPg-127" value="" style="group" parent="1" vertex="1" connectable="0">
          <mxGeometry x="1423" y="980" width="520" height="460" as="geometry" />
        </mxCell>
        <mxCell id="GQwtv-Ke6I7whFhwhaPg-125" value="" style="fillColor=none;strokeColor=light-dark(#5A6C86,#B17DFF);dashed=1;verticalAlign=top;fontStyle=0;fontColor=#5A6C86;whiteSpace=wrap;html=1;strokeWidth=8;" parent="GQwtv-Ke6I7whFhwhaPg-127" vertex="1">
          <mxGeometry width="520" height="460" as="geometry" />
        </mxCell>
        <mxCell id="GQwtv-Ke6I7whFhwhaPg-7" value="&lt;b&gt;Kinesis&lt;/b&gt;&lt;div&gt;A suite of services to collect,&lt;/div&gt;&lt;div&gt;process and analyse real-time,&lt;/div&gt;&lt;div&gt;streaming data&lt;/div&gt;" style="sketch=0;points=[[0,0,0],[0.25,0,0],[0.5,0,0],[0.75,0,0],[1,0,0],[0,1,0],[0.25,1,0],[0.5,1,0],[0.75,1,0],[1,1,0],[0,0.25,0],[0,0.5,0],[0,0.75,0],[1,0.25,0],[1,0.5,0],[1,0.75,0]];outlineConnect=0;fontColor=#232F3E;fillColor=#8C4FFF;strokeColor=#ffffff;dashed=0;verticalLabelPosition=middle;verticalAlign=middle;align=left;html=1;fontSize=12;fontStyle=0;aspect=fixed;shape=mxgraph.aws4.resourceIcon;resIcon=mxgraph.aws4.kinesis;spacingLeft=7;labelPosition=right;" parent="GQwtv-Ke6I7whFhwhaPg-127" vertex="1">
          <mxGeometry width="78" height="78" as="geometry" />
        </mxCell>
        <mxCell id="GQwtv-Ke6I7whFhwhaPg-11" value="&lt;b&gt;Managed Services&lt;/b&gt;&lt;div&gt;&lt;b&gt;for Apache Flink&lt;/b&gt;&lt;/div&gt;&lt;div&gt;Streaming using Apache but,&lt;/div&gt;&lt;div&gt;managed by AWS&lt;/div&gt;" style="sketch=0;points=[[0,0,0],[0.25,0,0],[0.5,0,0],[0.75,0,0],[1,0,0],[0,1,0],[0.25,1,0],[0.5,1,0],[0.75,1,0],[1,1,0],[0,0.25,0],[0,0.5,0],[0,0.75,0],[1,0.25,0],[1,0.5,0],[1,0.75,0]];outlineConnect=0;fontColor=#232F3E;fillColor=#8C4FFF;strokeColor=#ffffff;dashed=0;verticalLabelPosition=bottom;verticalAlign=top;align=center;html=1;fontSize=12;fontStyle=0;aspect=fixed;shape=mxgraph.aws4.resourceIcon;resIcon=mxgraph.aws4.managed_service_for_apache_flink;" parent="1" vertex="1">
          <mxGeometry x="1523" y="1270" width="78" height="78" as="geometry" />
        </mxCell>
        <mxCell id="GQwtv-Ke6I7whFhwhaPg-9" value="&lt;b&gt;DataStreams&lt;/b&gt;&lt;div&gt;Continuously capture vast amounts&lt;/div&gt;&lt;div&gt;of data per second from a wide&lt;/div&gt;&lt;div&gt;range of data sources&lt;/div&gt;" style="sketch=0;points=[[0,0,0],[0.25,0,0],[0.5,0,0],[0.75,0,0],[1,0,0],[0,1,0],[0.25,1,0],[0.5,1,0],[0.75,1,0],[1,1,0],[0,0.25,0],[0,0.5,0],[0,0.75,0],[1,0.25,0],[1,0.5,0],[1,0.75,0]];outlineConnect=0;fontColor=#232F3E;fillColor=#8C4FFF;strokeColor=#ffffff;dashed=0;verticalLabelPosition=bottom;verticalAlign=top;align=center;html=1;fontSize=12;fontStyle=0;aspect=fixed;shape=mxgraph.aws4.resourceIcon;resIcon=mxgraph.aws4.kinesis_data_streams;" parent="1" vertex="1">
          <mxGeometry x="1743" y="1090" width="78" height="78" as="geometry" />
        </mxCell>
        <mxCell id="GQwtv-Ke6I7whFhwhaPg-10" value="&lt;b&gt;VideoStreams&lt;/b&gt;&lt;div&gt;Stream video from connected devices&lt;/div&gt;&lt;div&gt;to AWS for analytics, ML or even just playback&lt;/div&gt;" style="sketch=0;points=[[0,0,0],[0.25,0,0],[0.5,0,0],[0.75,0,0],[1,0,0],[0,1,0],[0.25,1,0],[0.5,1,0],[0.75,1,0],[1,1,0],[0,0.25,0],[0,0.5,0],[0,0.75,0],[1,0.25,0],[1,0.5,0],[1,0.75,0]];outlineConnect=0;fontColor=#232F3E;fillColor=#8C4FFF;strokeColor=#ffffff;dashed=0;verticalLabelPosition=bottom;verticalAlign=top;align=center;html=1;fontSize=12;fontStyle=0;aspect=fixed;shape=mxgraph.aws4.resourceIcon;resIcon=mxgraph.aws4.kinesis_video_streams;" parent="1" vertex="1">
          <mxGeometry x="1743" y="1270" width="78" height="78" as="geometry" />
        </mxCell>
        <mxCell id="GQwtv-Ke6I7whFhwhaPg-8" value="&lt;b&gt;Firehose&lt;/b&gt;&lt;div&gt;Capture, transform and load&lt;/div&gt;&lt;div&gt;streaming data into data storage&lt;/div&gt;" style="sketch=0;points=[[0,0,0],[0.25,0,0],[0.5,0,0],[0.75,0,0],[1,0,0],[0,1,0],[0.25,1,0],[0.5,1,0],[0.75,1,0],[1,1,0],[0,0.25,0],[0,0.5,0],[0,0.75,0],[1,0.25,0],[1,0.5,0],[1,0.75,0]];outlineConnect=0;fontColor=#232F3E;fillColor=#8C4FFF;strokeColor=#ffffff;dashed=0;verticalLabelPosition=bottom;verticalAlign=top;align=center;html=1;fontSize=12;fontStyle=0;aspect=fixed;shape=mxgraph.aws4.resourceIcon;resIcon=mxgraph.aws4.kinesis_data_firehose;" parent="1" vertex="1">
          <mxGeometry x="1523" y="1090" width="78" height="78" as="geometry" />
        </mxCell>
        <mxCell id="GQwtv-Ke6I7whFhwhaPg-3" value="&lt;b&gt;DataZone&lt;/b&gt;&lt;div&gt;Publish data to your business data catalog&lt;/div&gt;&lt;div&gt;thus, it simplifies things across SageMaker, RedShift,&lt;/div&gt;&lt;div&gt;Athena, Glue, Lake Formation and QuickSight&amp;nbsp;&lt;/div&gt;" style="sketch=0;points=[[0,0,0],[0.25,0,0],[0.5,0,0],[0.75,0,0],[1,0,0],[0,1,0],[0.25,1,0],[0.5,1,0],[0.75,1,0],[1,1,0],[0,0.25,0],[0,0.5,0],[0,0.75,0],[1,0.25,0],[1,0.5,0],[1,0.75,0]];outlineConnect=0;fontColor=#232F3E;fillColor=#8C4FFF;strokeColor=#ffffff;dashed=0;verticalLabelPosition=bottom;verticalAlign=top;align=center;html=1;fontSize=12;fontStyle=0;aspect=fixed;shape=mxgraph.aws4.resourceIcon;resIcon=mxgraph.aws4.datazone;" parent="1" vertex="1">
          <mxGeometry x="1500" y="1520" width="78" height="78" as="geometry" />
        </mxCell>
        <mxCell id="GQwtv-Ke6I7whFhwhaPg-130" value="&lt;b&gt;Application Cost Profiles (DISCONTINUED)&lt;/b&gt;&lt;div&gt;Facilitates tracking of individual software&lt;/div&gt;&lt;div&gt;application consumption of shared&amp;nbsp;&lt;span style=&quot;background-color: transparent; color: light-dark(rgb(35, 47, 62), rgb(189, 199, 212));&quot;&gt;AWS resources&lt;/span&gt;&lt;/div&gt;" style="sketch=0;points=[[0,0,0],[0.25,0,0],[0.5,0,0],[0.75,0,0],[1,0,0],[0,1,0],[0.25,1,0],[0.5,1,0],[0.75,1,0],[1,1,0],[0,0.25,0],[0,0.5,0],[0,0.75,0],[1,0.25,0],[1,0.5,0],[1,0.75,0]];outlineConnect=0;fontColor=#232F3E;fillColor=#7AA116;strokeColor=#ffffff;dashed=0;verticalLabelPosition=bottom;verticalAlign=top;align=center;html=1;fontSize=12;fontStyle=0;aspect=fixed;shape=mxgraph.aws4.resourceIcon;resIcon=mxgraph.aws4.application_cost_profiler;" parent="1" vertex="1">
          <mxGeometry x="3632" y="1581" width="78" height="78" as="geometry" />
        </mxCell>
        <mxCell id="GQwtv-Ke6I7whFhwhaPg-131" value="Cost Explorer&lt;div&gt;&lt;span style=&quot;font-weight: 400;&quot;&gt;Understand resource costs across all accounts by creating&lt;/span&gt;&lt;/div&gt;&lt;div&gt;&lt;span style=&quot;font-weight: 400;&quot;&gt;custom reports featuring&amp;nbsp;&lt;/span&gt;&lt;span style=&quot;background-color: transparent; color: light-dark(rgb(35, 47, 62), rgb(189, 199, 212)); font-weight: 400;&quot;&gt;charts&amp;nbsp;&lt;/span&gt;&lt;span style=&quot;background-color: transparent; color: light-dark(rgb(35, 47, 62), rgb(189, 199, 212)); font-weight: 400;&quot;&gt;and tables, grouped&amp;nbsp;&lt;/span&gt;&lt;/div&gt;&lt;div&gt;&lt;span style=&quot;background-color: transparent; color: light-dark(rgb(35, 47, 62), rgb(189, 199, 212)); font-weight: 400;&quot;&gt;by resource type, class, tags, etc.&lt;/span&gt;&lt;/div&gt;" style="sketch=0;points=[[0,0,0],[0.25,0,0],[0.5,0,0],[0.75,0,0],[1,0,0],[0,1,0],[0.25,1,0],[0.5,1,0],[0.75,1,0],[1,1,0],[0,0.25,0],[0,0.5,0],[0,0.75,0],[1,0.25,0],[1,0.5,0],[1,0.75,0]];outlineConnect=0;fontColor=#232F3E;fillColor=#7AA116;strokeColor=#ffffff;dashed=0;verticalLabelPosition=bottom;verticalAlign=top;align=center;html=1;fontSize=12;fontStyle=1;aspect=fixed;shape=mxgraph.aws4.resourceIcon;resIcon=mxgraph.aws4.cost_explorer;" parent="1" vertex="1">
          <mxGeometry x="3660" y="1760" width="78" height="78" as="geometry" />
        </mxCell>
        <mxCell id="GQwtv-Ke6I7whFhwhaPg-132" value="Budgets&lt;div&gt;&lt;span style=&quot;font-weight: normal;&quot;&gt;Configure alerts when service costs or usage, across accounts,&lt;/span&gt;&lt;/div&gt;&lt;div&gt;&lt;span style=&quot;font-weight: normal;&quot;&gt;and by multiple dimensions, including tags,&amp;nbsp;&lt;/span&gt;&lt;span style=&quot;background-color: transparent; color: light-dark(rgb(35, 47, 62), rgb(189, 199, 212)); font-weight: normal;&quot;&gt;exceed (or, are&amp;nbsp;&lt;/span&gt;&lt;span style=&quot;background-color: transparent; color: light-dark(rgb(35, 47, 62), rgb(189, 199, 212)); font-weight: normal;&quot;&gt;forecasted&lt;/span&gt;&lt;/div&gt;&lt;div&gt;&lt;span style=&quot;background-color: transparent; color: light-dark(rgb(35, 47, 62), rgb(189, 199, 212)); font-weight: normal;&quot;&gt;to exceed) pre-set budget targets&amp;nbsp;&lt;/span&gt;&lt;span style=&quot;background-color: transparent; color: light-dark(rgb(35, 47, 62), rgb(189, 199, 212)); font-weight: normal;&quot;&gt;or, when&amp;nbsp;&lt;/span&gt;&lt;span style=&quot;background-color: transparent; color: light-dark(rgb(35, 47, 62), rgb(189, 199, 212)); font-weight: normal;&quot;&gt;reserved&amp;nbsp;&lt;/span&gt;&lt;span style=&quot;background-color: transparent; color: light-dark(rgb(35, 47, 62), rgb(189, 199, 212)); font-weight: normal;&quot;&gt;instance&amp;nbsp;&lt;/span&gt;&lt;span style=&quot;background-color: transparent; color: light-dark(rgb(35, 47, 62), rgb(189, 199, 212)); font-weight: normal;&quot;&gt;utilisation&amp;nbsp;&lt;/span&gt;&lt;/div&gt;&lt;div&gt;&lt;span style=&quot;background-color: transparent; color: light-dark(rgb(35, 47, 62), rgb(189, 199, 212)); font-weight: normal;&quot;&gt;falls below defined&amp;nbsp;&lt;/span&gt;&lt;span style=&quot;background-color: transparent; color: light-dark(rgb(35, 47, 62), rgb(189, 199, 212)); font-weight: normal;&quot;&gt;thresholds, which are then send via email or published&lt;/span&gt;&lt;/div&gt;&lt;div&gt;&lt;span style=&quot;background-color: transparent; color: light-dark(rgb(35, 47, 62), rgb(189, 199, 212)); font-weight: normal;&quot;&gt;to SNS topics&lt;/span&gt;&lt;/div&gt;" style="sketch=0;points=[[0,0,0],[0.25,0,0],[0.5,0,0],[0.75,0,0],[1,0,0],[0,1,0],[0.25,1,0],[0.5,1,0],[0.75,1,0],[1,1,0],[0,0.25,0],[0,0.5,0],[0,0.75,0],[1,0.25,0],[1,0.5,0],[1,0.75,0]];outlineConnect=0;fontColor=#232F3E;fillColor=#7AA116;strokeColor=#ffffff;dashed=0;verticalLabelPosition=bottom;verticalAlign=top;align=center;html=1;fontSize=12;fontStyle=1;aspect=fixed;shape=mxgraph.aws4.resourceIcon;resIcon=mxgraph.aws4.budgets_2;" parent="1" vertex="1">
          <mxGeometry x="3940" y="1882" width="78" height="78" as="geometry" />
        </mxCell>
        <mxCell id="GQwtv-Ke6I7whFhwhaPg-133" value="Cost &amp;amp; Usage Report&lt;div&gt;&lt;span style=&quot;font-weight: 400;&quot;&gt;Lists usage and cost by service category and tags into hourly and&lt;/span&gt;&lt;/div&gt;&lt;div&gt;&lt;span style=&quot;font-weight: 400;&quot;&gt;daily line items and, can be customised to aggregate usage into&lt;/span&gt;&lt;/div&gt;&lt;div&gt;&lt;span style=&quot;font-weight: 400;&quot;&gt;daily and monthly usage&lt;/span&gt;&lt;/div&gt;" style="sketch=0;points=[[0,0,0],[0.25,0,0],[0.5,0,0],[0.75,0,0],[1,0,0],[0,1,0],[0.25,1,0],[0.5,1,0],[0.75,1,0],[1,1,0],[0,0.25,0],[0,0.5,0],[0,0.75,0],[1,0.25,0],[1,0.5,0],[1,0.75,0]];outlineConnect=0;fontColor=#232F3E;fillColor=#7AA116;strokeColor=#ffffff;dashed=0;verticalLabelPosition=bottom;verticalAlign=top;align=center;html=1;fontSize=12;fontStyle=1;aspect=fixed;shape=mxgraph.aws4.resourceIcon;resIcon=mxgraph.aws4.cost_and_usage_report;" parent="1" vertex="1">
          <mxGeometry x="4409" y="1541" width="78" height="78" as="geometry" />
        </mxCell>
        <mxCell id="GQwtv-Ke6I7whFhwhaPg-134" value="Reserved Instance Reporting&lt;div&gt;&lt;span style=&quot;font-weight: normal;&quot;&gt;The RI Utilisation report and RI Coverage report allows you to&lt;/span&gt;&lt;/div&gt;&lt;div&gt;&lt;span style=&quot;font-weight: normal;&quot;&gt;visualise RI data at an aggregate or individual subscription level&lt;/span&gt;&lt;/div&gt;&lt;div&gt;&lt;span style=&quot;font-weight: normal;&quot;&gt;(Cost &amp;amp; Usage Report is more detailed, according to Whitepaper)&lt;/span&gt;&lt;/div&gt;" style="sketch=0;points=[[0,0,0],[0.25,0,0],[0.5,0,0],[0.75,0,0],[1,0,0],[0,1,0],[0.25,1,0],[0.5,1,0],[0.75,1,0],[1,1,0],[0,0.25,0],[0,0.5,0],[0,0.75,0],[1,0.25,0],[1,0.5,0],[1,0.75,0]];outlineConnect=0;fontColor=#232F3E;fillColor=#7AA116;strokeColor=#ffffff;dashed=0;verticalLabelPosition=bottom;verticalAlign=top;align=center;html=1;fontSize=12;fontStyle=1;aspect=fixed;shape=mxgraph.aws4.resourceIcon;resIcon=mxgraph.aws4.reserved_instance_reporting;" parent="1" vertex="1">
          <mxGeometry x="4389" y="1730" width="78" height="78" as="geometry" />
        </mxCell>
        <mxCell id="GQwtv-Ke6I7whFhwhaPg-135" value="Savings Plans&lt;div&gt;&lt;span style=&quot;font-weight: normal;&quot;&gt;Offers discounts in exchange for committing to some $/hour amount&lt;/span&gt;&lt;/div&gt;&lt;div&gt;&lt;span style=&quot;font-weight: normal;&quot;&gt;over either a 1- or 3-year period for the services (a) Compute (EC2,&amp;nbsp;&lt;/span&gt;&lt;/div&gt;&lt;div&gt;&lt;span style=&quot;font-weight: normal;&quot;&gt;Lambda, Fargate),&amp;nbsp;&lt;/span&gt;&lt;span style=&quot;font-weight: normal; background-color: transparent; color: light-dark(rgb(35, 47, 62), rgb(189, 199, 212));&quot;&gt;(b) EC2 or (c) SageMaker AI&lt;/span&gt;&lt;/div&gt;" style="sketch=0;points=[[0,0,0],[0.25,0,0],[0.5,0,0],[0.75,0,0],[1,0,0],[0,1,0],[0.25,1,0],[0.5,1,0],[0.75,1,0],[1,1,0],[0,0.25,0],[0,0.5,0],[0,0.75,0],[1,0.25,0],[1,0.5,0],[1,0.75,0]];outlineConnect=0;fontColor=#232F3E;fillColor=#7AA116;strokeColor=#ffffff;dashed=0;verticalLabelPosition=bottom;verticalAlign=top;align=center;html=1;fontSize=12;fontStyle=1;aspect=fixed;shape=mxgraph.aws4.resourceIcon;resIcon=mxgraph.aws4.savings_plans;" parent="1" vertex="1">
          <mxGeometry x="4382" y="1920" width="78" height="78" as="geometry" />
        </mxCell>
        <mxCell id="GQwtv-Ke6I7whFhwhaPg-136" value="Billing Conductor&lt;div&gt;&lt;span style=&quot;font-weight: normal;&quot;&gt;Works with AWS Organisations and allows you to segment your&lt;/span&gt;&lt;/div&gt;&lt;div&gt;&lt;span style=&quot;font-weight: normal;&quot;&gt;accounts into logical groups by customer or business unit and, applies&lt;/span&gt;&lt;/div&gt;&lt;div&gt;&lt;span style=&quot;font-weight: normal;&quot;&gt;billing plan and discounts to each group. This information will also&lt;/span&gt;&lt;/div&gt;&lt;div&gt;&lt;span style=&quot;font-weight: normal;&quot;&gt;appear accordingly on those accounts&#39; Cost Explorer&lt;/span&gt;&lt;/div&gt;" style="sketch=0;points=[[0,0,0],[0.25,0,0],[0.5,0,0],[0.75,0,0],[1,0,0],[0,1,0],[0.25,1,0],[0.5,1,0],[0.75,1,0],[1,1,0],[0,0.25,0],[0,0.5,0],[0,0.75,0],[1,0.25,0],[1,0.5,0],[1,0.75,0]];outlineConnect=0;fontColor=#232F3E;fillColor=#7AA116;strokeColor=#ffffff;dashed=0;verticalLabelPosition=bottom;verticalAlign=top;align=center;html=1;fontSize=12;fontStyle=1;aspect=fixed;shape=mxgraph.aws4.resourceIcon;resIcon=mxgraph.aws4.custom_billing_manager;" parent="1" vertex="1">
          <mxGeometry x="4010" y="1611" width="78" height="78" as="geometry" />
        </mxCell>
        <mxCell id="GQwtv-Ke6I7whFhwhaPg-142" value="EC2 Auto Scaling&lt;div&gt;&lt;span style=&quot;font-weight: normal;&quot;&gt;Facilitates adding and removing of EC2 instances through&lt;/span&gt;&lt;/div&gt;&lt;div&gt;&lt;span style=&quot;font-weight: normal;&quot;&gt;dynamic and predictive scaling policies while Fleet Management&lt;/span&gt;&lt;/div&gt;&lt;div&gt;&lt;span style=&quot;font-weight: normal;&quot;&gt;features help maintain health and availability&lt;/span&gt;&lt;/div&gt;" style="sketch=0;points=[[0,0,0],[0.25,0,0],[0.5,0,0],[0.75,0,0],[1,0,0],[0,1,0],[0.25,1,0],[0.5,1,0],[0.75,1,0],[1,1,0],[0,0.25,0],[0,0.5,0],[0,0.75,0],[1,0.25,0],[1,0.5,0],[1,0.75,0]];outlineConnect=0;fontColor=#232F3E;fillColor=#ED7100;strokeColor=#ffffff;dashed=0;verticalLabelPosition=bottom;verticalAlign=top;align=center;html=1;fontSize=12;fontStyle=1;aspect=fixed;shape=mxgraph.aws4.resourceIcon;resIcon=mxgraph.aws4.auto_scaling2;" parent="1" vertex="1">
          <mxGeometry x="421" y="2680" width="78" height="78" as="geometry" />
        </mxCell>
        <mxCell id="GQwtv-Ke6I7whFhwhaPg-143" value="EC2 Image Builder&lt;div&gt;&lt;span style=&quot;font-weight: normal;&quot;&gt;Simplifies management &amp;amp; maintenance of VMs and&lt;/span&gt;&lt;/div&gt;&lt;div&gt;&lt;span style=&quot;font-weight: normal;&quot;&gt;container images for use on AWS and on-prem through&lt;/span&gt;&lt;/div&gt;&lt;div&gt;&lt;span style=&quot;font-weight: normal;&quot;&gt;a simple UI, built-in automation and AWS-provided security.&lt;/span&gt;&lt;/div&gt;&lt;div&gt;&lt;span style=&quot;font-weight: normal;&quot;&gt;You pay only for the resources used to create, store and share images&lt;/span&gt;&lt;/div&gt;" style="sketch=0;points=[[0,0,0],[0.25,0,0],[0.5,0,0],[0.75,0,0],[1,0,0],[0,1,0],[0.25,1,0],[0.5,1,0],[0.75,1,0],[1,1,0],[0,0.25,0],[0,0.5,0],[0,0.75,0],[1,0.25,0],[1,0.5,0],[1,0.75,0]];outlineConnect=0;fontColor=#232F3E;fillColor=#ED7100;strokeColor=#ffffff;dashed=0;verticalLabelPosition=bottom;verticalAlign=top;align=center;html=1;fontSize=12;fontStyle=1;aspect=fixed;shape=mxgraph.aws4.resourceIcon;resIcon=mxgraph.aws4.ec2_image_builder;" parent="1" vertex="1">
          <mxGeometry x="750" y="2680" width="78" height="78" as="geometry" />
        </mxCell>
        <mxCell id="GQwtv-Ke6I7whFhwhaPg-144" value="Lightsail&lt;div&gt;&lt;span style=&quot;font-weight: normal;&quot;&gt;Offers a unified UI that bundles the essential AWS services&lt;/span&gt;&lt;/div&gt;&lt;div&gt;&lt;span style=&quot;font-weight: normal;&quot;&gt;required to launch and host web applications which include&amp;nbsp;&lt;/span&gt;&lt;/div&gt;&lt;div&gt;&lt;span style=&quot;font-weight: normal;&quot;&gt;instances, databases, storage, network, domain &amp;amp; DNS and&lt;/span&gt;&lt;/div&gt;&lt;div&gt;&lt;span style=&quot;font-weight: normal;&quot;&gt;instance snapshots&lt;/span&gt;&lt;/div&gt;" style="sketch=0;points=[[0,0,0],[0.25,0,0],[0.5,0,0],[0.75,0,0],[1,0,0],[0,1,0],[0.25,1,0],[0.5,1,0],[0.75,1,0],[1,1,0],[0,0.25,0],[0,0.5,0],[0,0.75,0],[1,0.25,0],[1,0.5,0],[1,0.75,0]];outlineConnect=0;fontColor=#232F3E;fillColor=#ED7100;strokeColor=#ffffff;dashed=0;verticalLabelPosition=bottom;verticalAlign=top;align=center;html=1;fontSize=12;fontStyle=1;aspect=fixed;shape=mxgraph.aws4.resourceIcon;resIcon=mxgraph.aws4.lightsail;" parent="1" vertex="1">
          <mxGeometry x="1138" y="2680" width="78" height="78" as="geometry" />
        </mxCell>
        <mxCell id="GQwtv-Ke6I7whFhwhaPg-145" value="&lt;font style=&quot;color: light-dark(rgb(0, 0, 0), rgb(189, 199, 212));&quot;&gt;Amazon Linux 2023 (AL2023)&lt;br&gt;&lt;span style=&quot;font-weight: normal;&quot;&gt;A custom version of Linux that already integrate with various&lt;/span&gt;&lt;/font&gt;&lt;div&gt;&lt;font style=&quot;color: light-dark(rgb(0, 0, 0), rgb(189, 199, 212));&quot;&gt;&lt;span style=&quot;font-weight: normal;&quot;&gt;AWS services and is optimised for Graviton-based instance&amp;nbsp;&lt;/span&gt;&lt;/font&gt;&lt;/div&gt;" style="shadow=0;dashed=0;html=1;strokeColor=none;fillColor=light-dark(#EF8F21,#D86D0C);labelPosition=center;verticalLabelPosition=bottom;verticalAlign=top;align=center;outlineConnect=0;shape=mxgraph.veeam.linux;fontStyle=1;fillStyle=auto;gradientColor=none;" parent="1" vertex="1">
          <mxGeometry x="1440" y="2433" width="80" height="78" as="geometry" />
        </mxCell>
        <mxCell id="GQwtv-Ke6I7whFhwhaPg-146" value="App Runner&lt;div&gt;&lt;span style=&quot;font-weight: normal;&quot;&gt;Offers a unified UI that bundles essential AWS services&lt;/span&gt;&lt;/div&gt;&lt;div&gt;&lt;span style=&quot;font-weight: normal;&quot;&gt;and so,&amp;nbsp;&lt;/span&gt;&lt;span style=&quot;font-weight: normal; background-color: transparent; color: light-dark(rgb(35, 47, 62), rgb(189, 199, 212));&quot;&gt;simplifies deployment, management, load balancing and&lt;/span&gt;&lt;/div&gt;&lt;div&gt;&lt;span style=&quot;font-weight: normal; background-color: transparent; color: light-dark(rgb(35, 47, 62), rgb(189, 199, 212));&quot;&gt;scaling of web&amp;nbsp;&lt;/span&gt;&lt;span style=&quot;background-color: transparent; color: light-dark(rgb(35, 47, 62), rgb(189, 199, 212)); font-weight: normal;&quot;&gt;applications and APIs&lt;/span&gt;&lt;/div&gt;" style="sketch=0;points=[[0,0,0],[0.25,0,0],[0.5,0,0],[0.75,0,0],[1,0,0],[0,1,0],[0.25,1,0],[0.5,1,0],[0.75,1,0],[1,1,0],[0,0.25,0],[0,0.5,0],[0,0.75,0],[1,0.25,0],[1,0.5,0],[1,0.75,0]];outlineConnect=0;fontColor=#232F3E;fillColor=#ED7100;strokeColor=#ffffff;dashed=0;verticalLabelPosition=bottom;verticalAlign=top;align=center;html=1;fontSize=12;fontStyle=1;aspect=fixed;shape=mxgraph.aws4.resourceIcon;resIcon=mxgraph.aws4.app_runner;" parent="1" vertex="1">
          <mxGeometry x="421" y="2850" width="78" height="78" as="geometry" />
        </mxCell>
        <mxCell id="GQwtv-Ke6I7whFhwhaPg-197" value="Can run on EC2" style="edgeStyle=none;curved=1;rounded=0;orthogonalLoop=1;jettySize=auto;html=1;fontSize=12;startSize=8;endSize=8;" parent="1" source="GQwtv-Ke6I7whFhwhaPg-147" target="GQwtv-Ke6I7whFhwhaPg-141" edge="1">
          <mxGeometry relative="1" as="geometry" />
        </mxCell>
        <mxCell id="GQwtv-Ke6I7whFhwhaPg-198" value="Can run on Fargate" style="edgeStyle=none;curved=1;rounded=0;orthogonalLoop=1;jettySize=auto;html=1;fontSize=12;startSize=8;endSize=8;" parent="1" source="GQwtv-Ke6I7whFhwhaPg-147" target="GQwtv-Ke6I7whFhwhaPg-149" edge="1">
          <mxGeometry relative="1" as="geometry" />
        </mxCell>
        <mxCell id="GQwtv-Ke6I7whFhwhaPg-147" value="Batch&lt;div&gt;&lt;span style=&quot;font-weight: normal;&quot;&gt;Simplifies running vast numbers of batch processing jobs&lt;/span&gt;&lt;/div&gt;&lt;div&gt;&lt;span style=&quot;font-weight: normal;&quot;&gt;using EC2 or Fargate while AWS takes case of provisioning&lt;/span&gt;&lt;/div&gt;&lt;div&gt;&lt;span style=&quot;font-weight: normal;&quot;&gt;the optimal amount of compute resources&lt;/span&gt;&lt;/div&gt;" style="sketch=0;points=[[0,0,0],[0.25,0,0],[0.5,0,0],[0.75,0,0],[1,0,0],[0,1,0],[0.25,1,0],[0.5,1,0],[0.75,1,0],[1,1,0],[0,0.25,0],[0,0.5,0],[0,0.75,0],[1,0.25,0],[1,0.5,0],[1,0.75,0]];outlineConnect=0;fontColor=#232F3E;fillColor=#ED7100;strokeColor=#ffffff;dashed=0;verticalLabelPosition=bottom;verticalAlign=top;align=center;html=1;fontSize=12;fontStyle=1;aspect=fixed;shape=mxgraph.aws4.resourceIcon;resIcon=mxgraph.aws4.batch;" parent="1" vertex="1">
          <mxGeometry x="750" y="2860" width="78" height="78" as="geometry" />
        </mxCell>
        <mxCell id="GQwtv-Ke6I7whFhwhaPg-148" value="Elastic Beanstalk&lt;div&gt;&lt;span style=&quot;font-weight: 400;&quot;&gt;Offers a unified UI that bundles essential AWS services required&lt;/span&gt;&lt;/div&gt;&lt;div&gt;&lt;span style=&quot;font-weight: 400;&quot;&gt;to launch, host, load balance and scale web applications on web&lt;/span&gt;&lt;/div&gt;&lt;div&gt;&lt;span style=&quot;font-weight: 400;&quot;&gt;servers of you choice&lt;/span&gt;&lt;/div&gt;" style="sketch=0;points=[[0,0,0],[0.25,0,0],[0.5,0,0],[0.75,0,0],[1,0,0],[0,1,0],[0.25,1,0],[0.5,1,0],[0.75,1,0],[1,1,0],[0,0.25,0],[0,0.5,0],[0,0.75,0],[1,0.25,0],[1,0.5,0],[1,0.75,0]];outlineConnect=0;fontColor=#232F3E;fillColor=#ED7100;strokeColor=#ffffff;dashed=0;verticalLabelPosition=bottom;verticalAlign=top;align=center;html=1;fontSize=12;fontStyle=1;aspect=fixed;shape=mxgraph.aws4.resourceIcon;resIcon=mxgraph.aws4.elastic_beanstalk;" parent="1" vertex="1">
          <mxGeometry x="1138" y="2860" width="78" height="78" as="geometry" />
        </mxCell>
        <mxCell id="GQwtv-Ke6I7whFhwhaPg-149" value="Fargate&lt;div&gt;&lt;span style=&quot;font-weight: normal;&quot;&gt;Use ECS and choose Fargate launch type to enable serverless&lt;/span&gt;&lt;/div&gt;&lt;div&gt;&lt;span style=&quot;font-weight: normal;&quot;&gt;ECS operation, removing the need for instance and OS maintenance&lt;/span&gt;&lt;/div&gt;" style="sketch=0;points=[[0,0,0],[0.25,0,0],[0.5,0,0],[0.75,0,0],[1,0,0],[0,1,0],[0.25,1,0],[0.5,1,0],[0.75,1,0],[1,1,0],[0,0.25,0],[0,0.5,0],[0,0.75,0],[1,0.25,0],[1,0.5,0],[1,0.75,0]];outlineConnect=0;fontColor=#232F3E;fillColor=#ED7100;strokeColor=#ffffff;dashed=0;verticalLabelPosition=bottom;verticalAlign=top;align=center;html=1;fontSize=12;fontStyle=1;aspect=fixed;shape=mxgraph.aws4.resourceIcon;resIcon=mxgraph.aws4.fargate;" parent="1" vertex="1">
          <mxGeometry x="1440" y="2614" width="78" height="78" as="geometry" />
        </mxCell>
        <mxCell id="GQwtv-Ke6I7whFhwhaPg-150" value="Serverless Application Repository&lt;div&gt;&lt;span style=&quot;font-weight: normal;&quot;&gt;Deploy code samples, components and complete applications&lt;/span&gt;&lt;/div&gt;&lt;div&gt;&lt;span style=&quot;font-weight: normal;&quot;&gt;for common use cases for use by teams, organisations and&lt;/span&gt;&lt;/div&gt;&lt;div&gt;&lt;span style=&quot;font-weight: normal;&quot;&gt;the community at large. No charge for the repo but,&lt;/span&gt;&lt;/div&gt;&lt;div&gt;&lt;span style=&quot;font-weight: normal;&quot;&gt;you&#39;re charged for any resources in the deployed apps&lt;/span&gt;&lt;/div&gt;" style="sketch=0;points=[[0,0,0],[0.25,0,0],[0.5,0,0],[0.75,0,0],[1,0,0],[0,1,0],[0.25,1,0],[0.5,1,0],[0.75,1,0],[1,1,0],[0,0.25,0],[0,0.5,0],[0,0.75,0],[1,0.25,0],[1,0.5,0],[1,0.75,0]];outlineConnect=0;fontColor=#232F3E;fillColor=#ED7100;strokeColor=#ffffff;dashed=0;verticalLabelPosition=bottom;verticalAlign=top;align=center;html=1;fontSize=12;fontStyle=1;aspect=fixed;shape=mxgraph.aws4.resourceIcon;resIcon=mxgraph.aws4.serverless_application_repository;" parent="1" vertex="1">
          <mxGeometry x="760" y="3028" width="78" height="78" as="geometry" />
        </mxCell>
        <mxCell id="GQwtv-Ke6I7whFhwhaPg-151" value="Outposts&lt;div&gt;&lt;span style=&quot;font-weight: 400;&quot;&gt;A physical device owned and managed by AWS and installed on-prem&lt;/span&gt;&lt;/div&gt;&lt;div&gt;&lt;span style=&quot;font-weight: 400; background-color: transparent; color: light-dark(rgb(35, 47, 62), rgb(189, 199, 212));&quot;&gt;brings the AWS APIs, tools, hardware and other functionality to all your&lt;/span&gt;&lt;/div&gt;&lt;div&gt;&lt;span style=&quot;font-weight: 400; background-color: transparent; color: light-dark(rgb(35, 47, 62), rgb(189, 199, 212));&quot;&gt;data centres for the sake of latency or data residency requirements&lt;/span&gt;&lt;/div&gt;" style="sketch=0;points=[[0,0,0],[0.25,0,0],[0.5,0,0],[0.75,0,0],[1,0,0],[0,1,0],[0.25,1,0],[0.5,1,0],[0.75,1,0],[1,1,0],[0,0.25,0],[0,0.5,0],[0,0.75,0],[1,0.25,0],[1,0.5,0],[1,0.75,0]];outlineConnect=0;fontColor=#232F3E;fillColor=#ED7100;strokeColor=#ffffff;dashed=0;verticalLabelPosition=bottom;verticalAlign=top;align=center;html=1;fontSize=12;fontStyle=1;aspect=fixed;shape=mxgraph.aws4.resourceIcon;resIcon=mxgraph.aws4.outposts;" parent="1" vertex="1">
          <mxGeometry x="1138" y="3028" width="78" height="78" as="geometry" />
        </mxCell>
        <mxCell id="GQwtv-Ke6I7whFhwhaPg-152" value="Wavelength&lt;div&gt;&lt;span style=&quot;font-weight: normal;&quot;&gt;Physical devices installed at the edge of 5G networks&lt;/span&gt;&lt;/div&gt;&lt;div&gt;&lt;span style=&quot;font-weight: normal;&quot;&gt;that embed AWS compute and storage right into 5G&lt;/span&gt;&lt;/div&gt;&lt;div&gt;&lt;span style=&quot;font-weight: normal;&quot;&gt;data centres making it low latency and secure&lt;/span&gt;&lt;/div&gt;" style="sketch=0;points=[[0,0,0],[0.25,0,0],[0.5,0,0],[0.75,0,0],[1,0,0],[0,1,0],[0.25,1,0],[0.5,1,0],[0.75,1,0],[1,1,0],[0,0.25,0],[0,0.5,0],[0,0.75,0],[1,0.25,0],[1,0.5,0],[1,0.75,0]];outlineConnect=0;fontColor=#232F3E;fillColor=#ED7100;strokeColor=#ffffff;dashed=0;verticalLabelPosition=bottom;verticalAlign=top;align=center;html=1;fontSize=12;fontStyle=1;aspect=fixed;shape=mxgraph.aws4.resourceIcon;resIcon=mxgraph.aws4.wavelength;" parent="1" vertex="1">
          <mxGeometry x="1430" y="2782" width="78" height="78" as="geometry" />
        </mxCell>
        <mxCell id="GQwtv-Ke6I7whFhwhaPg-153" value="VMware Cloud on AWS&lt;div&gt;&lt;span style=&quot;font-weight: normal;&quot;&gt;Designed for VMware vSphere to simplify migration and keep them relevant&lt;/span&gt;&lt;/div&gt;&lt;div&gt;&lt;span style=&quot;font-weight: 400;&quot;&gt;in the industry&lt;/span&gt;&lt;/div&gt;" style="sketch=0;points=[[0,0,0],[0.25,0,0],[0.5,0,0],[0.75,0,0],[1,0,0],[0,1,0],[0.25,1,0],[0.5,1,0],[0.75,1,0],[1,1,0],[0,0.25,0],[0,0.5,0],[0,0.75,0],[1,0.25,0],[1,0.5,0],[1,0.75,0]];outlineConnect=0;fontColor=#232F3E;fillColor=#ED7100;strokeColor=#ffffff;dashed=0;verticalLabelPosition=bottom;verticalAlign=top;align=center;html=1;fontSize=12;fontStyle=1;aspect=fixed;shape=mxgraph.aws4.resourceIcon;resIcon=mxgraph.aws4.vmware_cloud_on_aws;" parent="1" vertex="1">
          <mxGeometry x="1423" y="2950" width="78" height="78" as="geometry" />
        </mxCell>
        <mxCell id="GQwtv-Ke6I7whFhwhaPg-154" value="Spot&lt;div&gt;&lt;span style=&quot;font-weight: normal;&quot;&gt;Receive unused EC2&amp;nbsp;&lt;/span&gt;&lt;span style=&quot;font-weight: normal; background-color: transparent; color: light-dark(rgb(35, 47, 62), rgb(189, 199, 212));&quot;&gt;compute&amp;nbsp;&lt;/span&gt;&lt;/div&gt;&lt;div&gt;&lt;span style=&quot;font-weight: normal; background-color: transparent; color: light-dark(rgb(35, 47, 62), rgb(189, 199, 212));&quot;&gt;capacity at&amp;nbsp;&lt;/span&gt;&lt;span style=&quot;font-weight: normal; background-color: transparent; color: light-dark(rgb(35, 47, 62), rgb(189, 199, 212));&quot;&gt;up to 90% discount&amp;nbsp;&lt;/span&gt;&lt;/div&gt;&lt;div&gt;&lt;span style=&quot;font-weight: normal; background-color: transparent; color: light-dark(rgb(35, 47, 62), rgb(189, 199, 212));&quot;&gt;at the&amp;nbsp;&lt;/span&gt;&lt;span style=&quot;font-weight: normal; background-color: transparent; color: light-dark(rgb(35, 47, 62), rgb(189, 199, 212));&quot;&gt;risk of losing it with 2 minutes notice&lt;/span&gt;&lt;/div&gt;" style="outlineConnect=0;fontColor=#232F3E;gradientColor=none;fillColor=#ED7100;strokeColor=none;dashed=0;verticalLabelPosition=bottom;verticalAlign=top;align=center;html=1;fontSize=12;fontStyle=1;aspect=fixed;pointerEvents=1;shape=mxgraph.aws4.spot_instance;" parent="1" vertex="1">
          <mxGeometry x="590" y="2220" width="48" height="48" as="geometry" />
        </mxCell>
        <mxCell id="GQwtv-Ke6I7whFhwhaPg-155" value="On-demand&lt;div&gt;&lt;span style=&quot;font-weight: normal;&quot;&gt;Pay only for what you use&lt;/span&gt;&lt;/div&gt;&lt;div&gt;&lt;span style=&quot;font-weight: normal;&quot;&gt;per second or hour&lt;/span&gt;&lt;/div&gt;" style="outlineConnect=0;fontColor=#232F3E;gradientColor=none;fillColor=#ED7100;strokeColor=none;dashed=0;verticalLabelPosition=bottom;verticalAlign=top;align=center;html=1;fontSize=12;fontStyle=1;aspect=fixed;pointerEvents=1;shape=mxgraph.aws4.instance2;" parent="1" vertex="1">
          <mxGeometry x="402" y="2220" width="48" height="48" as="geometry" />
        </mxCell>
        <mxCell id="GQwtv-Ke6I7whFhwhaPg-156" value="Reserved&lt;div&gt;&lt;span style=&quot;font-weight: 400;&quot;&gt;Commit to a particular instance&amp;nbsp;&lt;/span&gt;&lt;span style=&quot;font-weight: 400; background-color: transparent; color: light-dark(rgb(35, 47, 62), rgb(189, 199, 212));&quot;&gt;config&lt;/span&gt;&lt;span style=&quot;font-weight: 400; background-color: transparent; color: light-dark(rgb(35, 47, 62), rgb(189, 199, 212));&quot;&gt;&amp;nbsp;&lt;/span&gt;&lt;span style=&quot;font-weight: 400; background-color: transparent; color: light-dark(rgb(35, 47, 62), rgb(189, 199, 212));&quot;&gt;with&lt;/span&gt;&lt;/div&gt;&lt;div&gt;&lt;span style=&quot;font-weight: 400; background-color: transparent; color: light-dark(rgb(35, 47, 62), rgb(189, 199, 212));&quot;&gt;limited&amp;nbsp;&lt;/span&gt;&lt;span style=&quot;background-color: transparent; color: light-dark(rgb(35, 47, 62), rgb(189, 199, 212)); font-weight: 400;&quot;&gt;options to make changes&amp;nbsp;&lt;/span&gt;&lt;span style=&quot;background-color: transparent; color: light-dark(rgb(35, 47, 62), rgb(189, 199, 212)); font-weight: 400;&quot;&gt;(optionally,&lt;/span&gt;&lt;/div&gt;&lt;div&gt;&lt;span style=&quot;background-color: transparent; color: light-dark(rgb(35, 47, 62), rgb(189, 199, 212)); font-weight: 400;&quot;&gt;convertible by&amp;nbsp;&lt;/span&gt;&lt;span style=&quot;background-color: transparent; color: light-dark(rgb(35, 47, 62), rgb(189, 199, 212)); font-weight: 400;&quot;&gt;exchanging it) at up&amp;nbsp;&lt;/span&gt;&lt;span style=&quot;background-color: transparent; color: light-dark(rgb(35, 47, 62), rgb(189, 199, 212)); font-weight: 400;&quot;&gt;to 72% discount&lt;/span&gt;&lt;/div&gt;" style="points=[[0,0,0],[0.25,0,0],[0.5,0,0],[0.75,0,0],[1,0,0],[0,1,0],[0.25,1,0],[0.5,1,0],[0.75,1,0],[1,1,0],[0,0.25,0],[0,0.5,0],[0,0.75,0],[1,0.25,0],[1,0.5,0],[1,0.75,0]];outlineConnect=0;fontColor=#232F3E;fillColor=none;strokeColor=light-dark(#FFFFFF,#D86D0C);dashed=0;verticalLabelPosition=bottom;verticalAlign=top;align=center;html=1;fontSize=12;fontStyle=1;aspect=fixed;shape=mxgraph.aws4.resourceIcon;resIcon=mxgraph.aws4.reserved_instance_reporting;strokeWidth=5;perimeterSpacing=0;shadow=0;" parent="1" vertex="1">
          <mxGeometry x="395.7" y="2340" width="60" height="60" as="geometry" />
        </mxCell>
        <mxCell id="GQwtv-Ke6I7whFhwhaPg-193" value="Managed from Billing and Cost Mmanagement" style="edgeStyle=none;curved=1;rounded=0;orthogonalLoop=1;jettySize=auto;html=1;fontSize=12;startSize=8;endSize=8;" parent="1" source="GQwtv-Ke6I7whFhwhaPg-163" target="GQwtv-Ke6I7whFhwhaPg-135" edge="1">
          <mxGeometry relative="1" as="geometry" />
        </mxCell>
        <mxCell id="GQwtv-Ke6I7whFhwhaPg-163" value="Savings Plans&lt;div&gt;&lt;span style=&quot;font-weight: normal;&quot;&gt;Offers discounts in exchange for committing to some $/hour amount&lt;/span&gt;&lt;/div&gt;&lt;div&gt;&lt;span style=&quot;font-weight: normal;&quot;&gt;over either a 1- or 3-year period for the services (a) Compute (EC2,&amp;nbsp;&lt;/span&gt;&lt;/div&gt;&lt;div&gt;&lt;span style=&quot;font-weight: normal;&quot;&gt;Lambda, Fargate),&amp;nbsp;&lt;/span&gt;&lt;span style=&quot;font-weight: normal; background-color: transparent; color: light-dark(rgb(35, 47, 62), rgb(189, 199, 212));&quot;&gt;(b) EC2 or (c) SageMaker AI&lt;/span&gt;&lt;/div&gt;" style="sketch=0;points=[[0,0,0],[0.25,0,0],[0.5,0,0],[0.75,0,0],[1,0,0],[0,1,0],[0.25,1,0],[0.5,1,0],[0.75,1,0],[1,1,0],[0,0.25,0],[0,0.5,0],[0,0.75,0],[1,0.25,0],[1,0.5,0],[1,0.75,0]];outlineConnect=0;fontColor=#232F3E;fillColor=none;strokeColor=light-dark(#FFFFFF,#D86D0C);dashed=0;verticalLabelPosition=bottom;verticalAlign=top;align=center;html=1;fontSize=12;fontStyle=1;aspect=fixed;shape=mxgraph.aws4.resourceIcon;resIcon=mxgraph.aws4.savings_plans;" parent="1" vertex="1">
          <mxGeometry x="504" y="2480" width="50" height="50" as="geometry" />
        </mxCell>
        <mxCell id="GQwtv-Ke6I7whFhwhaPg-183" value="General Purpose" style="group;labelPosition=center;verticalLabelPosition=bottom;align=center;verticalAlign=top;fontColor=light-dark(#000000,#BDC7D4);fontStyle=1" parent="1" vertex="1" connectable="0">
          <mxGeometry x="990" y="2420" width="148" height="48" as="geometry" />
        </mxCell>
        <mxCell id="GQwtv-Ke6I7whFhwhaPg-164" value="M" style="sketch=0;outlineConnect=0;fontColor=light-dark(#232F3E,#D86D0C);gradientColor=none;fillColor=#ED7100;strokeColor=none;dashed=0;verticalLabelPosition=middle;verticalAlign=middle;align=center;html=1;fontSize=16;fontStyle=1;aspect=fixed;pointerEvents=1;shape=mxgraph.aws4.instance2;fontFamily=Tahoma;labelPosition=center;" parent="GQwtv-Ke6I7whFhwhaPg-183" vertex="1">
          <mxGeometry x="50" width="48" height="48" as="geometry" />
        </mxCell>
        <mxCell id="GQwtv-Ke6I7whFhwhaPg-165" value="Mac" style="sketch=0;outlineConnect=0;fontColor=light-dark(#232F3E,#D86D0C);gradientColor=none;fillColor=#ED7100;strokeColor=none;dashed=0;verticalLabelPosition=middle;verticalAlign=middle;align=center;html=1;fontSize=16;fontStyle=1;aspect=fixed;pointerEvents=1;shape=mxgraph.aws4.instance2;fontFamily=Tahoma;labelPosition=center;" parent="GQwtv-Ke6I7whFhwhaPg-183" vertex="1">
          <mxGeometry x="100" width="48" height="48" as="geometry" />
        </mxCell>
        <mxCell id="GQwtv-Ke6I7whFhwhaPg-166" value="T" style="sketch=0;outlineConnect=0;fontColor=light-dark(#232F3E,#D86D0C);gradientColor=none;fillColor=#ED7100;strokeColor=none;dashed=0;verticalLabelPosition=middle;verticalAlign=middle;align=center;html=1;fontSize=16;fontStyle=1;aspect=fixed;pointerEvents=1;shape=mxgraph.aws4.instance2;fontFamily=Tahoma;labelPosition=center;" parent="GQwtv-Ke6I7whFhwhaPg-183" vertex="1">
          <mxGeometry width="48" height="48" as="geometry" />
        </mxCell>
        <mxCell id="GQwtv-Ke6I7whFhwhaPg-186" value="Compute Optimised" style="group;fontColor=light-dark(#000000,#BDC7D4);labelPosition=center;verticalLabelPosition=bottom;align=center;verticalAlign=top;fontStyle=1" parent="1" vertex="1" connectable="0">
          <mxGeometry x="1117" y="2340" width="51" height="51" as="geometry" />
        </mxCell>
        <mxCell id="GQwtv-Ke6I7whFhwhaPg-167" value="C" style="sketch=0;outlineConnect=0;fontColor=light-dark(#232F3E,#D86D0C);gradientColor=none;fillColor=#ED7100;strokeColor=none;dashed=0;verticalLabelPosition=middle;verticalAlign=middle;align=center;html=1;fontSize=16;fontStyle=1;aspect=fixed;pointerEvents=1;shape=mxgraph.aws4.instance2;fontFamily=Tahoma;labelPosition=center;" parent="GQwtv-Ke6I7whFhwhaPg-186" vertex="1">
          <mxGeometry x="2" y="2" width="48" height="48" as="geometry" />
        </mxCell>
        <mxCell id="GQwtv-Ke6I7whFhwhaPg-185" value="" style="fillColor=none;strokeColor=none;dashed=1;verticalAlign=top;fontStyle=1;fontColor=#5A6C86;whiteSpace=wrap;html=1;" parent="GQwtv-Ke6I7whFhwhaPg-186" vertex="1">
          <mxGeometry width="51" height="51" as="geometry" />
        </mxCell>
        <mxCell id="GQwtv-Ke6I7whFhwhaPg-187" value="Memory Optimised" style="group;fontColor=light-dark(#000000,#BDC7D4);fontStyle=1;labelPosition=center;verticalLabelPosition=bottom;align=center;verticalAlign=top;" parent="1" vertex="1" connectable="0">
          <mxGeometry x="800" y="2340" width="198" height="48" as="geometry" />
        </mxCell>
        <mxCell id="GQwtv-Ke6I7whFhwhaPg-168" value="R" style="sketch=0;outlineConnect=0;fontColor=light-dark(#232F3E,#D86D0C);gradientColor=none;fillColor=#ED7100;strokeColor=none;dashed=0;verticalLabelPosition=middle;verticalAlign=middle;align=center;html=1;fontSize=16;fontStyle=1;aspect=fixed;pointerEvents=1;shape=mxgraph.aws4.instance2;fontFamily=Tahoma;labelPosition=center;" parent="GQwtv-Ke6I7whFhwhaPg-187" vertex="1">
          <mxGeometry x="50" width="48" height="48" as="geometry" />
        </mxCell>
        <mxCell id="GQwtv-Ke6I7whFhwhaPg-169" value="U" style="sketch=0;outlineConnect=0;fontColor=light-dark(#232F3E,#D86D0C);gradientColor=none;fillColor=#ED7100;strokeColor=none;dashed=0;verticalLabelPosition=middle;verticalAlign=middle;align=center;html=1;fontSize=16;fontStyle=1;aspect=fixed;pointerEvents=1;shape=mxgraph.aws4.instance2;fontFamily=Tahoma;labelPosition=center;" parent="GQwtv-Ke6I7whFhwhaPg-187" vertex="1">
          <mxGeometry x="100" width="48" height="48" as="geometry" />
        </mxCell>
        <mxCell id="GQwtv-Ke6I7whFhwhaPg-170" value="X" style="sketch=0;outlineConnect=0;fontColor=light-dark(#232F3E,#D86D0C);gradientColor=none;fillColor=#ED7100;strokeColor=none;dashed=0;verticalLabelPosition=middle;verticalAlign=middle;align=center;html=1;fontSize=16;fontStyle=1;aspect=fixed;pointerEvents=1;shape=mxgraph.aws4.instance2;fontFamily=Tahoma;labelPosition=center;" parent="GQwtv-Ke6I7whFhwhaPg-187" vertex="1">
          <mxGeometry width="48" height="48" as="geometry" />
        </mxCell>
        <mxCell id="GQwtv-Ke6I7whFhwhaPg-171" value="z" style="sketch=0;outlineConnect=0;fontColor=light-dark(#232F3E,#D86D0C);gradientColor=none;fillColor=#ED7100;strokeColor=none;dashed=0;verticalLabelPosition=middle;verticalAlign=middle;align=center;html=1;fontSize=16;fontStyle=1;aspect=fixed;pointerEvents=1;shape=mxgraph.aws4.instance2;fontFamily=Tahoma;labelPosition=center;" parent="GQwtv-Ke6I7whFhwhaPg-187" vertex="1">
          <mxGeometry x="150" width="48" height="48" as="geometry" />
        </mxCell>
        <mxCell id="GQwtv-Ke6I7whFhwhaPg-188" value="Storage Optimised" style="group;fontColor=light-dark(#000000,#BDC7D4);fontStyle=1;labelPosition=center;verticalLabelPosition=bottom;align=center;verticalAlign=top;" parent="1" vertex="1" connectable="0">
          <mxGeometry x="800" y="2420" width="148" height="48" as="geometry" />
        </mxCell>
        <mxCell id="GQwtv-Ke6I7whFhwhaPg-172" value="D" style="sketch=0;outlineConnect=0;fontColor=light-dark(#232F3E,#D86D0C);gradientColor=none;fillColor=#ED7100;strokeColor=none;dashed=0;verticalLabelPosition=middle;verticalAlign=middle;align=center;html=1;fontSize=16;fontStyle=1;aspect=fixed;pointerEvents=1;shape=mxgraph.aws4.instance2;fontFamily=Tahoma;labelPosition=center;" parent="GQwtv-Ke6I7whFhwhaPg-188" vertex="1">
          <mxGeometry x="50" width="48" height="48" as="geometry" />
        </mxCell>
        <mxCell id="GQwtv-Ke6I7whFhwhaPg-173" value="H" style="sketch=0;outlineConnect=0;fontColor=light-dark(#232F3E,#D86D0C);gradientColor=none;fillColor=#ED7100;strokeColor=none;dashed=0;verticalLabelPosition=middle;verticalAlign=middle;align=center;html=1;fontSize=16;fontStyle=1;aspect=fixed;pointerEvents=1;shape=mxgraph.aws4.instance2;fontFamily=Tahoma;labelPosition=center;" parent="GQwtv-Ke6I7whFhwhaPg-188" vertex="1">
          <mxGeometry x="100" width="48" height="48" as="geometry" />
        </mxCell>
        <mxCell id="GQwtv-Ke6I7whFhwhaPg-174" value="I" style="sketch=0;outlineConnect=0;fontColor=light-dark(#232F3E,#D86D0C);gradientColor=none;fillColor=#ED7100;strokeColor=none;dashed=0;verticalLabelPosition=middle;verticalAlign=middle;align=center;html=1;fontSize=16;fontStyle=1;aspect=fixed;pointerEvents=1;shape=mxgraph.aws4.instance2;fontFamily=Tahoma;labelPosition=center;" parent="GQwtv-Ke6I7whFhwhaPg-188" vertex="1">
          <mxGeometry width="48" height="48" as="geometry" />
        </mxCell>
        <mxCell id="GQwtv-Ke6I7whFhwhaPg-189" value="Accelerated Computing" style="group;fontColor=light-dark(#000000,#BDC7D4);labelPosition=center;verticalLabelPosition=bottom;align=center;verticalAlign=top;fontStyle=1" parent="1" vertex="1" connectable="0">
          <mxGeometry x="800" y="2500" width="348" height="48" as="geometry" />
        </mxCell>
        <mxCell id="GQwtv-Ke6I7whFhwhaPg-175" value="DL" style="sketch=0;outlineConnect=0;fontColor=light-dark(#232F3E,#D86D0C);gradientColor=none;fillColor=#ED7100;strokeColor=none;dashed=0;verticalLabelPosition=middle;verticalAlign=middle;align=center;html=1;fontSize=16;fontStyle=1;aspect=fixed;pointerEvents=1;shape=mxgraph.aws4.instance2;fontFamily=Tahoma;labelPosition=center;" parent="GQwtv-Ke6I7whFhwhaPg-189" vertex="1">
          <mxGeometry x="150" width="48" height="48" as="geometry" />
        </mxCell>
        <mxCell id="GQwtv-Ke6I7whFhwhaPg-176" value="G" style="sketch=0;outlineConnect=0;fontColor=light-dark(#232F3E,#D86D0C);gradientColor=none;fillColor=#ED7100;strokeColor=none;dashed=0;verticalLabelPosition=middle;verticalAlign=middle;align=center;html=1;fontSize=16;fontStyle=1;aspect=fixed;pointerEvents=1;shape=mxgraph.aws4.instance2;fontFamily=Tahoma;labelPosition=center;" parent="GQwtv-Ke6I7whFhwhaPg-189" vertex="1">
          <mxGeometry x="200" width="48" height="48" as="geometry" />
        </mxCell>
        <mxCell id="GQwtv-Ke6I7whFhwhaPg-177" value="F" style="sketch=0;outlineConnect=0;fontColor=light-dark(#232F3E,#D86D0C);gradientColor=none;fillColor=#ED7100;strokeColor=none;dashed=0;verticalLabelPosition=middle;verticalAlign=middle;align=center;html=1;fontSize=16;fontStyle=1;aspect=fixed;pointerEvents=1;shape=mxgraph.aws4.instance2;fontFamily=Tahoma;labelPosition=center;" parent="GQwtv-Ke6I7whFhwhaPg-189" vertex="1">
          <mxGeometry x="100" width="48" height="48" as="geometry" />
        </mxCell>
        <mxCell id="GQwtv-Ke6I7whFhwhaPg-178" value="Inf" style="sketch=0;outlineConnect=0;fontColor=light-dark(#232F3E,#D86D0C);gradientColor=none;fillColor=#ED7100;strokeColor=none;dashed=0;verticalLabelPosition=middle;verticalAlign=middle;align=center;html=1;fontSize=16;fontStyle=1;aspect=fixed;pointerEvents=1;shape=mxgraph.aws4.instance2;fontFamily=Tahoma;labelPosition=center;" parent="GQwtv-Ke6I7whFhwhaPg-189" vertex="1">
          <mxGeometry x="250" width="48" height="48" as="geometry" />
        </mxCell>
        <mxCell id="GQwtv-Ke6I7whFhwhaPg-179" value="P" style="sketch=0;outlineConnect=0;fontColor=light-dark(#232F3E,#D86D0C);gradientColor=none;fillColor=#ED7100;strokeColor=none;dashed=0;verticalLabelPosition=middle;verticalAlign=middle;align=center;html=1;fontSize=16;fontStyle=1;aspect=fixed;pointerEvents=1;shape=mxgraph.aws4.instance2;fontFamily=Tahoma;labelPosition=center;" parent="GQwtv-Ke6I7whFhwhaPg-189" vertex="1">
          <mxGeometry x="50" width="48" height="48" as="geometry" />
        </mxCell>
        <mxCell id="GQwtv-Ke6I7whFhwhaPg-180" value="Trn" style="sketch=0;outlineConnect=0;fontColor=light-dark(#232F3E,#D86D0C);gradientColor=none;fillColor=#ED7100;strokeColor=none;dashed=0;verticalLabelPosition=middle;verticalAlign=middle;align=center;html=1;fontSize=16;fontStyle=1;aspect=fixed;pointerEvents=1;shape=mxgraph.aws4.instance2;fontFamily=Tahoma;labelPosition=center;" parent="GQwtv-Ke6I7whFhwhaPg-189" vertex="1">
          <mxGeometry width="48" height="48" as="geometry" />
        </mxCell>
        <mxCell id="GQwtv-Ke6I7whFhwhaPg-181" value="VT" style="sketch=0;outlineConnect=0;fontColor=light-dark(#232F3E,#D86D0C);gradientColor=none;fillColor=#ED7100;strokeColor=none;dashed=0;verticalLabelPosition=middle;verticalAlign=middle;align=center;html=1;fontSize=16;fontStyle=1;aspect=fixed;pointerEvents=1;shape=mxgraph.aws4.instance2;fontFamily=Tahoma;labelPosition=center;" parent="GQwtv-Ke6I7whFhwhaPg-189" vertex="1">
          <mxGeometry x="300" width="48" height="48" as="geometry" />
        </mxCell>
        <mxCell id="GQwtv-Ke6I7whFhwhaPg-191" value="High Performance Computing" style="group;fontStyle=1;labelPosition=center;verticalLabelPosition=top;align=center;verticalAlign=bottom;fontColor=light-dark(#000000,#BDC7D4);" parent="1" vertex="1" connectable="0">
          <mxGeometry x="1030" y="2340" width="50" height="51" as="geometry" />
        </mxCell>
        <mxCell id="GQwtv-Ke6I7whFhwhaPg-190" value="&lt;div&gt;&lt;br&gt;&lt;/div&gt;" style="fillColor=none;strokeColor=none;dashed=1;verticalAlign=top;fontStyle=1;fontColor=#5A6C86;whiteSpace=wrap;html=1;" parent="GQwtv-Ke6I7whFhwhaPg-191" vertex="1">
          <mxGeometry width="50" height="51" as="geometry" />
        </mxCell>
        <mxCell id="GQwtv-Ke6I7whFhwhaPg-182" value="Hpc" style="sketch=0;outlineConnect=0;fontColor=light-dark(#232F3E,#D86D0C);gradientColor=none;fillColor=#ED7100;strokeColor=none;dashed=0;verticalLabelPosition=middle;verticalAlign=middle;align=center;html=1;fontSize=16;fontStyle=1;aspect=fixed;pointerEvents=1;shape=mxgraph.aws4.instance2;fontFamily=Tahoma;labelPosition=center;" parent="GQwtv-Ke6I7whFhwhaPg-191" vertex="1">
          <mxGeometry x="1.5" y="2" width="48" height="48" as="geometry" />
        </mxCell>
        <mxCell id="GQwtv-Ke6I7whFhwhaPg-201" value="Customer Enablement" style="sketch=0;points=[[0,0,0],[0.25,0,0],[0.5,0,0],[0.75,0,0],[1,0,0],[0,1,0],[0.25,1,0],[0.5,1,0],[0.75,1,0],[1,1,0],[0,0.25,0],[0,0.5,0],[0,0.75,0],[1,0.25,0],[1,0.5,0],[1,0.75,0]];outlineConnect=0;fontColor=#232F3E;fillColor=#C925D1;strokeColor=#ffffff;dashed=0;verticalLabelPosition=middle;verticalAlign=middle;align=left;html=1;fontSize=48;fontStyle=1;aspect=fixed;shape=mxgraph.aws4.resourceIcon;resIcon=mxgraph.aws4.customer_enablement;labelPosition=right;spacingLeft=15;" parent="1" vertex="1">
          <mxGeometry x="90" y="80" width="120" height="120" as="geometry" />
        </mxCell>
        <mxCell id="GQwtv-Ke6I7whFhwhaPg-203" value="Activate for Startups&lt;div&gt;&lt;span style=&quot;font-weight: normal;&quot;&gt;Register to become an AWS Activate Member which gives&lt;/span&gt;&lt;/div&gt;&lt;div&gt;&lt;span style=&quot;font-weight: normal;&quot;&gt;you access to over 40 solution templates, expert curated&lt;/span&gt;&lt;/div&gt;&lt;div&gt;&lt;span style=&quot;font-weight: normal;&quot;&gt;tips, best practice training and the chance to apply for up&lt;/span&gt;&lt;/div&gt;&lt;div&gt;&lt;span style=&quot;font-weight: normal;&quot;&gt;to $100 000 in credits when you&#39;re ready to build&lt;/span&gt;&lt;/div&gt;" style="sketch=0;points=[[0,0,0],[0.25,0,0],[0.5,0,0],[0.75,0,0],[1,0,0],[0,1,0],[0.25,1,0],[0.5,1,0],[0.75,1,0],[1,1,0],[0,0.25,0],[0,0.5,0],[0,0.75,0],[1,0.25,0],[1,0.5,0],[1,0.75,0]];outlineConnect=0;fontColor=#232F3E;fillColor=#C925D1;strokeColor=#ffffff;dashed=0;verticalLabelPosition=bottom;verticalAlign=top;align=center;html=1;fontSize=12;fontStyle=1;aspect=fixed;shape=mxgraph.aws4.resourceIcon;resIcon=mxgraph.aws4.activate;" parent="1" vertex="1">
          <mxGeometry x="250" y="260" width="78" height="78" as="geometry" />
        </mxCell>
        <mxCell id="GQwtv-Ke6I7whFhwhaPg-204" value="IQ for Experts&lt;div&gt;&lt;span style=&quot;font-weight: 400;&quot;&gt;Connects AWS certified professionals with AWS customers&lt;/span&gt;&lt;/div&gt;&lt;div&gt;&lt;span style=&quot;font-weight: 400;&quot;&gt;looking for on-demand project work and allows them to&lt;/span&gt;&lt;/div&gt;&lt;div&gt;&lt;span style=&quot;font-weight: 400;&quot;&gt;collaborate in a secure workspace&lt;/span&gt;&lt;/div&gt;" style="sketch=0;points=[[0,0,0],[0.25,0,0],[0.5,0,0],[0.75,0,0],[1,0,0],[0,1,0],[0.25,1,0],[0.5,1,0],[0.75,1,0],[1,1,0],[0,0.25,0],[0,0.5,0],[0,0.75,0],[1,0.25,0],[1,0.5,0],[1,0.75,0]];outlineConnect=0;fontColor=#232F3E;fillColor=#C925D1;strokeColor=#ffffff;dashed=0;verticalLabelPosition=bottom;verticalAlign=top;align=center;html=1;fontSize=12;fontStyle=1;aspect=fixed;shape=mxgraph.aws4.resourceIcon;resIcon=mxgraph.aws4.iq;" parent="1" vertex="1">
          <mxGeometry x="610" y="250" width="78" height="78" as="geometry" />
        </mxCell>
        <mxCell id="GQwtv-Ke6I7whFhwhaPg-205" value="Managed Services&lt;div&gt;&lt;span style=&quot;font-weight: 400;&quot;&gt;While AWS takes care of the security and compliance&amp;nbsp;&lt;/span&gt;&lt;span style=&quot;font-weight: 400; background-color: transparent; color: light-dark(rgb(35, 47, 62), rgb(189, 199, 212));&quot;&gt;of the&amp;nbsp;&lt;/span&gt;&lt;/div&gt;&lt;div&gt;&lt;span style=&quot;font-weight: 400; background-color: transparent; color: light-dark(rgb(35, 47, 62), rgb(189, 199, 212));&quot;&gt;cloud, as well as ongoing management of your&amp;nbsp;&lt;/span&gt;&lt;span style=&quot;font-weight: 400; background-color: transparent; color: light-dark(rgb(35, 47, 62), rgb(189, 199, 212));&quot;&gt;IT infrastructure,&lt;/span&gt;&lt;/div&gt;&lt;div&gt;&lt;span style=&quot;font-weight: 400; background-color: transparent; color: light-dark(rgb(35, 47, 62), rgb(189, 199, 212));&quot;&gt;you can focus on building your applications&amp;nbsp;&lt;/span&gt;&lt;span style=&quot;font-weight: 400; background-color: transparent; color: light-dark(rgb(35, 47, 62), rgb(189, 199, 212));&quot;&gt;and business, removing&lt;/span&gt;&lt;/div&gt;&lt;div&gt;&lt;span style=&quot;font-weight: 400; background-color: transparent; color: light-dark(rgb(35, 47, 62), rgb(189, 199, 212));&quot;&gt;the operational overhead and undifferentiated effort of managing&lt;/span&gt;&lt;/div&gt;&lt;div&gt;&lt;span style=&quot;font-weight: 400; background-color: transparent; color: light-dark(rgb(35, 47, 62), rgb(189, 199, 212));&quot;&gt;hardware and data centres&lt;/span&gt;&lt;/div&gt;" style="sketch=0;points=[[0,0,0],[0.25,0,0],[0.5,0,0],[0.75,0,0],[1,0,0],[0,1,0],[0.25,1,0],[0.5,1,0],[0.75,1,0],[1,1,0],[0,0.25,0],[0,0.5,0],[0,0.75,0],[1,0.25,0],[1,0.5,0],[1,0.75,0]];outlineConnect=0;fontColor=#232F3E;fillColor=#C925D1;strokeColor=#ffffff;dashed=0;verticalLabelPosition=bottom;verticalAlign=top;align=center;html=1;fontSize=12;fontStyle=1;aspect=fixed;shape=mxgraph.aws4.resourceIcon;resIcon=mxgraph.aws4.managed_services;" parent="1" vertex="1">
          <mxGeometry x="250" y="460" width="78" height="78" as="geometry" />
        </mxCell>
        <mxCell id="GQwtv-Ke6I7whFhwhaPg-209" value="Training Certification&lt;div&gt;Enable your teams to innovate, affect impact and change&lt;/div&gt;&lt;div&gt;lives by getting them certified with comprehensive content&lt;/div&gt;&lt;div&gt;and guides on SkillsBuilder, documentation, forums and whitepapates&lt;/div&gt;" style="sketch=0;points=[[0,0,0],[0.25,0,0],[0.5,0,0],[0.75,0,0],[1,0,0],[0,1,0],[0.25,1,0],[0.5,1,0],[0.75,1,0],[1,1,0],[0,0.25,0],[0,0.5,0],[0,0.75,0],[1,0.25,0],[1,0.5,0],[1,0.75,0]];outlineConnect=0;fontColor=#232F3E;fillColor=#C925D1;strokeColor=#ffffff;dashed=0;verticalLabelPosition=bottom;verticalAlign=top;align=center;html=1;fontSize=12;fontStyle=1;aspect=fixed;shape=mxgraph.aws4.resourceIcon;resIcon=mxgraph.aws4.training_certification;" parent="1" vertex="1">
          <mxGeometry x="840" y="612" width="78" height="78" as="geometry" />
        </mxCell>
        <mxCell id="GQwtv-Ke6I7whFhwhaPg-210" value="Marketplace&lt;div&gt;&lt;span style=&quot;font-weight: normal;&quot;&gt;A catalogue of software listing by independent software&amp;nbsp;&lt;/span&gt;&lt;/div&gt;&lt;div&gt;&lt;span style=&quot;font-weight: normal;&quot;&gt;vendors you can purchase and deploy in your AWS account.&lt;/span&gt;&lt;/div&gt;&lt;div&gt;&lt;span style=&quot;font-weight: normal;&quot;&gt;Listings include pricing options, support options and customer&lt;/span&gt;&lt;/div&gt;&lt;div&gt;&lt;span style=&quot;font-weight: normal;&quot;&gt;reviews.&lt;/span&gt;&lt;/div&gt;" style="sketch=0;points=[[0,0,0],[0.25,0,0],[0.5,0,0],[0.75,0,0],[1,0,0],[0,1,0],[0.25,1,0],[0.5,1,0],[0.75,1,0],[1,1,0],[0,0.25,0],[0,0.5,0],[0,0.75,0],[1,0.25,0],[1,0.5,0],[1,0.75,0]];gradientDirection=north;outlineConnect=0;fontColor=#232F3E;gradientColor=none;fillColor=light-dark(#1E262E,#FF7CFF);strokeColor=#ffffff;dashed=0;verticalLabelPosition=bottom;verticalAlign=top;align=center;html=1;fontSize=12;fontStyle=1;aspect=fixed;shape=mxgraph.aws4.resourceIcon;resIcon=mxgraph.aws4.marketplace;" parent="1" vertex="1">
          <mxGeometry x="638" y="430" width="78" height="78" as="geometry" />
        </mxCell>
        <mxCell id="GQwtv-Ke6I7whFhwhaPg-213" value="Developer" style="group;fontColor=light-dark(#000000,#BDC7D4);fontStyle=0;labelPosition=center;verticalLabelPosition=bottom;align=center;verticalAlign=top;" parent="1" vertex="1" connectable="0">
          <mxGeometry x="228" y="780" width="50" height="50" as="geometry" />
        </mxCell>
        <mxCell id="GQwtv-Ke6I7whFhwhaPg-211" value="" style="sketch=0;points=[[0,0,0],[0.25,0,0],[0.5,0,0],[0.75,0,0],[1,0,0],[0,1,0],[0.25,1,0],[0.5,1,0],[0.75,1,0],[1,1,0],[0,0.25,0],[0,0.5,0],[0,0.75,0],[1,0.25,0],[1,0.5,0],[1,0.75,0]];outlineConnect=0;fontColor=#232F3E;fillColor=none;strokeColor=light-dark(#FFFFFF,#FF7CFF);dashed=0;verticalLabelPosition=bottom;verticalAlign=top;align=center;html=1;fontSize=12;fontStyle=0;aspect=fixed;shape=mxgraph.aws4.resourceIcon;resIcon=mxgraph.aws4.support;" parent="GQwtv-Ke6I7whFhwhaPg-213" vertex="1">
          <mxGeometry width="50" height="50" as="geometry" />
        </mxCell>
        <mxCell id="GQwtv-Ke6I7whFhwhaPg-212" value="" style="sketch=0;points=[[0,0,0],[0.25,0,0],[0.5,0,0],[0.75,0,0],[1,0,0],[0,1,0],[0.25,1,0],[0.5,1,0],[0.75,1,0],[1,1,0],[0,0.25,0],[0,0.5,0],[0,0.75,0],[1,0.25,0],[1,0.5,0],[1,0.75,0]];outlineConnect=0;fontColor=#232F3E;fillColor=default;strokeColor=light-dark(#FFFFFF,#FF7CFF);dashed=0;verticalLabelPosition=bottom;verticalAlign=top;align=center;html=1;fontSize=12;fontStyle=0;aspect=fixed;shape=mxgraph.aws4.resourceIcon;resIcon=mxgraph.aws4.developer_tools;" parent="GQwtv-Ke6I7whFhwhaPg-213" vertex="1">
          <mxGeometry x="25.641025641025642" y="25.641025641025642" width="24.35897435897436" height="24.35897435897436" as="geometry" />
        </mxCell>
        <mxCell id="GQwtv-Ke6I7whFhwhaPg-216" value="Business" style="group;fontStyle=1;labelPosition=center;verticalLabelPosition=bottom;align=center;verticalAlign=top;fontColor=light-dark(#000000,#BDC7D4);" parent="1" vertex="1" connectable="0">
          <mxGeometry x="306" y="780" width="50" height="50" as="geometry" />
        </mxCell>
        <mxCell id="GQwtv-Ke6I7whFhwhaPg-214" value="" style="sketch=0;points=[[0,0,0],[0.25,0,0],[0.5,0,0],[0.75,0,0],[1,0,0],[0,1,0],[0.25,1,0],[0.5,1,0],[0.75,1,0],[1,1,0],[0,0.25,0],[0,0.5,0],[0,0.75,0],[1,0.25,0],[1,0.5,0],[1,0.75,0]];outlineConnect=0;fontColor=#232F3E;fillColor=none;strokeColor=light-dark(#FFFFFF,#FF7CFF);dashed=0;verticalLabelPosition=bottom;verticalAlign=top;align=center;html=1;fontSize=12;fontStyle=0;aspect=fixed;shape=mxgraph.aws4.resourceIcon;resIcon=mxgraph.aws4.support;" parent="GQwtv-Ke6I7whFhwhaPg-216" vertex="1">
          <mxGeometry width="50.00000000000001" height="50.00000000000001" as="geometry" />
        </mxCell>
        <mxCell id="GQwtv-Ke6I7whFhwhaPg-215" value="" style="sketch=0;points=[[0,0,0],[0.25,0,0],[0.5,0,0],[0.75,0,0],[1,0,0],[0,1,0],[0.25,1,0],[0.5,1,0],[0.75,1,0],[1,1,0],[0,0.25,0],[0,0.5,0],[0,0.75,0],[1,0.25,0],[1,0.5,0],[1,0.75,0]];outlineConnect=0;fontColor=#232F3E;fillColor=default;strokeColor=light-dark(#FFFFFF,#FF7CFF);dashed=0;verticalLabelPosition=bottom;verticalAlign=top;align=center;html=1;fontSize=12;fontStyle=0;aspect=fixed;shape=mxgraph.aws4.resourceIcon;resIcon=mxgraph.aws4.business_application;" parent="GQwtv-Ke6I7whFhwhaPg-216" vertex="1">
          <mxGeometry x="25.641025641025642" y="25.641025641025642" width="24.35897435897436" height="24.35897435897436" as="geometry" />
        </mxCell>
        <mxCell id="GQwtv-Ke6I7whFhwhaPg-219" value="Basic" style="group;labelPosition=center;verticalLabelPosition=bottom;align=center;verticalAlign=top;fontStyle=0;fontColor=light-dark(#000000,#BDC7D4);" parent="1" vertex="1" connectable="0">
          <mxGeometry x="154" y="780" width="50" height="50" as="geometry" />
        </mxCell>
        <mxCell id="GQwtv-Ke6I7whFhwhaPg-217" value="" style="sketch=0;points=[[0,0,0],[0.25,0,0],[0.5,0,0],[0.75,0,0],[1,0,0],[0,1,0],[0.25,1,0],[0.5,1,0],[0.75,1,0],[1,1,0],[0,0.25,0],[0,0.5,0],[0,0.75,0],[1,0.25,0],[1,0.5,0],[1,0.75,0]];outlineConnect=0;fontColor=#232F3E;fillColor=none;strokeColor=light-dark(#FFFFFF,#FF7CFF);dashed=0;verticalLabelPosition=bottom;verticalAlign=top;align=center;html=1;fontSize=12;fontStyle=0;aspect=fixed;shape=mxgraph.aws4.resourceIcon;resIcon=mxgraph.aws4.support;" parent="GQwtv-Ke6I7whFhwhaPg-219" vertex="1">
          <mxGeometry width="47.22222222222222" height="47.22222222222222" as="geometry" />
        </mxCell>
        <mxCell id="GQwtv-Ke6I7whFhwhaPg-218" value="" style="points=[[0.145,0.145,0],[0.5,0,0],[0.855,0.145,0],[1,0.5,0],[0.855,0.855,0],[0.5,1,0],[0.145,0.855,0],[0,0.5,0]];shape=mxgraph.bpmn.event;html=1;verticalLabelPosition=bottom;labelBackgroundColor=#ffffff;verticalAlign=top;align=center;perimeter=ellipsePerimeter;outlineConnect=0;aspect=fixed;outline=throwing;symbol=general;strokeColor=light-dark(#000000,#FF7CFF);strokeWidth=1;" parent="GQwtv-Ke6I7whFhwhaPg-219" vertex="1">
          <mxGeometry x="24.35897435897436" y="24.358974358974358" width="24.216524216524217" height="24.216524216524217" as="geometry" />
        </mxCell>
        <mxCell id="GQwtv-Ke6I7whFhwhaPg-228" value="Enterprise" style="group;labelPosition=center;verticalLabelPosition=bottom;align=center;verticalAlign=top;fontStyle=1;fontColor=light-dark(#000000,#BDC7D4);" parent="1" vertex="1" connectable="0">
          <mxGeometry x="504" y="780" width="50" height="50" as="geometry" />
        </mxCell>
        <mxCell id="GQwtv-Ke6I7whFhwhaPg-220" value="" style="sketch=0;points=[[0,0,0],[0.25,0,0],[0.5,0,0],[0.75,0,0],[1,0,0],[0,1,0],[0.25,1,0],[0.5,1,0],[0.75,1,0],[1,1,0],[0,0.25,0],[0,0.5,0],[0,0.75,0],[1,0.25,0],[1,0.5,0],[1,0.75,0]];outlineConnect=0;fontColor=#232F3E;fillColor=none;strokeColor=light-dark(#FFFFFF,#FF7CFF);dashed=0;verticalLabelPosition=bottom;verticalAlign=top;align=center;html=1;fontSize=12;fontStyle=0;aspect=fixed;shape=mxgraph.aws4.resourceIcon;resIcon=mxgraph.aws4.support;" parent="GQwtv-Ke6I7whFhwhaPg-228" vertex="1">
          <mxGeometry width="48.07692307692309" height="48.07692307692309" as="geometry" />
        </mxCell>
        <mxCell id="GQwtv-Ke6I7whFhwhaPg-227" value="" style="sketch=0;points=[[0,0,0],[0.25,0,0],[0.5,0,0],[0.75,0,0],[1,0,0],[0,1,0],[0.25,1,0],[0.5,1,0],[0.75,1,0],[1,1,0],[0,0.25,0],[0,0.5,0],[0,0.75,0],[1,0.25,0],[1,0.5,0],[1,0.75,0]];outlineConnect=0;fontColor=#232F3E;fillColor=default;strokeColor=light-dark(#FFFFFF,#FF7CFF);dashed=0;verticalLabelPosition=bottom;verticalAlign=top;align=center;html=1;fontSize=12;fontStyle=0;aspect=fixed;shape=mxgraph.aws4.resourceIcon;resIcon=mxgraph.aws4.business_application;" parent="GQwtv-Ke6I7whFhwhaPg-228" vertex="1">
          <mxGeometry x="25.64102564102564" y="25.641025641025642" width="23.42209072978304" height="23.42209072978304" as="geometry" />
        </mxCell>
        <mxCell id="GQwtv-Ke6I7whFhwhaPg-224" value="" style="sketch=0;points=[[0,0,0],[0.25,0,0],[0.5,0,0],[0.75,0,0],[1,0,0],[0,1,0],[0.25,1,0],[0.5,1,0],[0.75,1,0],[1,1,0],[0,0.25,0],[0,0.5,0],[0,0.75,0],[1,0.25,0],[1,0.5,0],[1,0.75,0]];outlineConnect=0;fontColor=#232F3E;fillColor=none;strokeColor=light-dark(#FFFFFF,#FF7CFF);dashed=0;verticalLabelPosition=bottom;verticalAlign=top;align=center;html=1;fontSize=12;fontStyle=0;aspect=fixed;shape=mxgraph.aws4.resourceIcon;resIcon=mxgraph.aws4.chime;" parent="GQwtv-Ke6I7whFhwhaPg-228" vertex="1">
          <mxGeometry x="38.46153846153846" y="25.641025641025642" width="11.09467455621302" height="11.09467455621302" as="geometry" />
        </mxCell>
        <mxCell id="GQwtv-Ke6I7whFhwhaPg-229" value="Enterprise On-Ramp" style="group;fontStyle=1;labelPosition=center;verticalLabelPosition=bottom;align=center;verticalAlign=top;fontColor=light-dark(#000000,#BDC7D4);" parent="1" vertex="1" connectable="0">
          <mxGeometry x="406" y="780" width="50" height="50" as="geometry" />
        </mxCell>
        <mxCell id="GQwtv-Ke6I7whFhwhaPg-221" value="" style="sketch=0;points=[[0,0,0],[0.25,0,0],[0.5,0,0],[0.75,0,0],[1,0,0],[0,1,0],[0.25,1,0],[0.5,1,0],[0.75,1,0],[1,1,0],[0,0.25,0],[0,0.5,0],[0,0.75,0],[1,0.25,0],[1,0.5,0],[1,0.75,0]];outlineConnect=0;fontColor=#232F3E;fillColor=none;strokeColor=light-dark(#FFFFFF,#FF7CFF);dashed=0;verticalLabelPosition=bottom;verticalAlign=top;align=center;html=1;fontSize=12;fontStyle=0;aspect=fixed;shape=mxgraph.aws4.resourceIcon;resIcon=mxgraph.aws4.support;" parent="GQwtv-Ke6I7whFhwhaPg-229" vertex="1">
          <mxGeometry width="48" height="48" as="geometry" />
        </mxCell>
        <mxCell id="GQwtv-Ke6I7whFhwhaPg-226" value="" style="sketch=0;points=[[0,0,0],[0.25,0,0],[0.5,0,0],[0.75,0,0],[1,0,0],[0,1,0],[0.25,1,0],[0.5,1,0],[0.75,1,0],[1,1,0],[0,0.25,0],[0,0.5,0],[0,0.75,0],[1,0.25,0],[1,0.5,0],[1,0.75,0]];outlineConnect=0;fontColor=#232F3E;fillColor=default;strokeColor=light-dark(#FFFFFF,#FF7CFF);dashed=0;verticalLabelPosition=bottom;verticalAlign=top;align=center;html=1;fontSize=12;fontStyle=0;aspect=fixed;shape=mxgraph.aws4.resourceIcon;resIcon=mxgraph.aws4.business_application;" parent="GQwtv-Ke6I7whFhwhaPg-229" vertex="1">
          <mxGeometry x="25.641025641025642" y="25.641025641025646" width="23.384615384615387" height="23.384615384615387" as="geometry" />
        </mxCell>
        <mxCell id="GQwtv-Ke6I7whFhwhaPg-222" value="" style="sketch=0;points=[[0,0,0],[0.25,0,0],[0.5,0,0],[0.75,0,0],[1,0,0],[0,1,0],[0.25,1,0],[0.5,1,0],[0.75,1,0],[1,1,0],[0,0.25,0],[0,0.5,0],[0,0.75,0],[1,0.25,0],[1,0.5,0],[1,0.75,0]];outlineConnect=0;fontColor=#232F3E;fillColor=none;strokeColor=light-dark(#FFFFFF,#FF7CFF);dashed=0;verticalLabelPosition=bottom;verticalAlign=top;align=center;html=1;fontSize=12;fontStyle=0;aspect=fixed;shape=mxgraph.aws4.resourceIcon;resIcon=mxgraph.aws4.chime;" parent="GQwtv-Ke6I7whFhwhaPg-229" vertex="1">
          <mxGeometry x="38.46153846153847" y="25.641025641025646" width="11.076923076923077" height="11.076923076923077" as="geometry" />
        </mxCell>
        <mxCell id="GQwtv-Ke6I7whFhwhaPg-223" value="" style="sketch=0;points=[[0,0,0],[0.25,0,0],[0.5,0,0],[0.75,0,0],[1,0,0],[0,1,0],[0.25,1,0],[0.5,1,0],[0.75,1,0],[1,1,0],[0,0.25,0],[0,0.5,0],[0,0.75,0],[1,0.25,0],[1,0.5,0],[1,0.75,0]];outlineConnect=0;fontColor=#232F3E;fillColor=none;strokeColor=light-dark(#FFFFFF,#FF7CFF);dashed=0;verticalLabelPosition=bottom;verticalAlign=top;align=center;html=1;fontSize=12;fontStyle=0;aspect=fixed;shape=mxgraph.aws4.resourceIcon;resIcon=mxgraph.aws4.activate;" parent="GQwtv-Ke6I7whFhwhaPg-229" vertex="1">
          <mxGeometry x="25.641025641025642" y="25.641025641025646" width="8.615384615384617" height="8.615384615384617" as="geometry" />
        </mxCell>
        <mxCell id="GQwtv-Ke6I7whFhwhaPg-231" value="" style="group" parent="1" vertex="1" connectable="0">
          <mxGeometry x="130" y="690" width="504" height="190" as="geometry" />
        </mxCell>
        <mxCell id="GQwtv-Ke6I7whFhwhaPg-230" value="" style="fillColor=none;strokeColor=light-dark(#5A6C86,#FF7CFF);dashed=1;verticalAlign=top;fontStyle=0;fontColor=#5A6C86;whiteSpace=wrap;html=1;strokeWidth=8;" parent="GQwtv-Ke6I7whFhwhaPg-231" vertex="1">
          <mxGeometry width="504" height="190" as="geometry" />
        </mxCell>
        <mxCell id="GQwtv-Ke6I7whFhwhaPg-208" value="Support&lt;div&gt;&lt;span style=&quot;font-weight: normal;&quot;&gt;Helps you troubleshoot issues, optimise performance, manage risk&amp;nbsp;&lt;/span&gt;&lt;/div&gt;&lt;div&gt;&lt;span style=&quot;font-weight: normal;&quot;&gt;and, lower costs.&amp;nbsp;&lt;/span&gt;&lt;span style=&quot;font-weight: normal; background-color: transparent; color: light-dark(rgb(35, 47, 62), rgb(189, 199, 212));&quot;&gt;A number of options&amp;nbsp;&lt;/span&gt;&lt;span style=&quot;font-weight: normal; background-color: transparent; color: light-dark(rgb(35, 47, 62), rgb(189, 199, 212));&quot;&gt;are available to give you the&lt;/span&gt;&lt;/div&gt;&lt;div&gt;&lt;span style=&quot;font-weight: normal; background-color: transparent; color: light-dark(rgb(35, 47, 62), rgb(189, 199, 212));&quot;&gt;right mix of tools and access to expertise&amp;nbsp;&lt;/span&gt;&lt;span style=&quot;font-weight: 400; background-color: transparent; color: light-dark(rgb(35, 47, 62), rgb(189, 199, 212));&quot;&gt;to be successful in the cloud&lt;/span&gt;&lt;/div&gt;" style="sketch=0;points=[[0,0,0],[0.25,0,0],[0.5,0,0],[0.75,0,0],[1,0,0],[0,1,0],[0.25,1,0],[0.5,1,0],[0.75,1,0],[1,1,0],[0,0.25,0],[0,0.5,0],[0,0.75,0],[1,0.25,0],[1,0.5,0],[1,0.75,0]];outlineConnect=0;fontColor=#232F3E;fillColor=#C925D1;strokeColor=#ffffff;dashed=0;verticalLabelPosition=middle;verticalAlign=middle;align=left;html=1;fontSize=12;fontStyle=1;aspect=fixed;shape=mxgraph.aws4.resourceIcon;resIcon=mxgraph.aws4.support;labelPosition=right;spacingLeft=15;" parent="GQwtv-Ke6I7whFhwhaPg-231" vertex="1">
          <mxGeometry width="78" height="78" as="geometry" />
        </mxCell>
        <mxCell id="GQwtv-Ke6I7whFhwhaPg-234" value="Provides access to curated knowledge and a vibrant&#xa;community, helping you become even more&#xa;successful om AWS, including Q&amp;A, KB,&#xa;expert curated knowledge, best practice articles and,&#xa;AWS partner groups" style="group;fontStyle=0;labelPosition=center;verticalLabelPosition=bottom;align=center;verticalAlign=top;fontColor=light-dark(#000000,#BDC7D4);" parent="1" vertex="1" connectable="0">
          <mxGeometry x="850" y="310" width="164" height="106" as="geometry" />
        </mxCell>
        <mxCell id="GQwtv-Ke6I7whFhwhaPg-233" value="" style="fillColor=none;strokeColor=#5A6C86;dashed=1;verticalAlign=top;fontStyle=0;fontColor=#5A6C86;whiteSpace=wrap;html=1;" parent="GQwtv-Ke6I7whFhwhaPg-234" vertex="1">
          <mxGeometry width="164" height="106" as="geometry" />
        </mxCell>
        <mxCell id="GQwtv-Ke6I7whFhwhaPg-206" value="re:Post" style="sketch=0;points=[[0,0,0],[0.25,0,0],[0.5,0,0],[0.75,0,0],[1,0,0],[0,1,0],[0.25,1,0],[0.5,1,0],[0.75,1,0],[1,1,0],[0,0.25,0],[0,0.5,0],[0,0.75,0],[1,0.25,0],[1,0.5,0],[1,0.75,0]];outlineConnect=0;fontColor=#232F3E;fillColor=#C925D1;strokeColor=#ffffff;dashed=0;verticalLabelPosition=bottom;verticalAlign=top;align=center;html=1;fontSize=12;fontStyle=1;aspect=fixed;shape=mxgraph.aws4.resourceIcon;resIcon=mxgraph.aws4.repost;" parent="GQwtv-Ke6I7whFhwhaPg-234" vertex="1">
          <mxGeometry x="2" y="2" width="78" height="78" as="geometry" />
        </mxCell>
        <mxCell id="GQwtv-Ke6I7whFhwhaPg-207" value="re:Post Private" style="sketch=0;points=[[0,0,0],[0.25,0,0],[0.5,0,0],[0.75,0,0],[1,0,0],[0,1,0],[0.25,1,0],[0.5,1,0],[0.75,1,0],[1,1,0],[0,0.25,0],[0,0.5,0],[0,0.75,0],[1,0.25,0],[1,0.5,0],[1,0.75,0]];outlineConnect=0;fontColor=#232F3E;fillColor=#C925D1;strokeColor=#ffffff;dashed=0;verticalLabelPosition=bottom;verticalAlign=top;align=center;html=1;fontSize=12;fontStyle=1;aspect=fixed;shape=mxgraph.aws4.resourceIcon;resIcon=mxgraph.aws4.repost_private;" parent="GQwtv-Ke6I7whFhwhaPg-234" vertex="1">
          <mxGeometry x="84" y="2" width="78" height="78" as="geometry" />
        </mxCell>
        <mxCell id="GQwtv-Ke6I7whFhwhaPg-252" value="Use ECS for on-prem containers" style="edgeStyle=none;curved=1;rounded=0;orthogonalLoop=1;jettySize=auto;html=1;fontSize=12;startSize=8;endSize=8;" parent="1" source="GQwtv-Ke6I7whFhwhaPg-237" target="GQwtv-Ke6I7whFhwhaPg-239" edge="1">
          <mxGeometry x="-0.6154" relative="1" as="geometry">
            <mxPoint as="offset" />
          </mxGeometry>
        </mxCell>
        <mxCell id="GQwtv-Ke6I7whFhwhaPg-237" value="ECS Anywhere&lt;div&gt;&lt;span style=&quot;font-weight: normal;&quot;&gt;This is a feature of ECS that allows you to orchestrate containers&lt;/span&gt;&lt;/div&gt;&lt;div&gt;&lt;span style=&quot;font-weight: normal;&quot;&gt;running on-prem using the familiar ECS control plane&lt;/span&gt;&lt;/div&gt;" style="sketch=0;points=[[0,0,0],[0.25,0,0],[0.5,0,0],[0.75,0,0],[1,0,0],[0,1,0],[0.25,1,0],[0.5,1,0],[0.75,1,0],[1,1,0],[0,0.25,0],[0,0.5,0],[0,0.75,0],[1,0.25,0],[1,0.5,0],[1,0.75,0]];outlineConnect=0;fontColor=#232F3E;fillColor=#ED7100;strokeColor=#ffffff;dashed=0;verticalLabelPosition=bottom;verticalAlign=top;align=center;html=1;fontSize=12;fontStyle=1;aspect=fixed;shape=mxgraph.aws4.resourceIcon;resIcon=mxgraph.aws4.ecs_anywhere;" parent="1" vertex="1">
          <mxGeometry x="4150" y="520" width="78" height="78" as="geometry" />
        </mxCell>
        <mxCell id="GQwtv-Ke6I7whFhwhaPg-253" value="Use EKS for on-prem Kubernetes clusters" style="edgeStyle=none;curved=1;rounded=0;orthogonalLoop=1;jettySize=auto;html=1;fontSize=12;startSize=8;endSize=8;" parent="1" source="GQwtv-Ke6I7whFhwhaPg-238" target="GQwtv-Ke6I7whFhwhaPg-240" edge="1">
          <mxGeometry x="-0.7097" relative="1" as="geometry">
            <mxPoint as="offset" />
          </mxGeometry>
        </mxCell>
        <mxCell id="GQwtv-Ke6I7whFhwhaPg-238" value="EKS Anywhere&lt;div&gt;&lt;span style=&quot;font-weight: normal;&quot;&gt;This is a feature of EKS that allows you to manage your&lt;/span&gt;&lt;/div&gt;&lt;div&gt;&lt;span style=&quot;font-weight: normal;&quot;&gt;on-prem EKS clusters using the familiar EKS control plane&lt;/span&gt;&lt;/div&gt;" style="sketch=0;points=[[0,0,0],[0.25,0,0],[0.5,0,0],[0.75,0,0],[1,0,0],[0,1,0],[0.25,1,0],[0.5,1,0],[0.75,1,0],[1,1,0],[0,0.25,0],[0,0.5,0],[0,0.75,0],[1,0.25,0],[1,0.5,0],[1,0.75,0]];outlineConnect=0;fontColor=#232F3E;fillColor=#ED7100;strokeColor=#ffffff;dashed=0;verticalLabelPosition=bottom;verticalAlign=top;align=center;html=1;fontSize=12;fontStyle=1;aspect=fixed;shape=mxgraph.aws4.resourceIcon;resIcon=mxgraph.aws4.eks_anywhere;" parent="1" vertex="1">
          <mxGeometry x="4150" y="902" width="78" height="78" as="geometry" />
        </mxCell>
        <mxCell id="GQwtv-Ke6I7whFhwhaPg-239" value="Elastic Container Service (ECS)&lt;div&gt;&lt;span style=&quot;font-weight: normal;&quot;&gt;Docker container orchestration service that is deeply integrated&lt;/span&gt;&lt;/div&gt;&lt;div&gt;&lt;span style=&quot;font-weight: normal;&quot;&gt;with other AWS services such as ECR for storing images,&lt;/span&gt;&lt;/div&gt;&lt;div&gt;&lt;span style=&quot;font-weight: normal;&quot;&gt;IAM for security, and CloudWatch for monitoring&lt;/span&gt;&lt;/div&gt;" style="sketch=0;points=[[0,0,0],[0.25,0,0],[0.5,0,0],[0.75,0,0],[1,0,0],[0,1,0],[0.25,1,0],[0.5,1,0],[0.75,1,0],[1,1,0],[0,0.25,0],[0,0.5,0],[0,0.75,0],[1,0.25,0],[1,0.5,0],[1,0.75,0]];outlineConnect=0;fontColor=#232F3E;fillColor=#ED7100;strokeColor=#ffffff;dashed=0;verticalLabelPosition=bottom;verticalAlign=top;align=center;html=1;fontSize=12;fontStyle=1;aspect=fixed;shape=mxgraph.aws4.resourceIcon;resIcon=mxgraph.aws4.ecs;" parent="1" vertex="1">
          <mxGeometry x="4150" y="338" width="78" height="78" as="geometry" />
        </mxCell>
        <mxCell id="GQwtv-Ke6I7whFhwhaPg-240" value="Elastic Kubernetes Service (EKS)&lt;div&gt;&lt;span style=&quot;font-weight: normal;&quot;&gt;Allows you to redundantly run your Kubernetes&lt;/span&gt;&lt;/div&gt;&lt;div&gt;&lt;span style=&quot;font-weight: normal;&quot;&gt;clusters in the cloud and, because the service&lt;/span&gt;&lt;/div&gt;&lt;div&gt;&lt;span style=&quot;font-weight: normal;&quot;&gt;is certified Kubernetes conformant, you can&lt;/span&gt;&lt;/div&gt;&lt;div&gt;&lt;span style=&quot;font-weight: normal;&quot;&gt;use all the existing tools and plugins for&lt;/span&gt;&lt;/div&gt;&lt;div&gt;&lt;span style=&quot;font-weight: normal;&quot;&gt;easy migration&lt;/span&gt;&lt;/div&gt;" style="sketch=0;points=[[0,0,0],[0.25,0,0],[0.5,0,0],[0.75,0,0],[1,0,0],[0,1,0],[0.25,1,0],[0.5,1,0],[0.75,1,0],[1,1,0],[0,0.25,0],[0,0.5,0],[0,0.75,0],[1,0.25,0],[1,0.5,0],[1,0.75,0]];outlineConnect=0;fontColor=#232F3E;fillColor=#ED7100;strokeColor=#ffffff;dashed=0;verticalLabelPosition=bottom;verticalAlign=top;align=center;html=1;fontSize=12;fontStyle=1;aspect=fixed;shape=mxgraph.aws4.resourceIcon;resIcon=mxgraph.aws4.eks;" parent="1" vertex="1">
          <mxGeometry x="4150" y="670" width="78" height="78" as="geometry" />
        </mxCell>
        <mxCell id="GQwtv-Ke6I7whFhwhaPg-249" value="Integrates for easy image deployment" style="edgeStyle=none;curved=1;rounded=0;orthogonalLoop=1;jettySize=auto;html=1;fontSize=12;startSize=8;endSize=8;" parent="1" source="GQwtv-Ke6I7whFhwhaPg-241" target="GQwtv-Ke6I7whFhwhaPg-239" edge="1">
          <mxGeometry relative="1" as="geometry" />
        </mxCell>
        <mxCell id="GQwtv-Ke6I7whFhwhaPg-250" value="Integrates with IAM for resource-level access control" style="edgeStyle=none;curved=1;rounded=0;orthogonalLoop=1;jettySize=auto;html=1;fontSize=12;startSize=8;endSize=8;" parent="1" source="GQwtv-Ke6I7whFhwhaPg-241" target="GQwtv-Ke6I7whFhwhaPg-37" edge="1">
          <mxGeometry relative="1" as="geometry" />
        </mxCell>
        <mxCell id="GQwtv-Ke6I7whFhwhaPg-241" value="Elastic Container Registry (ECR)&lt;div&gt;&lt;span style=&quot;font-weight: normal;&quot;&gt;A Docker container registry that integrates with ECS, making&lt;/span&gt;&lt;/div&gt;&lt;div&gt;&lt;span style=&quot;font-weight: normal;&quot;&gt;it easy to deploy images from your repository, as well as IAM,&lt;/span&gt;&lt;/div&gt;&lt;div&gt;&lt;span style=&quot;font-weight: normal;&quot;&gt;providing resource-level control of each repo&lt;/span&gt;&lt;/div&gt;" style="sketch=0;points=[[0,0,0],[0.25,0,0],[0.5,0,0],[0.75,0,0],[1,0,0],[0,1,0],[0.25,1,0],[0.5,1,0],[0.75,1,0],[1,1,0],[0,0.25,0],[0,0.5,0],[0,0.75,0],[1,0.25,0],[1,0.5,0],[1,0.75,0]];outlineConnect=0;fontColor=#232F3E;fillColor=#ED7100;strokeColor=#ffffff;dashed=0;verticalLabelPosition=bottom;verticalAlign=top;align=center;html=1;fontSize=12;fontStyle=1;aspect=fixed;shape=mxgraph.aws4.resourceIcon;resIcon=mxgraph.aws4.ecr;" parent="1" vertex="1">
          <mxGeometry x="3770" y="338" width="78" height="78" as="geometry" />
        </mxCell>
        <mxCell id="GQwtv-Ke6I7whFhwhaPg-242" value="Red Hat OpenShift Service on AWS (ROSA)&lt;div&gt;&lt;span style=&quot;font-weight: normal;&quot;&gt;Allows you to move the management of ROSA clusters into AWS&lt;/span&gt;&lt;/div&gt;" style="sketch=0;points=[[0,0,0],[0.25,0,0],[0.5,0,0],[0.75,0,0],[1,0,0],[0,1,0],[0.25,1,0],[0.5,1,0],[0.75,1,0],[1,1,0],[0,0.25,0],[0,0.5,0],[0,0.75,0],[1,0.25,0],[1,0.5,0],[1,0.75,0]];outlineConnect=0;fontColor=#232F3E;fillColor=#ED7100;strokeColor=#ffffff;dashed=0;verticalLabelPosition=bottom;verticalAlign=top;align=center;html=1;fontSize=12;fontStyle=1;aspect=fixed;shape=mxgraph.aws4.resourceIcon;resIcon=mxgraph.aws4.red_hat_openshift;" parent="1" vertex="1">
          <mxGeometry x="3770" y="690" width="78" height="78" as="geometry" />
        </mxCell>
        <mxCell id="GQwtv-Ke6I7whFhwhaPg-248" value="App2Container (A2C)&#xa;This is a CLI for modernising Java and .NET applications&#xa;into containerised applications" style="group;fontColor=light-dark(#000000,#BDC7D4);fontStyle=0;labelPosition=center;verticalLabelPosition=bottom;align=center;verticalAlign=top;" parent="1" vertex="1" connectable="0">
          <mxGeometry x="3770" y="520" width="78" height="78" as="geometry" />
        </mxCell>
        <mxCell id="GQwtv-Ke6I7whFhwhaPg-245" value="" style="whiteSpace=wrap;html=1;aspect=fixed;fillColor=light-dark(#FFFFFF,#D86D0C);strokeColor=none;" parent="GQwtv-Ke6I7whFhwhaPg-248" vertex="1">
          <mxGeometry width="78" height="78" as="geometry" />
        </mxCell>
        <mxCell id="GQwtv-Ke6I7whFhwhaPg-243" value="" style="sketch=0;outlineConnect=0;fontColor=#232F3E;gradientColor=none;fillColor=light-dark(#ED7100,#000000);strokeColor=none;dashed=0;verticalLabelPosition=bottom;verticalAlign=top;align=center;html=1;fontSize=12;fontStyle=0;aspect=fixed;pointerEvents=1;shape=mxgraph.aws4.container_1;" parent="GQwtv-Ke6I7whFhwhaPg-248" vertex="1">
          <mxGeometry x="24" y="42.5" width="48" height="31" as="geometry" />
        </mxCell>
        <mxCell id="GQwtv-Ke6I7whFhwhaPg-244" value="" style="sketch=0;aspect=fixed;pointerEvents=1;shadow=0;dashed=0;html=1;strokeColor=none;labelPosition=center;verticalLabelPosition=bottom;verticalAlign=top;align=center;fillColor=light-dark(#00188D,#000000);shape=mxgraph.mscae.enterprise.application" parent="GQwtv-Ke6I7whFhwhaPg-248" vertex="1">
          <mxGeometry x="5" y="5.5" width="50" height="34" as="geometry" />
        </mxCell>
        <mxCell id="GQwtv-Ke6I7whFhwhaPg-247" value="" style="shape=flexArrow;endArrow=classic;html=1;rounded=0;fontSize=12;startSize=8;endSize=3.08;curved=1;endWidth=14;width=2;strokeColor=light-dark(#000000,#000000);" parent="GQwtv-Ke6I7whFhwhaPg-248" edge="1">
          <mxGeometry width="50" height="50" relative="1" as="geometry">
            <mxPoint x="54" y="22" as="sourcePoint" />
            <mxPoint x="65" y="43" as="targetPoint" />
            <Array as="points">
              <mxPoint x="65" y="22" />
            </Array>
          </mxGeometry>
        </mxCell>
        <mxCell id="GQwtv-Ke6I7whFhwhaPg-257" value="Facilitates on-prem EKS" style="edgeStyle=none;curved=1;rounded=0;orthogonalLoop=1;jettySize=auto;html=1;fontSize=12;startSize=8;endSize=8;horizontal=0;" parent="1" source="GQwtv-Ke6I7whFhwhaPg-254" edge="1">
          <mxGeometry relative="1" as="geometry">
            <mxPoint x="4299.999999999999" y="819" as="targetPoint" />
          </mxGeometry>
        </mxCell>
        <mxCell id="GQwtv-Ke6I7whFhwhaPg-254" value="EKS Distro" style="sketch=0;points=[[0,0,0],[0.25,0,0],[0.5,0,0],[0.75,0,0],[1,0,0],[0,1,0],[0.25,1,0],[0.5,1,0],[0.75,1,0],[1,1,0],[0,0.25,0],[0,0.5,0],[0,0.75,0],[1,0.25,0],[1,0.5,0],[1,0.75,0]];outlineConnect=0;fontColor=#232F3E;fillColor=#ED7100;strokeColor=#ffffff;dashed=0;verticalLabelPosition=bottom;verticalAlign=top;align=center;html=1;fontSize=12;fontStyle=1;aspect=fixed;shape=mxgraph.aws4.resourceIcon;resIcon=mxgraph.aws4.eks_distro;" parent="1" vertex="1">
          <mxGeometry x="4370" y="780" width="78" height="78" as="geometry" />
        </mxCell>
        <mxCell id="GQwtv-Ke6I7whFhwhaPg-256" value="" style="endArrow=classic;startArrow=classic;html=1;rounded=0;fontSize=12;startSize=8;endSize=8;edgeStyle=orthogonalEdgeStyle;exitX=1;exitY=0.25;exitDx=0;exitDy=0;exitPerimeter=0;entryX=1;entryY=0.75;entryDx=0;entryDy=0;entryPerimeter=0;" parent="1" source="GQwtv-Ke6I7whFhwhaPg-238" target="GQwtv-Ke6I7whFhwhaPg-240" edge="1">
          <mxGeometry width="50" height="50" relative="1" as="geometry">
            <mxPoint x="4320" y="970" as="sourcePoint" />
            <mxPoint x="4370" y="920" as="targetPoint" />
            <Array as="points">
              <mxPoint x="4300" y="921" />
              <mxPoint x="4300" y="729" />
            </Array>
          </mxGeometry>
        </mxCell>
        <mxCell id="GQwtv-Ke6I7whFhwhaPg-258" value="" style="group" parent="1" vertex="1" connectable="0">
          <mxGeometry x="3620" y="140" width="870" height="930" as="geometry" />
        </mxCell>
        <mxCell id="GQwtv-Ke6I7whFhwhaPg-236" value="" style="fillColor=none;strokeColor=light-dark(#5A6C86,#D86D0C);dashed=1;verticalAlign=top;fontStyle=0;fontColor=#5A6C86;whiteSpace=wrap;html=1;strokeWidth=10;" parent="GQwtv-Ke6I7whFhwhaPg-258" vertex="1">
          <mxGeometry width="870" height="930" as="geometry" />
        </mxCell>
        <mxCell id="GQwtv-Ke6I7whFhwhaPg-235" value="Containers" style="sketch=0;points=[[0,0,0],[0.25,0,0],[0.5,0,0],[0.75,0,0],[1,0,0],[0,1,0],[0.25,1,0],[0.5,1,0],[0.75,1,0],[1,1,0],[0,0.25,0],[0,0.5,0],[0,0.75,0],[1,0.25,0],[1,0.5,0],[1,0.75,0]];outlineConnect=0;fontColor=#232F3E;fillColor=#ED7100;strokeColor=#ffffff;dashed=0;verticalLabelPosition=middle;verticalAlign=middle;align=left;html=1;fontSize=48;fontStyle=1;aspect=fixed;shape=mxgraph.aws4.resourceIcon;resIcon=mxgraph.aws4.containers;labelPosition=right;spacingLeft=15;" parent="GQwtv-Ke6I7whFhwhaPg-258" vertex="1">
          <mxGeometry width="120" height="120" as="geometry" />
        </mxCell>
        <mxCell id="GQwtv-Ke6I7whFhwhaPg-259" value="Databases" style="sketch=0;points=[[0,0,0],[0.25,0,0],[0.5,0,0],[0.75,0,0],[1,0,0],[0,1,0],[0.25,1,0],[0.5,1,0],[0.75,1,0],[1,1,0],[0,0.25,0],[0,0.5,0],[0,0.75,0],[1,0.25,0],[1,0.5,0],[1,0.75,0]];outlineConnect=0;fontColor=#232F3E;fillColor=#C925D1;strokeColor=#ffffff;dashed=0;verticalLabelPosition=middle;verticalAlign=middle;align=left;html=1;fontSize=48;fontStyle=1;aspect=fixed;shape=mxgraph.aws4.resourceIcon;resIcon=mxgraph.aws4.database;labelPosition=right;spacingLeft=15;" parent="1" vertex="1">
          <mxGeometry x="2314" y="-1260" width="120" height="120" as="geometry" />
        </mxCell>
        <mxCell id="GQwtv-Ke6I7whFhwhaPg-277" value="Continuously backs up to S3" style="edgeStyle=none;curved=1;rounded=0;orthogonalLoop=1;jettySize=auto;html=1;fontSize=12;startSize=8;endSize=8;" parent="1" source="GQwtv-Ke6I7whFhwhaPg-261" target="GQwtv-Ke6I7whFhwhaPg-12" edge="1">
          <mxGeometry relative="1" as="geometry" />
        </mxCell>
        <mxCell id="GQwtv-Ke6I7whFhwhaPg-279" value="Zero-ETL integration replicates data to Redshift for analytics" style="edgeStyle=none;curved=1;rounded=0;orthogonalLoop=1;jettySize=auto;html=1;fontSize=12;startSize=8;endSize=8;" parent="1" source="GQwtv-Ke6I7whFhwhaPg-261" target="GQwtv-Ke6I7whFhwhaPg-23" edge="1">
          <mxGeometry relative="1" as="geometry" />
        </mxCell>
        <mxCell id="GQwtv-Ke6I7whFhwhaPg-261" value="Aurora&lt;div&gt;&lt;span style=&quot;font-weight: normal;&quot;&gt;Compatible with MySQL and PostgreSQL and fully&lt;/span&gt;&lt;/div&gt;&lt;div&gt;&lt;span style=&quot;font-weight: normal;&quot;&gt;managed by RDS, supports read replicas, PIT-recovery,&lt;/span&gt;&lt;/div&gt;&lt;div&gt;&lt;span style=&quot;font-weight: normal;&quot;&gt;continuous backup to S3 and cross-AZ replication.&lt;/span&gt;&lt;/div&gt;&lt;div&gt;&lt;span style=&quot;font-weight: normal;&quot;&gt;Also features an IO-optimised option for improved&lt;/span&gt;&lt;/div&gt;&lt;div&gt;&lt;span style=&quot;font-weight: normal;&quot;&gt;price performance and, replication to Redshift for analytics&lt;/span&gt;&lt;/div&gt;" style="sketch=0;points=[[0,0,0],[0.25,0,0],[0.5,0,0],[0.75,0,0],[1,0,0],[0,1,0],[0.25,1,0],[0.5,1,0],[0.75,1,0],[1,1,0],[0,0.25,0],[0,0.5,0],[0,0.75,0],[1,0.25,0],[1,0.5,0],[1,0.75,0]];outlineConnect=0;fontColor=#232F3E;fillColor=#C925D1;strokeColor=#ffffff;dashed=0;verticalLabelPosition=bottom;verticalAlign=top;align=center;html=1;fontSize=12;fontStyle=1;aspect=fixed;shape=mxgraph.aws4.resourceIcon;resIcon=mxgraph.aws4.aurora;" parent="1" vertex="1">
          <mxGeometry x="2450" y="-1100" width="78" height="78" as="geometry" />
        </mxCell>
        <mxCell id="GQwtv-Ke6I7whFhwhaPg-262" value="ElastiCache (optionally Serverless)&lt;br&gt;&lt;span style=&quot;font-weight: normal;&quot;&gt;Makes it easy to deploy operate and scale in-memory&lt;/span&gt;&lt;div&gt;&lt;span style=&quot;font-weight: normal;&quot;&gt;caches and supports two open-source caching engines&lt;/span&gt;&lt;/div&gt;" style="sketch=0;points=[[0,0,0],[0.25,0,0],[0.5,0,0],[0.75,0,0],[1,0,0],[0,1,0],[0.25,1,0],[0.5,1,0],[0.75,1,0],[1,1,0],[0,0.25,0],[0,0.5,0],[0,0.75,0],[1,0.25,0],[1,0.5,0],[1,0.75,0]];outlineConnect=0;fontColor=#232F3E;fillColor=#C925D1;strokeColor=#ffffff;dashed=0;verticalLabelPosition=bottom;verticalAlign=top;align=center;html=1;fontSize=12;fontStyle=1;aspect=fixed;shape=mxgraph.aws4.resourceIcon;resIcon=mxgraph.aws4.elasticache;" parent="1" vertex="1">
          <mxGeometry x="3203" y="-1190" width="78" height="78" as="geometry" />
        </mxCell>
        <mxCell id="GQwtv-Ke6I7whFhwhaPg-263" value="Keyspaces (for Apache Cassandra)&lt;div&gt;&lt;span style=&quot;font-weight: normal;&quot;&gt;A managed database service that allows you to migrate&lt;/span&gt;&lt;/div&gt;&lt;div&gt;&lt;span style=&quot;font-weight: normal;&quot;&gt;Cassandra workloads to AWS with the same code and tools&lt;/span&gt;&lt;/div&gt;&lt;div&gt;&lt;span style=&quot;font-weight: normal;&quot;&gt;used today. Offers encryption by default and continuous&lt;/span&gt;&lt;/div&gt;&lt;div&gt;&lt;span style=&quot;font-weight: normal;&quot;&gt;backups for PIT-recovery&lt;/span&gt;&lt;/div&gt;" style="sketch=0;points=[[0,0,0],[0.25,0,0],[0.5,0,0],[0.75,0,0],[1,0,0],[0,1,0],[0.25,1,0],[0.5,1,0],[0.75,1,0],[1,1,0],[0,0.25,0],[0,0.5,0],[0,0.75,0],[1,0.25,0],[1,0.5,0],[1,0.75,0]];outlineConnect=0;fontColor=#232F3E;fillColor=#C925D1;strokeColor=#ffffff;dashed=0;verticalLabelPosition=bottom;verticalAlign=top;align=center;html=1;fontSize=12;fontStyle=1;aspect=fixed;shape=mxgraph.aws4.resourceIcon;resIcon=mxgraph.aws4.keyspaces;" parent="1" vertex="1">
          <mxGeometry x="2450" y="-877" width="78" height="78" as="geometry" />
        </mxCell>
        <mxCell id="GQwtv-Ke6I7whFhwhaPg-264" value="MemoryDB for Redis&lt;div&gt;&lt;span style=&quot;font-weight: normal;&quot;&gt;Compatible with Redis, data is stored in memory for ultra-low&lt;/span&gt;&lt;/div&gt;&lt;div&gt;&lt;span style=&quot;font-weight: normal;&quot;&gt;latency. Data is stored across multiple AZs&lt;/span&gt;&lt;/div&gt;" style="sketch=0;points=[[0,0,0],[0.25,0,0],[0.5,0,0],[0.75,0,0],[1,0,0],[0,1,0],[0.25,1,0],[0.5,1,0],[0.75,1,0],[1,1,0],[0,0.25,0],[0,0.5,0],[0,0.75,0],[1,0.25,0],[1,0.5,0],[1,0.75,0]];outlineConnect=0;fontColor=#232F3E;fillColor=#C925D1;strokeColor=#ffffff;dashed=0;verticalLabelPosition=bottom;verticalAlign=top;align=center;html=1;fontSize=12;fontStyle=1;aspect=fixed;shape=mxgraph.aws4.resourceIcon;resIcon=mxgraph.aws4.memorydb_for_redis;" parent="1" vertex="1">
          <mxGeometry x="2806" y="-910" width="78" height="78" as="geometry" />
        </mxCell>
        <mxCell id="GQwtv-Ke6I7whFhwhaPg-286" value="Contiuously backs up to S3" style="edgeStyle=none;curved=1;rounded=0;orthogonalLoop=1;jettySize=auto;html=1;fontSize=12;startSize=8;endSize=8;" parent="1" source="GQwtv-Ke6I7whFhwhaPg-265" target="GQwtv-Ke6I7whFhwhaPg-12" edge="1">
          <mxGeometry relative="1" as="geometry" />
        </mxCell>
        <mxCell id="GQwtv-Ke6I7whFhwhaPg-265" value="Neptune&lt;div&gt;&lt;span style=&quot;font-weight: 400;&quot;&gt;Purpose-built graph database supporting read replicas and cross-AZ&lt;/span&gt;&lt;/div&gt;&lt;div&gt;&lt;span style=&quot;font-weight: 400; background-color: transparent; color: light-dark(rgb(35, 47, 62), rgb(189, 199, 212));&quot;&gt;replication,&amp;nbsp;&lt;/span&gt;&lt;span style=&quot;font-weight: 400; background-color: transparent; color: light-dark(rgb(35, 47, 62), rgb(189, 199, 212));&quot;&gt;continuous backup to S3 and&amp;nbsp;&lt;/span&gt;&lt;span style=&quot;background-color: transparent; color: light-dark(rgb(35, 47, 62), rgb(189, 199, 212)); font-weight: 400;&quot;&gt;PIT-recovery and encryption at&amp;nbsp;&lt;/span&gt;&lt;span style=&quot;background-color: transparent; color: light-dark(rgb(35, 47, 62), rgb(189, 199, 212)); font-weight: 400;&quot;&gt;rest.&lt;/span&gt;&lt;/div&gt;&lt;div&gt;&lt;span style=&quot;background-color: transparent; color: light-dark(rgb(35, 47, 62), rgb(189, 199, 212)); font-weight: 400;&quot;&gt;Additionally, Neptune Analytics creates a replica that can be used&lt;/span&gt;&lt;/div&gt;&lt;div&gt;&lt;span style=&quot;background-color: transparent; color: light-dark(rgb(35, 47, 62), rgb(189, 199, 212)); font-weight: 400;&quot;&gt;for graph analytics&lt;/span&gt;&lt;/div&gt;" style="sketch=0;points=[[0,0,0],[0.25,0,0],[0.5,0,0],[0.75,0,0],[1,0,0],[0,1,0],[0.25,1,0],[0.5,1,0],[0.75,1,0],[1,1,0],[0,0.25,0],[0,0.5,0],[0,0.75,0],[1,0.25,0],[1,0.5,0],[1,0.75,0]];outlineConnect=0;fontColor=#232F3E;fillColor=#C925D1;strokeColor=#ffffff;dashed=0;verticalLabelPosition=bottom;verticalAlign=top;align=center;html=1;fontSize=12;fontStyle=1;aspect=fixed;shape=mxgraph.aws4.resourceIcon;resIcon=mxgraph.aws4.neptune;" parent="1" vertex="1">
          <mxGeometry x="3040" y="-850" width="78" height="78" as="geometry" />
        </mxCell>
        <mxCell id="GQwtv-Ke6I7whFhwhaPg-287" value="Retains long-term backups in S3" style="edgeStyle=none;curved=1;rounded=0;orthogonalLoop=1;jettySize=auto;html=1;fontSize=12;startSize=8;endSize=8;" parent="1" source="GQwtv-Ke6I7whFhwhaPg-268" target="GQwtv-Ke6I7whFhwhaPg-12" edge="1">
          <mxGeometry relative="1" as="geometry" />
        </mxCell>
        <mxCell id="GQwtv-Ke6I7whFhwhaPg-268" value="RDS on VMware&lt;div&gt;&lt;span style=&quot;font-weight: normal;&quot;&gt;Allows you to deploy managed databases in your&lt;/span&gt;&lt;/div&gt;&lt;div&gt;&lt;span style=&quot;font-weight: normal;&quot;&gt;on-prem VMware vSphere environments and&lt;/span&gt;&lt;/div&gt;&lt;div&gt;&lt;span style=&quot;font-weight: normal;&quot;&gt;allows for long-term backups in S3&lt;/span&gt;&lt;/div&gt;&lt;div&gt;&lt;span style=&quot;font-weight: normal;&quot;&gt;&lt;br&gt;&lt;/span&gt;&lt;/div&gt;" style="sketch=0;points=[[0,0,0],[0.25,0,0],[0.5,0,0],[0.75,0,0],[1,0,0],[0,1,0],[0.25,1,0],[0.5,1,0],[0.75,1,0],[1,1,0],[0,0.25,0],[0,0.5,0],[0,0.75,0],[1,0.25,0],[1,0.5,0],[1,0.75,0]];outlineConnect=0;fontColor=#232F3E;fillColor=#C925D1;strokeColor=#ffffff;dashed=0;verticalLabelPosition=bottom;verticalAlign=top;align=center;html=1;fontSize=12;fontStyle=1;aspect=fixed;shape=mxgraph.aws4.resourceIcon;resIcon=mxgraph.aws4.rds_on_vmware;" parent="1" vertex="1">
          <mxGeometry x="2740" y="-600" width="78" height="78" as="geometry" />
        </mxCell>
        <mxCell id="GQwtv-Ke6I7whFhwhaPg-274" value="" style="group" parent="1" vertex="1" connectable="0">
          <mxGeometry x="2740" y="-740" width="78" height="78" as="geometry" />
        </mxCell>
        <mxCell id="GQwtv-Ke6I7whFhwhaPg-269" value="RDS for Db2&lt;div&gt;&lt;span style=&quot;font-weight: normal;&quot;&gt;Makes IBM Db2 managed, redundant and scalable&lt;/span&gt;&lt;/div&gt;" style="sketch=0;points=[[0,0,0],[0.25,0,0],[0.5,0,0],[0.75,0,0],[1,0,0],[0,1,0],[0.25,1,0],[0.5,1,0],[0.75,1,0],[1,1,0],[0,0.25,0],[0,0.5,0],[0,0.75,0],[1,0.25,0],[1,0.5,0],[1,0.75,0]];outlineConnect=0;fontColor=#232F3E;fillColor=#C925D1;strokeColor=#ffffff;dashed=0;verticalLabelPosition=bottom;verticalAlign=top;align=center;html=1;fontSize=12;fontStyle=1;aspect=fixed;shape=mxgraph.aws4.resourceIcon;resIcon=mxgraph.aws4.rds_on_vmware;" parent="GQwtv-Ke6I7whFhwhaPg-274" vertex="1">
          <mxGeometry width="78" height="78" as="geometry" />
        </mxCell>
        <mxCell id="GQwtv-Ke6I7whFhwhaPg-273" value="" style="rounded=0;whiteSpace=wrap;html=1;fillColor=light-dark(#FFFFFF,#FF7CFF);strokeColor=none;" parent="GQwtv-Ke6I7whFhwhaPg-274" vertex="1">
          <mxGeometry x="38" y="50" width="40" height="28" as="geometry" />
        </mxCell>
        <mxCell id="GQwtv-Ke6I7whFhwhaPg-271" value="" style="fillColor=light-dark(#FFFFFF,#000000);strokeColor=none;dashed=0;outlineConnect=0;html=1;labelPosition=center;verticalLabelPosition=bottom;verticalAlign=top;part=1;movable=1;resizable=1;rotatable=1;shape=mxgraph.ibm_cloud.ibm--db2;deletable=1;editable=1;locked=0;connectable=1;fillStyle=auto;" parent="GQwtv-Ke6I7whFhwhaPg-274" vertex="1">
          <mxGeometry x="40" y="45" width="30" height="30" as="geometry" />
        </mxCell>
        <mxCell id="GQwtv-Ke6I7whFhwhaPg-275" value="Timestream&lt;div&gt;&lt;span style=&quot;font-weight: normal;&quot;&gt;Purpose-built timeseries database with automatic roll-ups,&lt;/span&gt;&lt;/div&gt;&lt;div&gt;&lt;span style=&quot;font-weight: normal;&quot;&gt;retention, tiering and data compression&amp;nbsp;&lt;/span&gt;&lt;/div&gt;" style="sketch=0;points=[[0,0,0],[0.25,0,0],[0.5,0,0],[0.75,0,0],[1,0,0],[0,1,0],[0.25,1,0],[0.5,1,0],[0.75,1,0],[1,1,0],[0,0.25,0],[0,0.5,0],[0,0.75,0],[1,0.25,0],[1,0.5,0],[1,0.75,0]];outlineConnect=0;fontColor=#232F3E;fillColor=#C925D1;strokeColor=#ffffff;dashed=0;verticalLabelPosition=bottom;verticalAlign=top;align=center;html=1;fontSize=12;fontStyle=1;aspect=fixed;shape=mxgraph.aws4.resourceIcon;resIcon=mxgraph.aws4.timestream;" parent="1" vertex="1">
          <mxGeometry x="3310" y="-772" width="78" height="78" as="geometry" />
        </mxCell>
        <mxCell id="GQwtv-Ke6I7whFhwhaPg-276" value="DocumentDB (with MongoDB compatibility)&lt;div&gt;&lt;span style=&quot;font-weight: normal;&quot;&gt;Designed from the ground up for performance, scalability&lt;/span&gt;&lt;/div&gt;&lt;div&gt;&lt;span style=&quot;font-weight: normal;&quot;&gt;and, reliability, emulating MongoDB responses so that you&lt;/span&gt;&lt;/div&gt;&lt;div&gt;&lt;span style=&quot;font-weight: normal;&quot;&gt;can use your existing MongoDB drivers and tools&lt;/span&gt;&lt;/div&gt;" style="sketch=0;points=[[0,0,0],[0.25,0,0],[0.5,0,0],[0.75,0,0],[1,0,0],[0,1,0],[0.25,1,0],[0.5,1,0],[0.75,1,0],[1,1,0],[0,0.25,0],[0,0.5,0],[0,0.75,0],[1,0.25,0],[1,0.5,0],[1,0.75,0]];outlineConnect=0;fontColor=#232F3E;fillColor=#C925D1;strokeColor=#ffffff;dashed=0;verticalLabelPosition=bottom;verticalAlign=top;align=center;html=1;fontSize=12;fontStyle=1;aspect=fixed;shape=mxgraph.aws4.resourceIcon;resIcon=mxgraph.aws4.documentdb_with_mongodb_compatibility;" parent="1" vertex="1">
          <mxGeometry x="3290" y="-600" width="78" height="78" as="geometry" />
        </mxCell>
        <mxCell id="GQwtv-Ke6I7whFhwhaPg-280" value="Memcached&lt;div&gt;&lt;span style=&quot;font-weight: normal;&quot;&gt;Popular object&lt;/span&gt;&lt;/div&gt;&lt;div&gt;&lt;span style=&quot;font-weight: normal;&quot;&gt;caching system&lt;/span&gt;&lt;/div&gt;" style="sketch=0;outlineConnect=0;fontColor=#232F3E;gradientColor=none;fillColor=#C925D1;strokeColor=none;dashed=0;verticalLabelPosition=bottom;verticalAlign=top;align=center;html=1;fontSize=12;fontStyle=1;aspect=fixed;pointerEvents=1;shape=mxgraph.aws4.elasticache_for_memcached;" parent="1" vertex="1">
          <mxGeometry x="3133" y="-1050" width="78" height="69" as="geometry" />
        </mxCell>
        <mxCell id="GQwtv-Ke6I7whFhwhaPg-281" value="Redis&lt;div&gt;&lt;span style=&quot;font-weight: normal;&quot;&gt;In-memory key-value&lt;/span&gt;&lt;/div&gt;&lt;div&gt;&lt;span style=&quot;font-weight: normal;&quot;&gt;data store&lt;/span&gt;&lt;/div&gt;" style="sketch=0;outlineConnect=0;fontColor=#232F3E;gradientColor=none;fillColor=#C925D1;strokeColor=none;dashed=0;verticalLabelPosition=bottom;verticalAlign=top;align=center;html=1;fontSize=12;fontStyle=1;aspect=fixed;pointerEvents=1;shape=mxgraph.aws4.elasticache_for_redis;" parent="1" vertex="1">
          <mxGeometry x="3273" y="-1050" width="78" height="69" as="geometry" />
        </mxCell>
        <mxCell id="GQwtv-Ke6I7whFhwhaPg-278" value="RDS fully manages Aurora" style="edgeStyle=none;curved=1;rounded=0;orthogonalLoop=1;jettySize=auto;html=1;fontSize=12;startSize=8;endSize=8;" parent="1" source="GQwtv-Ke6I7whFhwhaPg-60" target="GQwtv-Ke6I7whFhwhaPg-261" edge="1">
          <mxGeometry relative="1" as="geometry" />
        </mxCell>
        <mxCell id="GQwtv-Ke6I7whFhwhaPg-291" value="" style="group" parent="1" vertex="1" connectable="0">
          <mxGeometry x="3550" y="-960" width="78" height="78" as="geometry" />
        </mxCell>
        <mxCell id="GQwtv-Ke6I7whFhwhaPg-288" value="&lt;b&gt;Lightsail managed databases&lt;/b&gt;&lt;div&gt;These database are managed separately from other&lt;/div&gt;&lt;div&gt;databases to keep things clean. Lightsail bundle the&lt;/div&gt;&lt;div&gt;underlying compute, storage and data transfer into&lt;/div&gt;&lt;div&gt;a fixed monthly price&lt;/div&gt;" style="sketch=0;points=[[0,0,0],[0.25,0,0],[0.5,0,0],[0.75,0,0],[1,0,0],[0,1,0],[0.25,1,0],[0.5,1,0],[0.75,1,0],[1,1,0],[0,0.25,0],[0,0.5,0],[0,0.75,0],[1,0.25,0],[1,0.5,0],[1,0.75,0]];outlineConnect=0;fontColor=#232F3E;fillColor=light-dark(#ED7100,#FF7CFF);strokeColor=#ffffff;dashed=0;verticalLabelPosition=bottom;verticalAlign=top;align=center;html=1;fontSize=12;fontStyle=0;aspect=fixed;shape=mxgraph.aws4.resourceIcon;resIcon=mxgraph.aws4.lightsail;" parent="GQwtv-Ke6I7whFhwhaPg-291" vertex="1">
          <mxGeometry width="78" height="78" as="geometry" />
        </mxCell>
        <mxCell id="GQwtv-Ke6I7whFhwhaPg-289" value="" style="sketch=0;points=[[0,0,0],[0.25,0,0],[0.5,0,0],[0.75,0,0],[1,0,0],[0,1,0],[0.25,1,0],[0.5,1,0],[0.75,1,0],[1,1,0],[0,0.25,0],[0,0.5,0],[0,0.75,0],[1,0.25,0],[1,0.5,0],[1,0.75,0]];outlineConnect=0;fontColor=#232F3E;fillColor=none;strokeColor=#ffffff;dashed=0;verticalLabelPosition=bottom;verticalAlign=top;align=center;html=1;fontSize=12;fontStyle=0;aspect=fixed;shape=mxgraph.aws4.resourceIcon;resIcon=mxgraph.aws4.database;strokeWidth=1;" parent="GQwtv-Ke6I7whFhwhaPg-291" vertex="1">
          <mxGeometry x="52" y="52" width="26" height="26" as="geometry" />
        </mxCell>
        <mxCell id="GQwtv-Ke6I7whFhwhaPg-292" value="Developer Tools" style="sketch=0;points=[[0,0,0],[0.25,0,0],[0.5,0,0],[0.75,0,0],[1,0,0],[0,1,0],[0.25,1,0],[0.5,1,0],[0.75,1,0],[1,1,0],[0,0.25,0],[0,0.5,0],[0,0.75,0],[1,0.25,0],[1,0.5,0],[1,0.75,0]];outlineConnect=0;fontColor=#232F3E;fillColor=#C925D1;strokeColor=#ffffff;dashed=0;verticalLabelPosition=middle;verticalAlign=middle;align=left;html=1;fontSize=48;fontStyle=1;aspect=fixed;shape=mxgraph.aws4.resourceIcon;resIcon=mxgraph.aws4.developer_tools;labelPosition=right;spacingLeft=15;" parent="1" vertex="1">
          <mxGeometry x="580" y="-790" width="120" height="120" as="geometry" />
        </mxCell>
        <mxCell id="GQwtv-Ke6I7whFhwhaPg-293" value="Infrastructure Composer&lt;div&gt;&lt;span style=&quot;font-weight: normal;&quot;&gt;A visual, drag-and-drop UI that allows you to build&lt;/span&gt;&lt;/div&gt;&lt;div&gt;&lt;span style=&quot;font-weight: normal;&quot;&gt;serverless infrastructure architectures. The tool can&lt;/span&gt;&lt;/div&gt;&lt;div&gt;&lt;span style=&quot;font-weight: normal;&quot;&gt;output&amp;nbsp;&lt;/span&gt;&lt;span style=&quot;font-weight: normal; background-color: transparent; color: light-dark(rgb(35, 47, 62), rgb(189, 199, 212));&quot;&gt;both&amp;nbsp;&lt;/span&gt;&lt;span style=&quot;font-weight: normal; background-color: transparent; color: light-dark(rgb(35, 47, 62), rgb(189, 199, 212));&quot;&gt;CloudFormation and Serverless&lt;/span&gt;&lt;/div&gt;&lt;div&gt;&lt;span style=&quot;font-weight: normal; background-color: transparent; color: light-dark(rgb(35, 47, 62), rgb(189, 199, 212));&quot;&gt;Application Model (SAM)&amp;nbsp;&lt;/span&gt;&lt;span style=&quot;font-weight: normal; background-color: transparent; color: light-dark(rgb(35, 47, 62), rgb(189, 199, 212));&quot;&gt;artifacts&lt;/span&gt;&lt;/div&gt;&lt;div&gt;&lt;span style=&quot;font-weight: normal; background-color: transparent; color: light-dark(rgb(35, 47, 62), rgb(189, 199, 212));&quot;&gt;A VS Code Extension is also available&amp;nbsp;&lt;/span&gt;&lt;/div&gt;" style="sketch=0;points=[[0,0,0],[0.25,0,0],[0.5,0,0],[0.75,0,0],[1,0,0],[0,1,0],[0.25,1,0],[0.5,1,0],[0.75,1,0],[1,1,0],[0,0.25,0],[0,0.5,0],[0,0.75,0],[1,0.25,0],[1,0.5,0],[1,0.75,0]];outlineConnect=0;fontColor=#232F3E;fillColor=#C925D1;strokeColor=#ffffff;dashed=0;verticalLabelPosition=bottom;verticalAlign=top;align=center;html=1;fontSize=12;fontStyle=1;aspect=fixed;shape=mxgraph.aws4.resourceIcon;resIcon=mxgraph.aws4.application_composer;" parent="1" vertex="1">
          <mxGeometry x="706" y="-630" width="78" height="78" as="geometry" />
        </mxCell>
        <mxCell id="GQwtv-Ke6I7whFhwhaPg-295" value="Cloud&lt;span style=&quot;background-color: transparent; color: light-dark(rgb(35, 47, 62), rgb(189, 199, 212));&quot;&gt;9 (DISCONTINUED)&lt;/span&gt;&lt;div&gt;&lt;span style=&quot;background-color: transparent; color: light-dark(rgb(35, 47, 62), rgb(189, 199, 212)); font-weight: normal;&quot;&gt;A browser-based IDE that supports writing,&lt;/span&gt;&lt;/div&gt;&lt;div&gt;&lt;span style=&quot;background-color: transparent; color: light-dark(rgb(35, 47, 62), rgb(189, 199, 212)); font-weight: normal;&quot;&gt;running and, debugging code&lt;/span&gt;&lt;/div&gt;" style="sketch=0;points=[[0,0,0],[0.25,0,0],[0.5,0,0],[0.75,0,0],[1,0,0],[0,1,0],[0.25,1,0],[0.5,1,0],[0.75,1,0],[1,1,0],[0,0.25,0],[0,0.5,0],[0,0.75,0],[1,0.25,0],[1,0.5,0],[1,0.75,0]];outlineConnect=0;fontColor=#232F3E;fillColor=#C925D1;strokeColor=#ffffff;dashed=0;verticalLabelPosition=bottom;verticalAlign=top;align=center;html=1;fontSize=12;fontStyle=1;aspect=fixed;shape=mxgraph.aws4.resourceIcon;resIcon=mxgraph.aws4.cloud9;" parent="1" vertex="1">
          <mxGeometry x="982" y="-620" width="78" height="78" as="geometry" />
        </mxCell>
        <mxCell id="GQwtv-Ke6I7whFhwhaPg-296" value="CloudShell&lt;br&gt;&lt;span style=&quot;font-weight: normal;&quot;&gt;A browser-based terminal right inside the&lt;/span&gt;&lt;div&gt;&lt;span style=&quot;font-weight: 400;&quot;&gt;AWS Console, pre-authenticated with your&lt;/span&gt;&lt;/div&gt;&lt;div&gt;&lt;span style=&quot;font-weight: 400;&quot;&gt;console credentials that allows you to interact with&lt;/span&gt;&lt;/div&gt;&lt;div&gt;&lt;span style=&quot;font-weight: 400;&quot;&gt;your AWS account using the AWS CLI&lt;/span&gt;&lt;/div&gt;" style="sketch=0;points=[[0,0,0],[0.25,0,0],[0.5,0,0],[0.75,0,0],[1,0,0],[0,1,0],[0.25,1,0],[0.5,1,0],[0.75,1,0],[1,1,0],[0,0.25,0],[0,0.5,0],[0,0.75,0],[1,0.25,0],[1,0.5,0],[1,0.75,0]];outlineConnect=0;fontColor=#232F3E;fillColor=#C925D1;strokeColor=#ffffff;dashed=0;verticalLabelPosition=bottom;verticalAlign=top;align=center;html=1;fontSize=12;fontStyle=1;aspect=fixed;shape=mxgraph.aws4.resourceIcon;resIcon=mxgraph.aws4.cloudshell;" parent="1" vertex="1">
          <mxGeometry x="1252" y="-610" width="78" height="78" as="geometry" />
        </mxCell>
        <mxCell id="GQwtv-Ke6I7whFhwhaPg-297" value="CodeArtifact&lt;div&gt;&lt;span style=&quot;font-weight: normal;&quot;&gt;Artifact repository for storing, publishing and&lt;/span&gt;&lt;/div&gt;&lt;div&gt;&lt;span style=&quot;font-weight: normal;&quot;&gt;sharing software packages and dependencies&lt;/span&gt;&lt;/div&gt;&lt;div&gt;&lt;span style=&quot;font-weight: normal;&quot;&gt;and it works with popular package managers&lt;/span&gt;&lt;/div&gt;&lt;div&gt;&lt;span style=&quot;font-weight: normal;&quot;&gt;like npm, yarn, pip, nuget and more&lt;/span&gt;&lt;/div&gt;" style="sketch=0;points=[[0,0,0],[0.25,0,0],[0.5,0,0],[0.75,0,0],[1,0,0],[0,1,0],[0.25,1,0],[0.5,1,0],[0.75,1,0],[1,1,0],[0,0.25,0],[0,0.5,0],[0,0.75,0],[1,0.25,0],[1,0.5,0],[1,0.75,0]];outlineConnect=0;fontColor=#232F3E;fillColor=#C925D1;strokeColor=#ffffff;dashed=0;verticalLabelPosition=bottom;verticalAlign=top;align=center;html=1;fontSize=12;fontStyle=1;aspect=fixed;shape=mxgraph.aws4.resourceIcon;resIcon=mxgraph.aws4.codeartifact;" parent="1" vertex="1">
          <mxGeometry x="1470" y="-740" width="78" height="78" as="geometry" />
        </mxCell>
        <mxCell id="GQwtv-Ke6I7whFhwhaPg-298" value="CodeBuild&lt;div&gt;&lt;span style=&quot;font-weight: 400;&quot;&gt;Managed build service that compiles source code,&lt;/span&gt;&lt;/div&gt;&lt;div&gt;&lt;span style=&quot;font-weight: 400;&quot;&gt;runs tests and produces software packages ready&lt;/span&gt;&lt;/div&gt;&lt;div&gt;&lt;span style=&quot;font-weight: 400;&quot;&gt;to deploy. It continuously scales so as to&lt;/span&gt;&lt;/div&gt;&lt;div&gt;&lt;span style=&quot;font-weight: 400;&quot;&gt;avoid any build queues&lt;/span&gt;&lt;/div&gt;" style="sketch=0;points=[[0,0,0],[0.25,0,0],[0.5,0,0],[0.75,0,0],[1,0,0],[0,1,0],[0.25,1,0],[0.5,1,0],[0.75,1,0],[1,1,0],[0,0.25,0],[0,0.5,0],[0,0.75,0],[1,0.25,0],[1,0.5,0],[1,0.75,0]];outlineConnect=0;fontColor=#232F3E;fillColor=#C925D1;strokeColor=#ffffff;dashed=0;verticalLabelPosition=bottom;verticalAlign=top;align=center;html=1;fontSize=12;fontStyle=1;aspect=fixed;shape=mxgraph.aws4.resourceIcon;resIcon=mxgraph.aws4.codebuild;" parent="1" vertex="1">
          <mxGeometry x="1760" y="-730" width="78" height="78" as="geometry" />
        </mxCell>
        <mxCell id="GQwtv-Ke6I7whFhwhaPg-299" value="CodeCatalyst&lt;div&gt;&lt;span style=&quot;font-weight: normal;&quot;&gt;Puts all the tools needed for software development into&lt;/span&gt;&lt;/div&gt;&lt;div&gt;&lt;span style=&quot;font-weight: normal;&quot;&gt;one place allowing teams to plan, collaborate, code, build,&lt;/span&gt;&lt;/div&gt;&lt;div&gt;&lt;span style=&quot;font-weight: normal;&quot;&gt;test and deploy (CI/CD) and deliver quickly&lt;/span&gt;&lt;/div&gt;" style="sketch=0;points=[[0,0,0],[0.25,0,0],[0.5,0,0],[0.75,0,0],[1,0,0],[0,1,0],[0.25,1,0],[0.5,1,0],[0.75,1,0],[1,1,0],[0,0.25,0],[0,0.5,0],[0,0.75,0],[1,0.25,0],[1,0.5,0],[1,0.75,0]];outlineConnect=0;fontColor=#232F3E;fillColor=#C925D1;strokeColor=#ffffff;dashed=0;verticalLabelPosition=bottom;verticalAlign=top;align=center;html=1;fontSize=12;fontStyle=1;aspect=fixed;shape=mxgraph.aws4.resourceIcon;resIcon=mxgraph.aws4.codecatalyst;" parent="1" vertex="1">
          <mxGeometry x="702" y="-430" width="78" height="78" as="geometry" />
        </mxCell>
        <mxCell id="GQwtv-Ke6I7whFhwhaPg-300" value="CodeCommit (DISCONTINUED)&lt;div&gt;&lt;span style=&quot;font-weight: normal;&quot;&gt;Source control service where you can host&lt;/span&gt;&lt;/div&gt;&lt;div&gt;&lt;span style=&quot;font-weight: normal;&quot;&gt;private Git-based repositories&amp;nbsp;&lt;/span&gt;&lt;/div&gt;" style="sketch=0;points=[[0,0,0],[0.25,0,0],[0.5,0,0],[0.75,0,0],[1,0,0],[0,1,0],[0.25,1,0],[0.5,1,0],[0.75,1,0],[1,1,0],[0,0.25,0],[0,0.5,0],[0,0.75,0],[1,0.25,0],[1,0.5,0],[1,0.75,0]];outlineConnect=0;fontColor=#232F3E;fillColor=#C925D1;strokeColor=#ffffff;dashed=0;verticalLabelPosition=bottom;verticalAlign=top;align=center;html=1;fontSize=12;fontStyle=1;aspect=fixed;shape=mxgraph.aws4.resourceIcon;resIcon=mxgraph.aws4.codecommit;" parent="1" vertex="1">
          <mxGeometry x="982" y="-430" width="78" height="78" as="geometry" />
        </mxCell>
        <mxCell id="GQwtv-Ke6I7whFhwhaPg-301" value="CodeDeploy&lt;div&gt;&lt;span style=&quot;font-weight: normal;&quot;&gt;Automates deployment to on-prem, EC2,&lt;/span&gt;&lt;/div&gt;&lt;div&gt;&lt;span style=&quot;font-weight: normal;&quot;&gt;ECS and Lambda&lt;/span&gt;&lt;/div&gt;" style="sketch=0;points=[[0,0,0],[0.25,0,0],[0.5,0,0],[0.75,0,0],[1,0,0],[0,1,0],[0.25,1,0],[0.5,1,0],[0.75,1,0],[1,1,0],[0,0.25,0],[0,0.5,0],[0,0.75,0],[1,0.25,0],[1,0.5,0],[1,0.75,0]];outlineConnect=0;fontColor=#232F3E;fillColor=#C925D1;strokeColor=#ffffff;dashed=0;verticalLabelPosition=bottom;verticalAlign=top;align=center;html=1;fontSize=12;fontStyle=1;aspect=fixed;shape=mxgraph.aws4.resourceIcon;resIcon=mxgraph.aws4.codedeploy;" parent="1" vertex="1">
          <mxGeometry x="1252" y="-440" width="78" height="78" as="geometry" />
        </mxCell>
        <mxCell id="GQwtv-Ke6I7whFhwhaPg-302" value="CodePipeline&lt;div&gt;&lt;span style=&quot;font-weight: normal;&quot;&gt;Automates build, test and deploy when code&lt;/span&gt;&lt;/div&gt;&lt;div&gt;&lt;span style=&quot;font-weight: normal;&quot;&gt;changes are committed and you can integrate&lt;/span&gt;&lt;/div&gt;&lt;div&gt;&lt;span style=&quot;font-weight: normal;&quot;&gt;it with third-party services like GitHub&lt;/span&gt;&lt;/div&gt;" style="sketch=0;points=[[0,0,0],[0.25,0,0],[0.5,0,0],[0.75,0,0],[1,0,0],[0,1,0],[0.25,1,0],[0.5,1,0],[0.75,1,0],[1,1,0],[0,0.25,0],[0,0.5,0],[0,0.75,0],[1,0.25,0],[1,0.5,0],[1,0.75,0]];outlineConnect=0;fontColor=#232F3E;fillColor=#C925D1;strokeColor=#ffffff;dashed=0;verticalLabelPosition=bottom;verticalAlign=top;align=center;html=1;fontSize=12;fontStyle=1;aspect=fixed;shape=mxgraph.aws4.resourceIcon;resIcon=mxgraph.aws4.codepipeline;" parent="1" vertex="1">
          <mxGeometry x="1488" y="-534" width="78" height="78" as="geometry" />
        </mxCell>
        <mxCell id="GQwtv-Ke6I7whFhwhaPg-303" value="Coretto&lt;div&gt;&lt;span style=&quot;font-weight: normal;&quot;&gt;Amazon&#39;s own OpenJDK, free of charge&amp;nbsp;&lt;/span&gt;&lt;/div&gt;" style="sketch=0;points=[[0,0,0],[0.25,0,0],[0.5,0,0],[0.75,0,0],[1,0,0],[0,1,0],[0.25,1,0],[0.5,1,0],[0.75,1,0],[1,1,0],[0,0.25,0],[0,0.5,0],[0,0.75,0],[1,0.25,0],[1,0.5,0],[1,0.75,0]];outlineConnect=0;fontColor=#232F3E;fillColor=#C925D1;strokeColor=#ffffff;dashed=0;verticalLabelPosition=bottom;verticalAlign=top;align=center;html=1;fontSize=12;fontStyle=1;aspect=fixed;shape=mxgraph.aws4.resourceIcon;resIcon=mxgraph.aws4.corretto;" parent="1" vertex="1">
          <mxGeometry x="1760" y="-542" width="78" height="78" as="geometry" />
        </mxCell>
        <mxCell id="GQwtv-Ke6I7whFhwhaPg-304" value="Fault Injection Service (FIS)&lt;div&gt;&lt;span style=&quot;font-weight: normal;&quot;&gt;Fully managed chaos engineering used for stressing&lt;/span&gt;&lt;/div&gt;&lt;div&gt;&lt;span style=&quot;font-weight: normal;&quot;&gt;apps in order to improve performance, observability and&lt;/span&gt;&lt;/div&gt;&lt;div&gt;&lt;span style=&quot;font-weight: normal;&quot;&gt;resilience&lt;/span&gt;&lt;/div&gt;" style="sketch=0;points=[[0,0,0],[0.25,0,0],[0.5,0,0],[0.75,0,0],[1,0,0],[0,1,0],[0.25,1,0],[0.5,1,0],[0.75,1,0],[1,1,0],[0,0.25,0],[0,0.5,0],[0,0.75,0],[1,0.25,0],[1,0.5,0],[1,0.75,0]];points=[[0,0,0],[0.25,0,0],[0.5,0,0],[0.75,0,0],[1,0,0],[0,1,0],[0.25,1,0],[0.5,1,0],[0.75,1,0],[1,1,0],[0,0.25,0],[0,0.5,0],[0,0.75,0],[1,0.25,0],[1,0.5,0],[1,0.75,0]];outlineConnect=0;fontColor=#232F3E;fillColor=light-dark(#E7157B,#FF7CFF);strokeColor=#ffffff;dashed=0;verticalLabelPosition=bottom;verticalAlign=top;align=center;html=1;fontSize=12;fontStyle=1;aspect=fixed;shape=mxgraph.aws4.resourceIcon;resIcon=mxgraph.aws4.fault_injection_simulator;" parent="1" vertex="1">
          <mxGeometry x="994" y="-262" width="78" height="78" as="geometry" />
        </mxCell>
        <mxCell id="GQwtv-Ke6I7whFhwhaPg-305" value="X-Ray (part of CloudWatch)&lt;div&gt;&lt;span style=&quot;font-weight: normal;&quot;&gt;Helps developer debug distributed apps using a&lt;/span&gt;&lt;/div&gt;&lt;div&gt;&lt;span style=&quot;font-weight: normal;&quot;&gt;microservice architecture, even spanning across&lt;/span&gt;&lt;/div&gt;&lt;div&gt;&lt;span style=&quot;font-weight: normal;&quot;&gt;multiple accounts&lt;/span&gt;&lt;/div&gt;" style="sketch=0;points=[[0,0,0],[0.25,0,0],[0.5,0,0],[0.75,0,0],[1,0,0],[0,1,0],[0.25,1,0],[0.5,1,0],[0.75,1,0],[1,1,0],[0,0.25,0],[0,0.5,0],[0,0.75,0],[1,0.25,0],[1,0.5,0],[1,0.75,0]];outlineConnect=0;fontColor=#232F3E;fillColor=#C925D1;strokeColor=#ffffff;dashed=0;verticalLabelPosition=bottom;verticalAlign=top;align=center;html=1;fontSize=12;fontStyle=1;aspect=fixed;shape=mxgraph.aws4.resourceIcon;resIcon=mxgraph.aws4.xray;" parent="1" vertex="1">
          <mxGeometry x="700" y="-262" width="78" height="78" as="geometry" />
        </mxCell>
        <mxCell id="GQwtv-Ke6I7whFhwhaPg-306" value="Q Developer (formerly CodeWhisperer)&lt;div&gt;&lt;span style=&quot;font-weight: normal;&quot;&gt;A chatbot (???) that helps with coding, testing&lt;/span&gt;&lt;/div&gt;&lt;div&gt;&lt;span style=&quot;font-weight: normal;&quot;&gt;upgrading applications, diagnosing errors, performing&lt;/span&gt;&lt;/div&gt;&lt;div&gt;&lt;span style=&quot;font-weight: normal;&quot;&gt;security scanning and fixes and, optimising AWS resources&lt;/span&gt;&lt;/div&gt;" style="sketch=0;points=[[0,0,0],[0.25,0,0],[0.5,0,0],[0.75,0,0],[1,0,0],[0,1,0],[0.25,1,0],[0.5,1,0],[0.75,1,0],[1,1,0],[0,0.25,0],[0,0.5,0],[0,0.75,0],[1,0.25,0],[1,0.5,0],[1,0.75,0]];outlineConnect=0;fontColor=#232F3E;fillColor=light-dark(#01A88D,#FF7CFF);strokeColor=#ffffff;dashed=0;verticalLabelPosition=bottom;verticalAlign=top;align=center;html=1;fontSize=12;fontStyle=1;aspect=fixed;shape=mxgraph.aws4.resourceIcon;resIcon=mxgraph.aws4.q;" parent="1" vertex="1">
          <mxGeometry x="1332" y="-280" width="78" height="78" as="geometry" />
        </mxCell>
        <mxCell id="GQwtv-Ke6I7whFhwhaPg-308" value="Cloud Development Kit (&lt;span style=&quot;background-color: transparent; color: light-dark(rgb(35, 47, 62), rgb(189, 199, 212));&quot;&gt;CDK)&lt;/span&gt;&lt;div&gt;&lt;span style=&quot;background-color: transparent; color: light-dark(rgb(35, 47, 62), rgb(189, 199, 212)); font-weight: normal;&quot;&gt;The code package that&#39;s used to interact with AWS&lt;/span&gt;&lt;/div&gt;&lt;div&gt;&lt;span style=&quot;background-color: transparent; color: light-dark(rgb(35, 47, 62), rgb(189, 199, 212)); font-weight: normal;&quot;&gt;programmatically using your favourite programming&lt;/span&gt;&lt;/div&gt;&lt;div&gt;&lt;span style=&quot;background-color: transparent; color: light-dark(rgb(35, 47, 62), rgb(189, 199, 212)); font-weight: normal;&quot;&gt;language&amp;nbsp;&lt;/span&gt;&lt;/div&gt;" style="sketch=0;points=[[0,0,0],[0.25,0,0],[0.5,0,0],[0.75,0,0],[1,0,0],[0,1,0],[0.25,1,0],[0.5,1,0],[0.75,1,0],[1,1,0],[0,0.25,0],[0,0.5,0],[0,0.75,0],[1,0.25,0],[1,0.5,0],[1,0.75,0]];outlineConnect=0;fontColor=#232F3E;fillColor=#C925D1;strokeColor=#ffffff;dashed=0;verticalLabelPosition=bottom;verticalAlign=top;align=center;html=1;fontSize=12;fontStyle=1;aspect=fixed;shape=mxgraph.aws4.resourceIcon;resIcon=mxgraph.aws4.cloud_development_kit;" parent="1" vertex="1">
          <mxGeometry x="1933" y="-464" width="78" height="78" as="geometry" />
        </mxCell>
        <mxCell id="GQwtv-Ke6I7whFhwhaPg-309" value="CodeStar (DISCONTINUED)&lt;div&gt;&lt;span style=&quot;font-weight: 400;&quot;&gt;A unified interface to manage all software development&lt;/span&gt;&lt;/div&gt;&lt;div&gt;&lt;span style=&quot;font-weight: 400;&quot;&gt;activities in one place.&lt;/span&gt;&lt;/div&gt;&lt;div&gt;&lt;span style=&quot;font-weight: 400;&quot;&gt;It almost sounds like it was replaced by&lt;/span&gt;&lt;/div&gt;&lt;div&gt;&lt;span style=&quot;font-weight: 400;&quot;&gt;CodeCatalyst or CodePipeline&lt;/span&gt;&lt;/div&gt;" style="sketch=0;points=[[0,0,0],[0.25,0,0],[0.5,0,0],[0.75,0,0],[1,0,0],[0,1,0],[0.25,1,0],[0.5,1,0],[0.75,1,0],[1,1,0],[0,0.25,0],[0,0.5,0],[0,0.75,0],[1,0.25,0],[1,0.5,0],[1,0.75,0]];outlineConnect=0;fontColor=#232F3E;fillColor=#C925D1;strokeColor=#ffffff;dashed=0;verticalLabelPosition=bottom;verticalAlign=top;align=center;html=1;fontSize=12;fontStyle=1;aspect=fixed;shape=mxgraph.aws4.resourceIcon;resIcon=mxgraph.aws4.codestar;" parent="1" vertex="1">
          <mxGeometry x="1810" y="-299" width="78" height="78" as="geometry" />
        </mxCell>
        <mxCell id="GQwtv-Ke6I7whFhwhaPg-310" value="Command Line Interface (CLI)&lt;div&gt;&lt;span style=&quot;font-weight: normal;&quot;&gt;The terminal tool that allows you to interact with AWS&lt;/span&gt;&lt;/div&gt;&lt;div&gt;&lt;span style=&quot;font-weight: normal;&quot;&gt;(one of the primary ways)&lt;/span&gt;&lt;/div&gt;" style="sketch=0;points=[[0,0,0],[0.25,0,0],[0.5,0,0],[0.75,0,0],[1,0,0],[0,1,0],[0.25,1,0],[0.5,1,0],[0.75,1,0],[1,1,0],[0,0.25,0],[0,0.5,0],[0,0.75,0],[1,0.25,0],[1,0.5,0],[1,0.75,0]];outlineConnect=0;fontColor=#232F3E;fillColor=#C925D1;strokeColor=#ffffff;dashed=0;verticalLabelPosition=bottom;verticalAlign=top;align=center;html=1;fontSize=12;fontStyle=1;aspect=fixed;shape=mxgraph.aws4.resourceIcon;resIcon=mxgraph.aws4.command_line_interface;" parent="1" vertex="1">
          <mxGeometry x="1558" y="-352" width="78" height="78" as="geometry" />
        </mxCell>
        <mxCell id="Me6KZ-e09-LLOQmQ4gK6-1" value="End user computing" style="sketch=0;points=[[0,0,0],[0.25,0,0],[0.5,0,0],[0.75,0,0],[1,0,0],[0,1,0],[0.25,1,0],[0.5,1,0],[0.75,1,0],[1,1,0],[0,0.25,0],[0,0.5,0],[0,0.75,0],[1,0.25,0],[1,0.5,0],[1,0.75,0]];outlineConnect=0;fontColor=#232F3E;fillColor=#01A88D;strokeColor=#ffffff;dashed=0;verticalLabelPosition=middle;verticalAlign=middle;align=left;html=1;fontSize=48;fontStyle=1;aspect=fixed;shape=mxgraph.aws4.resourceIcon;resIcon=mxgraph.aws4.desktop_and_app_streaming;labelPosition=right;spacingLeft=15;" vertex="1" parent="1">
          <mxGeometry x="560" y="-1680" width="120" height="120" as="geometry" />
        </mxCell>
        <mxCell id="Me6KZ-e09-LLOQmQ4gK6-3" value="AppStream 2.0&lt;div&gt;&lt;span style=&quot;font-weight: normal;&quot;&gt;Fully managed service that allows you to stream&lt;/span&gt;&lt;/div&gt;&lt;div&gt;&lt;span style=&quot;font-weight: normal;&quot;&gt;desktop applications anywhere in the world&lt;/span&gt;&lt;/div&gt;" style="sketch=0;points=[[0,0,0],[0.25,0,0],[0.5,0,0],[0.75,0,0],[1,0,0],[0,1,0],[0.25,1,0],[0.5,1,0],[0.75,1,0],[1,1,0],[0,0.25,0],[0,0.5,0],[0,0.75,0],[1,0.25,0],[1,0.5,0],[1,0.75,0]];outlineConnect=0;fontColor=#232F3E;fillColor=#01A88D;strokeColor=#ffffff;dashed=0;verticalLabelPosition=bottom;verticalAlign=top;align=center;html=1;fontSize=12;fontStyle=1;aspect=fixed;shape=mxgraph.aws4.resourceIcon;resIcon=mxgraph.aws4.appstream_20;" vertex="1" parent="1">
          <mxGeometry x="700" y="-1480" width="78" height="78" as="geometry" />
        </mxCell>
        <mxCell id="Me6KZ-e09-LLOQmQ4gK6-4" value="WorkSpaces&lt;div&gt;&lt;span style=&quot;font-weight: normal;&quot;&gt;Fully managed cloud desktop service offering&lt;/span&gt;&lt;/div&gt;&lt;div&gt;&lt;span style=&quot;font-weight: normal;&quot;&gt;Windows and Linux desktops anywhere in the&lt;/span&gt;&lt;/div&gt;&lt;div&gt;&lt;span style=&quot;font-weight: normal;&quot;&gt;world and, you only pay for the WorkSpaces&lt;/span&gt;&lt;/div&gt;&lt;div&gt;&lt;span style=&quot;font-weight: normal;&quot;&gt;you launch&lt;/span&gt;&lt;/div&gt;" style="sketch=0;points=[[0,0,0],[0.25,0,0],[0.5,0,0],[0.75,0,0],[1,0,0],[0,1,0],[0.25,1,0],[0.5,1,0],[0.75,1,0],[1,1,0],[0,0.25,0],[0,0.5,0],[0,0.75,0],[1,0.25,0],[1,0.5,0],[1,0.75,0]];outlineConnect=0;fontColor=#232F3E;fillColor=#01A88D;strokeColor=#ffffff;dashed=0;verticalLabelPosition=bottom;verticalAlign=top;align=center;html=1;fontSize=12;fontStyle=1;aspect=fixed;shape=mxgraph.aws4.resourceIcon;resIcon=mxgraph.aws4.workspaces;" vertex="1" parent="1">
          <mxGeometry x="1337" y="-1370" width="78" height="78" as="geometry" />
        </mxCell>
        <mxCell id="Me6KZ-e09-LLOQmQ4gK6-7" value="WorkSpaces Core&#xa;Virtual desktop infrastructure (VDI) and&#xa;APIs for third-party VDI software" style="group;fontStyle=0;fontColor=light-dark(#000000,#BDC7D4);labelPosition=center;verticalLabelPosition=bottom;align=center;verticalAlign=top;" vertex="1" connectable="0" parent="1">
          <mxGeometry x="1063" y="-1358" width="77" height="78" as="geometry" />
        </mxCell>
        <mxCell id="Me6KZ-e09-LLOQmQ4gK6-6" value="" style="rounded=0;whiteSpace=wrap;html=1;strokeColor=none;fillColor=light-dark(#FFFFFF,#0E9D86);" vertex="1" parent="Me6KZ-e09-LLOQmQ4gK6-7">
          <mxGeometry width="77" height="78" as="geometry" />
        </mxCell>
        <mxCell id="Me6KZ-e09-LLOQmQ4gK6-5" value="" style="sketch=0;outlineConnect=0;dashed=0;verticalLabelPosition=bottom;verticalAlign=top;align=center;html=1;fontSize=12;fontStyle=0;aspect=fixed;shape=mxgraph.aws4.workspaces_family_amazon_workspaces_core;perimeterSpacing=0;fillColor=light-dark(#FFFFFF,#000000);strokeColor=light-dark(#000000,#0E9D86);strokeWidth=10;gradientColor=none;" vertex="1" parent="Me6KZ-e09-LLOQmQ4gK6-7">
          <mxGeometry x="3.4500000000000455" y="3.5" width="70.09" height="71" as="geometry" />
        </mxCell>
        <mxCell id="Me6KZ-e09-LLOQmQ4gK6-8" value="WorkSpaces Thin Client&lt;div&gt;&lt;span style=&quot;font-weight: normal;&quot;&gt;A physical device that works with AWS EUC&lt;/span&gt;&lt;/div&gt;&lt;div&gt;&lt;span style=&quot;font-weight: normal;&quot;&gt;to provide users with cloud desktops&lt;/span&gt;&lt;/div&gt;" style="sketch=0;points=[[0,0,0],[0.25,0,0],[0.5,0,0],[0.75,0,0],[1,0,0],[0,1,0],[0.25,1,0],[0.5,1,0],[0.75,1,0],[1,1,0],[0,0.25,0],[0,0.5,0],[0,0.75,0],[1,0.25,0],[1,0.5,0],[1,0.75,0]];outlineConnect=0;fontColor=#232F3E;fillColor=#01A88D;strokeColor=#ffffff;dashed=0;verticalLabelPosition=bottom;verticalAlign=top;align=center;html=1;fontSize=12;fontStyle=1;aspect=fixed;shape=mxgraph.aws4.resourceIcon;resIcon=mxgraph.aws4.workspaces_thin_client;" vertex="1" parent="1">
          <mxGeometry x="1064" y="-1148" width="78" height="78" as="geometry" />
        </mxCell>
        <mxCell id="Me6KZ-e09-LLOQmQ4gK6-11" value="WorkSpaces Web (a.k.a., Secure Browser)&#xa;A fully managed workspace built specifically to&#xa;facilitate secure access to internal websites and&#xa;SaaS applications from existing web browsers" style="group;fontStyle=0;labelPosition=center;verticalLabelPosition=bottom;align=center;verticalAlign=top;fontColor=light-dark(#000000,#BDC7D4);" vertex="1" connectable="0" parent="1">
          <mxGeometry x="1345" y="-1160" width="77" height="78" as="geometry" />
        </mxCell>
        <mxCell id="Me6KZ-e09-LLOQmQ4gK6-10" value="" style="rounded=0;whiteSpace=wrap;html=1;fillColor=light-dark(#FFFFFF,#0E9D86);strokeColor=none;" vertex="1" parent="Me6KZ-e09-LLOQmQ4gK6-11">
          <mxGeometry width="77" height="78" as="geometry" />
        </mxCell>
        <mxCell id="Me6KZ-e09-LLOQmQ4gK6-9" value="" style="sketch=0;outlineConnect=0;fontColor=#232F3E;gradientColor=none;fillColor=light-dark(#01A88D,#000000);strokeColor=none;dashed=0;verticalLabelPosition=bottom;verticalAlign=top;align=center;html=1;fontSize=12;fontStyle=0;aspect=fixed;shape=mxgraph.aws4.workspaces_workspaces_web;" vertex="1" parent="Me6KZ-e09-LLOQmQ4gK6-11">
          <mxGeometry x="8.460000000000036" y="12" width="60.08" height="57" as="geometry" />
        </mxCell>
        <mxCell id="Me6KZ-e09-LLOQmQ4gK6-12" value="WorkLink (superceded by Secure Browser)&lt;div&gt;&lt;span style=&quot;font-weight: 400;&quot;&gt;A fully managed workspace built specifically to&lt;/span&gt;&lt;br style=&quot;padding: 0px; margin: 0px; font-weight: 400;&quot;&gt;&lt;span style=&quot;font-weight: 400;&quot;&gt;facilitate secure access to internal websites and&lt;/span&gt;&lt;br style=&quot;padding: 0px; margin: 0px; font-weight: 400;&quot;&gt;&lt;span style=&quot;font-weight: 400;&quot;&gt;SaaS applications from existing web browsers&lt;/span&gt;&lt;/div&gt;" style="sketch=0;points=[[0,0,0],[0.25,0,0],[0.5,0,0],[0.75,0,0],[1,0,0],[0,1,0],[0.25,1,0],[0.5,1,0],[0.75,1,0],[1,1,0],[0,0.25,0],[0,0.5,0],[0,0.75,0],[1,0.25,0],[1,0.5,0],[1,0.75,0]];outlineConnect=0;fontColor=#232F3E;fillColor=#01A88D;strokeColor=#ffffff;dashed=0;verticalLabelPosition=bottom;verticalAlign=top;align=center;html=1;fontSize=12;fontStyle=1;aspect=fixed;shape=mxgraph.aws4.resourceIcon;resIcon=mxgraph.aws4.worklink;" vertex="1" parent="1">
          <mxGeometry x="692" y="-1268" width="78" height="78" as="geometry" />
        </mxCell>
        <mxCell id="Me6KZ-e09-LLOQmQ4gK6-17" value="Front-end web &amp;amp; mobile services" style="sketch=0;points=[[0,0,0],[0.25,0,0],[0.5,0,0],[0.75,0,0],[1,0,0],[0,1,0],[0.25,1,0],[0.5,1,0],[0.75,1,0],[1,1,0],[0,0.25,0],[0,0.5,0],[0,0.75,0],[1,0.25,0],[1,0.5,0],[1,0.75,0]];outlineConnect=0;fontColor=#232F3E;fillColor=#DD344C;strokeColor=#ffffff;dashed=0;verticalLabelPosition=middle;verticalAlign=middle;align=left;html=1;fontSize=48;fontStyle=1;aspect=fixed;shape=mxgraph.aws4.resourceIcon;resIcon=mxgraph.aws4.mobile;labelPosition=right;spacingLeft=15;" vertex="1" parent="1">
          <mxGeometry x="1990" y="-1940" width="120" height="120" as="geometry" />
        </mxCell>
        <mxCell id="Me6KZ-e09-LLOQmQ4gK6-19" value="Amplify" style="sketch=0;points=[[0,0,0],[0.25,0,0],[0.5,0,0],[0.75,0,0],[1,0,0],[0,1,0],[0.25,1,0],[0.5,1,0],[0.75,1,0],[1,1,0],[0,0.25,0],[0,0.5,0],[0,0.75,0],[1,0.25,0],[1,0.5,0],[1,0.75,0]];outlineConnect=0;fontColor=#232F3E;fillColor=#DD344C;strokeColor=#ffffff;dashed=0;verticalLabelPosition=bottom;verticalAlign=top;align=center;html=1;fontSize=12;fontStyle=1;aspect=fixed;shape=mxgraph.aws4.resourceIcon;resIcon=mxgraph.aws4.amplify;" vertex="1" parent="1">
          <mxGeometry x="2080" y="-1780" width="78" height="78" as="geometry" />
        </mxCell>
        <mxCell id="Me6KZ-e09-LLOQmQ4gK6-20" value="AppSync" style="sketch=0;points=[[0,0,0],[0.25,0,0],[0.5,0,0],[0.75,0,0],[1,0,0],[0,1,0],[0.25,1,0],[0.5,1,0],[0.75,1,0],[1,1,0],[0,0.25,0],[0,0.5,0],[0,0.75,0],[1,0.25,0],[1,0.5,0],[1,0.75,0]];outlineConnect=0;fontColor=#232F3E;fillColor=light-dark(#E7157B,#FF7F93);strokeColor=#ffffff;dashed=0;verticalLabelPosition=bottom;verticalAlign=top;align=center;html=1;fontSize=12;fontStyle=1;aspect=fixed;shape=mxgraph.aws4.resourceIcon;resIcon=mxgraph.aws4.appsync;" vertex="1" parent="1">
          <mxGeometry x="2341" y="-1550" width="78" height="78" as="geometry" />
        </mxCell>
        <mxCell id="Me6KZ-e09-LLOQmQ4gK6-21" value="Device Farm" style="sketch=0;points=[[0,0,0],[0.25,0,0],[0.5,0,0],[0.75,0,0],[1,0,0],[0,1,0],[0.25,1,0],[0.5,1,0],[0.75,1,0],[1,1,0],[0,0.25,0],[0,0.5,0],[0,0.75,0],[1,0.25,0],[1,0.5,0],[1,0.75,0]];outlineConnect=0;fontColor=#232F3E;fillColor=#DD344C;strokeColor=#ffffff;dashed=0;verticalLabelPosition=bottom;verticalAlign=top;align=center;html=1;fontSize=12;fontStyle=1;aspect=fixed;shape=mxgraph.aws4.resourceIcon;resIcon=mxgraph.aws4.device_farm;" vertex="1" parent="1">
          <mxGeometry x="2495" y="-1538" width="78" height="78" as="geometry" />
        </mxCell>
        <mxCell id="Me6KZ-e09-LLOQmQ4gK6-22" value="Location Service" style="sketch=0;points=[[0,0,0],[0.25,0,0],[0.5,0,0],[0.75,0,0],[1,0,0],[0,1,0],[0.25,1,0],[0.5,1,0],[0.75,1,0],[1,1,0],[0,0.25,0],[0,0.5,0],[0,0.75,0],[1,0.25,0],[1,0.5,0],[1,0.75,0]];outlineConnect=0;fontColor=#232F3E;fillColor=#DD344C;strokeColor=#ffffff;dashed=0;verticalLabelPosition=bottom;verticalAlign=top;align=center;html=1;fontSize=12;fontStyle=1;aspect=fixed;shape=mxgraph.aws4.resourceIcon;resIcon=mxgraph.aws4.location_service;" vertex="1" parent="1">
          <mxGeometry x="2635" y="-1530" width="78" height="78" as="geometry" />
        </mxCell>
      </root>
    </mxGraphModel>
  </diagram>
</mxfile>
